<svg width="59" height="69" viewBox="0 0 59 69" fill="none" xmlns="http://www.w3.org/2000/svg">
<path d="M0 63.5246V58.2308H1.32343H2.64685V54.2606V50.2903H3.97028H5.29371V48.9669V47.6434H6.61713H7.94056V50.2903V52.9371H9.26398H10.5874V56.9074V60.8777H11.9108H13.2343V64.848V68.8183H11.9108H10.5874V66.1714V63.5246H6.61713H2.64685V66.1714V68.8183H1.32343H0V63.5246ZM7.94056 56.9074V52.9371H6.61713H5.29371V56.9074V60.8777H6.61713H7.94056V56.9074Z" fill="#E01E26"/>
<path d="M15.881 59.5543V50.2903H14.5576H13.2341V48.9669V47.6434H18.5278H23.8215V48.9669V50.2903H21.1747H18.5278V59.5543V68.8183H17.2044H15.881V59.5543Z" fill="#E01E26"/>
<path d="M23.8215 63.5246V58.2308H25.145H26.4684V54.2606V50.2903H27.7918H29.1152V48.9669V47.6434H30.4387H31.7621V50.2903V52.9371H33.0855H34.4089V56.9074V60.8777H35.7324H37.0558V64.848V68.8183H35.7324H34.4089V66.1714V63.5246H30.4387H26.4684V66.1714V68.8183H25.145H23.8215V63.5246ZM31.7621 56.9074V52.9371H30.4387H29.1152V56.9074V60.8777H30.4387H31.7621V56.9074Z" fill="#E01E26"/>
<path d="M39.7029 58.2308V47.6434H43.6732H47.6434V48.9669V50.2903H48.9669H50.2903V55.584V60.8777H48.9669H47.6434V62.2011V63.5246H48.9669H50.2903V66.1714V68.8183H48.9669H47.6434V67.4948V66.1714H46.32H44.9966V62.2011V58.2308H46.32H47.6434V55.584V52.9371H46.32H44.9966V51.6137V50.2903H43.6732H42.3497V59.5543V68.8183H41.0263H39.7029V58.2308Z" fill="#E01E26"/>
<path d="M52.937 58.2308V47.6434H55.5839H58.2307V58.2308V68.8183H55.5839H52.937V58.2308Z" fill="#E01E26"/>
<path d="M0 41.0262V37.0559H3.97028H7.94056V35.7325V34.4091H9.26399H10.5874V33.0857V31.7622H11.9108H13.2343V30.4388V29.1154H14.5577H15.8811V26.4685V23.8217H17.2045H18.528V19.8514V15.8811H19.8514H21.1748V7.94056V0H22.4983H23.8217V13.2343V26.4685H22.4983H21.1748V29.1154V31.7622H19.8514H18.528V34.4091V37.0559H17.2045H15.8811V38.3794V39.7028H13.2343H10.5874V41.0262V42.3496H7.94056H5.29371V43.6731V44.9965H2.64685H0V41.0262Z" fill="#E01E26"/>
<path d="M26.4685 22.4983V0H29.1154H31.7622V22.4983V44.9965H29.1154H26.4685V22.4983Z" fill="#E01E26"/>
<path d="M52.9372 43.6731V42.3496H50.2903H47.6434V41.0262V39.7028H44.9966H42.3497V38.3794V37.0559H41.0263H39.7029V34.4091V31.7622H38.3795H37.056V29.1154V26.4685H35.7326H34.4092V13.2343V0H35.7326H37.056V7.94056V15.8811H38.3795H39.7029V19.8514V23.8217H41.0263H42.3497V26.4685V29.1154H43.6732H44.9966V30.4388V31.7622H46.32H47.6434V33.0857V34.4091H48.9669H50.2903V35.7325V37.0559H54.2606H58.2309V41.0262V44.9965H55.584H52.9372V43.6731Z" fill="#E01E26"/>
</svg>
