<svg width="77" height="79" viewBox="0 0 77 79" fill="none" xmlns="http://www.w3.org/2000/svg">
<path d="M23.2145 77.7794C20.6056 76.202 19.4225 75.2616 18.1484 73.6538C16.5103 71.5606 15.9339 69.4371 16.1462 66.3125L16.3586 63.7946L14.9631 62.7935C6.95448 57.0601 1.91874 49.1424 0.432285 40.0114C-0.144095 36.4014 -0.144095 33.6712 0.432285 30.0612C2.88948 14.954 15.4788 3.15337 31.9815 0.453481C37.3813 -0.426257 44.5102 -0.00155588 49.9403 1.51523C54.066 2.66799 59.8904 5.48922 60.1635 6.45997C60.2241 6.67232 60.4365 7.40038 60.6185 8.0981C60.8309 8.82616 61.3162 9.76657 61.7106 10.2216L62.4387 11.071L62.469 10.2519C62.469 9.61489 62.6207 9.40254 63.0757 9.40254C63.4094 9.40254 63.6824 9.19019 63.6824 8.9475C63.6824 8.61381 64.0161 8.49247 64.8048 8.49247C66.443 8.49247 67.6261 9.7059 67.6261 11.344C67.6261 13.0732 67.2924 13.4069 65.5632 13.5889L64.0465 13.7102L64.5015 15.0753C64.9262 16.3191 65.0172 16.4101 65.8363 16.2281C66.9284 15.9854 68.7182 14.3473 68.5968 13.6799C68.5665 13.4069 68.9912 13.7102 69.5372 14.3473C70.5383 15.4394 71.2664 15.7731 71.2664 15.1663C71.2664 14.9843 70.6293 14.1653 69.8709 13.3462L68.4451 11.8294H69.5676C70.326 11.8294 70.6597 11.9507 70.6597 12.2844C70.6597 12.5271 70.8417 12.7395 71.054 12.7395C71.2664 12.7395 71.4787 13.1642 71.509 13.7102C71.5697 14.2563 71.7517 14.772 71.9338 14.8933C72.2068 15.0753 72.1461 15.2877 71.7821 15.7124C71.2664 16.2888 71.2967 16.4101 72.9045 19.4437C76.5448 26.3603 77.7279 32.9128 76.5751 40.0114C74.0573 55.4826 61.0735 67.3743 43.9945 69.8011C40.7789 70.2561 33.0736 69.9831 30.0097 69.3157C28.7659 69.0427 26.6728 68.4663 25.338 68.0416L22.9111 67.2832L21.7584 68.527C19.7259 70.6808 20.3629 72.956 23.9729 76.5053C25.0953 77.5974 25.9447 78.5985 25.8233 78.6895C25.4897 79.0232 24.9739 78.8715 23.2145 77.7794ZM20.0595 67.1012C20.6056 66.5552 21.5763 65.8271 22.1831 65.4934C23.5482 64.7957 31.6478 62.0048 36.8049 60.488C40.7789 59.3049 44.3889 57.6668 46.6944 55.968C50.183 53.3894 52.8829 49.4761 53.6413 45.8358C54.066 43.8943 53.7626 39.435 53.1862 38.9799C52.9739 38.8283 52.6402 37.7968 52.4582 36.7048C52.0638 34.4296 50.6684 30.7286 49.5763 28.9691L48.8482 27.7557L48.8179 28.8781C48.8179 29.8185 48.6662 30.0916 47.9078 30.4859C47.4224 30.7286 46.573 30.941 46.027 30.941C44.9956 30.941 43.6608 30.2432 43.6608 29.6972C43.6608 29.1511 41.9317 26.8456 39.8688 24.6008C37.988 22.5683 37.897 22.3559 37.897 20.9605C37.897 19.2617 38.5644 18.5033 40.0812 18.5033C40.8092 18.5033 40.9306 18.3819 40.9306 17.6539C40.9306 16.7135 41.7193 15.8337 43.2058 15.0753C44.0855 14.6203 44.0855 14.6203 41.8103 14.4079C37.806 14.0439 30.8591 15.4697 26.6727 17.5325C23.9425 18.8673 20.7573 21.8706 19.6955 24.1154C18.8158 25.9962 18.6034 28.3624 19.0585 30.5163C19.3922 31.9724 19.5135 32.1544 20.2112 32.1544C20.6663 32.1544 21.455 32.5791 22.1831 33.2161L23.3661 34.3082L24.2459 33.6712C25.2166 32.9735 27.2188 30.6679 28.7963 28.4231C29.767 27.058 29.8883 26.967 31.0714 27.058C32.2849 27.149 32.2849 27.149 32.3759 28.4534C32.5882 31.4263 31.3141 36.7958 30.0704 38.1305C29.403 38.8586 29.221 38.8889 27.2795 38.7676C25.338 38.6159 25.1863 38.6463 24.8829 39.3136C24.6403 39.89 24.3066 40.0417 23.2751 40.072C22.5471 40.1024 22.2741 40.1934 22.6078 40.254C22.9718 40.3147 23.5178 40.6484 23.8212 40.9821C24.0942 41.2855 24.5189 41.5585 24.7616 41.5585C25.4897 41.5585 29.0996 39.7687 30.6164 38.6766C31.8298 37.7968 32.3455 37.5845 33.2556 37.6755C34.3477 37.7665 34.4084 37.8272 34.4994 38.8586C34.5601 39.708 34.3174 40.3451 33.3163 41.8315C31.5871 44.4404 29.8883 45.5021 27.5222 45.5021H25.7627V47.7167C25.7627 51.3873 24.5796 54.4512 21.637 58.4252C18.0877 63.2486 17.0563 66.8889 18.3607 70.2258C18.5731 70.7112 18.6641 70.5595 18.8461 69.4978C18.9978 68.5877 19.3922 67.799 20.0595 67.1012ZM63.6824 46.6246C63.6824 46.4122 62.742 45.7448 61.5589 45.1381L59.4354 44.046V45.2291C59.4354 46.3212 59.4961 46.4122 60.2848 46.4122C60.7398 46.4122 61.3162 46.5639 61.5589 46.7156C62.2263 47.1403 63.6824 47.0796 63.6824 46.6246ZM19.1191 45.8055C19.5742 45.8055 19.6955 45.5628 19.6955 44.5921V43.3786L17.8147 44.4404C15.3878 45.7752 15.1755 46.2605 17.117 46.0178C17.9057 45.8965 18.8158 45.8055 19.1191 45.8055Z" fill="#1567FF"/>
<path d="M20.5448 74.9279C15.4484 70.4382 15.5091 64.5834 20.7268 57.5152C22.6683 54.9366 23.6997 52.9345 24.3975 50.5076C25.3379 47.3223 24.6098 43.409 22.7897 41.7709C22.2133 41.2552 22.1829 41.2552 21.3942 42.1653C20.3325 43.4394 20.3325 45.0168 21.3639 46.5639C22.0919 47.6257 22.1223 47.747 21.6672 48.4144C21.1515 49.2032 20.3021 49.3852 20.3021 48.7178C20.3021 47.9291 18.9977 46.6549 18.4213 46.8673C17.8146 47.11 16.6618 49.3548 16.6618 50.2649C16.6618 50.993 15.9338 51.721 15.4484 51.4177C14.9024 51.084 15.1147 49.8705 15.9034 48.7178C16.7832 47.4133 16.8438 47.019 16.1765 47.019C15.6001 47.019 14.053 48.5964 13.7799 49.4762C13.5676 50.1436 12.7182 50.2649 12.7182 49.6279C12.7182 49.3852 13.2036 48.5054 13.7799 47.6257C14.7507 46.1999 14.781 46.0786 14.144 46.2606C13.7799 46.3819 13.1125 46.7156 12.6272 47.0493C12.0205 47.474 11.8081 47.5347 11.8081 47.2313C11.8081 46.5639 13.3552 45.3202 15.6608 44.1674C17.9663 43.0147 19.6044 41.7406 20.6358 40.3148L21.2425 39.4654L20.1808 37.2509C18.9977 34.7633 17.9663 31.2444 17.7539 28.9692C17.2079 22.72 22.1829 17.1382 30.3129 14.863C35.379 13.4676 40.1114 13.0429 43.9034 13.6496C46.1482 14.0136 49.5762 15.2574 50.6379 16.0765L51.3963 16.6528L49.9099 16.2281C48.1504 15.6821 44.8134 15.6214 43.873 16.1068C42.8113 16.6528 41.8405 17.6539 41.8405 18.1696C41.8405 18.4427 42.4169 19.0797 43.0843 19.5651C44.9955 20.9605 48.1201 24.3885 49.7279 26.8457C51.457 29.5456 52.6704 32.4275 53.3378 35.6127L53.8232 38.0093L55.613 38.9497C56.6141 39.4654 58.2219 40.7091 59.2229 41.7102C60.5274 43.0147 61.8318 43.9247 63.7733 44.8955C66.4125 46.1999 67.4136 47.0493 66.9282 47.5044C66.8069 47.6257 66.2305 47.5954 65.6541 47.4133C65.0778 47.2313 64.5924 47.1707 64.5924 47.292C64.5924 47.4133 65.0778 48.1111 65.6845 48.8088C66.4732 49.7189 66.7159 50.1739 66.4732 50.4166C66.2305 50.6593 65.7755 50.3256 64.8047 49.2942C63.8643 48.2324 63.3486 47.8684 62.9543 48.0201C62.4992 48.2021 62.4992 48.3538 63.2273 49.5369C64.1374 51.1143 64.198 51.8727 63.4396 51.8727C63.0453 51.8727 62.7116 51.3873 62.3172 50.2952C61.5891 48.2627 60.5577 47.1707 59.769 47.5954C59.4656 47.7774 59.0409 48.3234 58.8286 48.8391C58.3736 49.9312 58.1309 49.9616 57.5242 49.0515C57.0995 48.4144 57.1298 48.2627 57.7972 47.1403C59.1623 44.8651 58.4039 42.4383 55.8557 41.0125L54.6119 40.3148L54.7939 42.4383C55.158 46.6549 53.6715 50.8413 50.6986 54.0569C47.5133 57.4848 43.7517 59.6083 37.7149 61.3981C32.5578 62.9149 24.4581 65.7058 23.093 66.4036C20.0898 67.9507 18.9977 70.5596 20.2718 73.1684C20.6055 73.8965 21.1819 74.8066 21.5459 75.2009C22.638 76.384 21.9706 76.202 20.5448 74.9279ZM29.7366 43.7124C30.586 43.1967 31.6174 42.1046 32.4061 40.9518C34.0139 38.525 33.6802 38.0092 31.5567 39.5564C29.8882 40.8001 25.3682 42.954 24.7615 42.8023C24.2458 42.7113 24.9435 43.4394 25.8839 44.0157C27.1884 44.8045 28.1288 44.7438 29.7366 43.7124ZM24.0941 38.2216C24.3368 37.7362 24.5491 37.0992 24.5491 36.7655C24.5491 35.7947 24.8222 35.8251 25.8839 36.8868C28.3714 39.3744 30.2826 37.2812 31.223 31.0017C31.5567 28.8478 31.496 27.9074 30.9803 27.9074C30.859 27.9074 29.9186 29.0299 28.9478 30.3646C27.9467 31.7297 26.5513 33.3375 25.8536 33.9746C25.1255 34.6116 24.5491 35.279 24.5491 35.461C24.5491 35.8857 24.4581 35.8857 23.093 35.3094C22.4863 35.0667 21.5156 34.4296 20.9695 33.9139C19.21 32.1848 19.0887 33.7622 20.7572 37.0385C21.9403 39.344 23.275 39.8294 24.0941 38.2216ZM23.5177 29.1512C25.5806 27.9378 27.4007 25.8446 29.3725 22.4166C30.2523 20.8695 31.587 18.8067 32.3454 17.8359C33.0735 16.8652 33.6195 16.0765 33.5589 16.0765C32.9522 16.0765 28.2804 17.8359 26.8243 18.5943C22.1526 21.0819 18.755 26.7243 20.4235 29.2725C21.0605 30.2433 21.6066 30.2129 23.5177 29.1512ZM46.9976 29.5759C48.4537 28.8175 48.2717 27.331 46.4212 24.5402C44.4798 21.6279 44.0551 21.1425 42.6293 20.2021C41.2945 19.2921 40.4451 19.2011 39.4743 19.8988C38.4126 20.6268 38.6553 21.3852 40.7788 23.6908C42.8416 25.9356 44.5708 28.2411 44.5708 28.7872C44.5708 29.0299 45.7235 30.0309 46.0269 30.0309C46.0876 30.0309 46.5123 29.8186 46.9976 29.5759Z" fill="#F5F5F5"/>
<path d="M26.3694 43.4696C26.3694 43.3179 27.3705 42.7719 28.5839 42.1955C29.767 41.6191 30.8894 41.0731 31.0411 41.0124C31.6175 40.7091 29.949 42.6202 29.1603 43.1359C28.3412 43.682 26.3694 43.8943 26.3694 43.4696ZM28.9479 42.7719C30.1007 42.0135 29.858 42.0135 28.3109 42.7719C27.6738 43.0753 27.3401 43.3483 27.5828 43.3786C27.8255 43.3786 28.4626 43.1056 28.9479 42.7719Z" fill="#F5F5F5"/>
<path d="M22.2134 37.7059C21.0303 35.9464 20.6966 34.2779 21.7887 35.6127C22.0011 35.8554 22.4865 36.1284 22.9112 36.2194C23.5785 36.4014 23.6696 36.5531 23.4875 37.2508C23.1842 38.5249 22.8505 38.6463 22.2134 37.7059ZM23.2145 36.7351C23.0022 36.4014 21.8191 36.0981 21.8191 36.3711C21.8191 36.4621 22.0314 36.8868 22.3044 37.2812C22.7595 37.9182 22.8505 37.9182 23.0932 37.4935C23.2449 37.2205 23.3055 36.8868 23.2145 36.7351Z" fill="#F5F5F5"/>
<path d="M26.6119 36.4317L25.6108 35.552L27.1276 33.9139C27.977 33.0341 29.0995 31.76 29.6455 31.0926C30.1915 30.4253 30.5252 30.1522 30.3736 30.4859C30.2219 30.8196 30.1309 31.2747 30.1915 31.487C30.2219 31.6994 30.1915 31.7297 30.1005 31.5477C30.0399 31.396 29.6152 31.6994 29.1601 32.2454C28.7354 32.7611 27.9164 33.7319 27.3096 34.3386C26.2782 35.461 26.2782 35.4913 26.8243 36.098C27.1276 36.4317 27.5523 36.7048 27.7343 36.7048C28.2197 36.7048 29.0085 35.5217 29.2815 34.4599C29.3725 34.0049 29.5545 33.7015 29.6455 33.7925C29.9185 34.0959 28.7354 36.7048 28.159 37.0081C27.7343 37.2508 27.4007 37.1295 26.6119 36.4317Z" fill="#F5F5F5"/>
<path d="M44.9348 27.5129C44.4494 26.6332 43.054 24.8737 41.8406 23.5693C39.5654 21.1424 39.2923 20.3234 40.7788 20.3234C41.8102 20.3234 44.2067 22.5682 45.7235 24.9951C47.2707 27.3916 47.4527 28.0287 46.846 28.6354C46.0876 29.3634 45.9056 29.2724 44.9348 27.5129ZM46.846 28.2107C47.2707 27.5433 43.782 22.5682 42.0226 21.3244C41.3552 20.8391 40.7485 20.6267 40.4451 20.7481C39.9901 20.9301 40.1721 21.2031 41.4462 22.5379C43.2663 24.3884 45.1472 26.8456 45.5112 27.8163C45.7842 28.5444 46.5123 28.7567 46.846 28.2107Z" fill="#F5F5F5"/>
<path d="M62.7724 13.5282C62.7724 13.3158 62.56 12.9518 62.3173 12.7395C62.014 12.4968 61.8623 11.8294 61.8623 10.7676C61.8623 8.94749 62.4994 8.09809 63.6218 8.40145C64.0161 8.49246 64.2892 8.43179 64.2892 8.21944C64.2892 8.03742 64.7745 7.88574 65.4419 7.88574C67.0194 7.91608 68.2328 9.00817 68.2328 10.4339C68.2328 11.0103 68.0811 11.5867 67.9295 11.6777C67.7474 11.7687 67.7171 12.1934 67.8081 12.5878C68.0508 13.5889 67.2014 13.9529 64.7745 13.9529C63.2881 13.9529 62.7724 13.8619 62.7724 13.5282ZM65.2599 12.3754C64.7745 11.8901 64.8049 11.526 65.3509 11.526C65.5936 11.526 65.806 11.3744 65.806 11.162C65.806 10.889 65.897 10.889 66.17 11.162C66.4127 11.4047 66.4127 11.617 66.1093 11.9811C65.897 12.2541 65.8666 12.4361 66.0486 12.4361C66.2307 12.4361 66.4733 12.1631 66.5644 11.7991C66.716 11.344 66.534 10.9193 65.9273 10.2823C64.8959 9.22052 64.7139 9.19018 64.5319 10.1609C64.4105 10.6766 64.5015 10.9193 64.7745 10.9193C65.0172 10.9193 65.1992 10.6766 65.2296 10.4036C65.2296 10.0396 65.2903 10.0092 65.4116 10.2519C65.6239 10.798 64.9566 11.526 64.4105 11.3137C64.1678 11.2227 63.9858 10.98 63.9858 10.7373C63.9858 10.4946 63.8645 10.3126 63.6825 10.3126C63.5308 10.3126 63.3791 10.4643 63.3791 10.6766C63.3791 11.1317 64.8959 12.7395 65.3206 12.7395C65.5026 12.7395 65.4723 12.5878 65.2599 12.3754Z" fill="#F5F5F5"/>
<path d="M19.8772 30.5464C17.6323 28.3016 19.4525 22.5074 23.3961 19.3829C25.3983 17.7751 28.5532 16.3189 31.6778 15.4999C34.5597 14.7415 37.2899 14.3774 37.2899 14.7415C37.2596 14.8932 36.7135 15.3785 36.0765 15.8336C34.5294 16.9257 32.3755 19.6559 30.4037 23.1445C28.2499 26.9061 26.2174 29.151 23.8815 30.3037C21.667 31.4262 20.8176 31.4868 19.8772 30.5464Z" fill="#E6E6E6"/>
<path d="M68.5356 17.2897C68.1412 17.047 68.1716 16.9864 68.6569 16.9864C68.9906 16.9864 69.658 16.6223 70.1131 16.1673C70.5681 15.7123 70.9625 15.4999 70.9625 15.6516C70.9625 15.8033 70.6894 16.1066 70.3557 16.319C70.0221 16.5313 69.749 16.8954 69.749 17.138C69.749 17.6537 69.203 17.7144 68.5356 17.2897Z" fill="#E6E6E6"/>
<path d="M64.41 16.137C63.7123 15.4696 63.0449 14.5292 62.9539 14.0438C62.8325 13.5281 62.2562 12.6787 61.6798 12.1023C61.0731 11.5259 60.4057 10.7068 60.163 10.2215C59.6473 9.25073 59.0709 6.4295 59.2833 6.03514C59.4653 5.76212 61.1641 6.61152 62.6809 7.76428C63.6819 8.52267 64.2887 8.70469 64.2887 8.21931C64.2887 7.76428 62.8325 6.73286 61.6798 6.36883C60.2843 5.88346 60.345 5.36775 61.8011 5.64077C63.5606 5.94413 65.3201 6.79353 66.6548 8.0373C67.3526 8.64402 68.384 9.28107 68.9604 9.43275C70.2648 9.79678 72.0546 11.8899 71.6906 12.6787C71.5692 12.9517 71.4782 13.2854 71.5086 13.3764C71.5389 13.4977 71.2962 13.6494 70.9929 13.7404C70.6592 13.8314 70.0525 13.4674 69.2941 12.709C67.5649 10.9799 67.1402 11.7079 68.8087 13.5281L70.1131 14.9235L69.0514 15.6516C68.475 16.046 67.929 16.501 67.8683 16.6527C67.8379 16.8043 67.2919 17.0167 66.7155 17.1077C65.7751 17.2897 65.5021 17.1684 64.41 16.137ZM66.7155 12.436C68.02 11.1316 67.0492 8.7957 65.2291 8.7957C63.955 8.7957 62.7719 9.85745 62.7719 10.9799C62.7719 11.4956 62.9842 12.1933 63.2876 12.4967C63.9853 13.2551 65.9268 13.2247 66.7155 12.436Z" fill="#E6E6E6"/>
<path d="M26.3691 43.4697C26.3691 43.3181 27.3702 42.772 28.5837 42.1956C29.7668 41.6193 30.8892 41.0732 31.0409 41.0125C31.6172 40.7092 29.9488 42.6203 29.16 43.136C28.341 43.6821 26.3691 43.8944 26.3691 43.4697Z" fill="#FF0000"/>
<path d="M22.2132 37.7059C21.0301 35.9464 20.6964 34.2779 21.7885 35.6127C22.0008 35.8554 22.4862 36.1284 22.9109 36.2194C23.5783 36.4014 23.6693 36.5531 23.4873 37.2508C23.1839 38.5249 22.8502 38.6463 22.2132 37.7059Z" fill="#FF0000"/>
<path d="M26.6119 36.4318L25.6108 35.5521L27.1276 33.9139C27.977 33.0342 29.0691 31.7601 29.6152 31.0927L30.5556 29.8793L30.0095 32.5185C29.0388 37.0082 28.2501 37.8879 26.6119 36.4318Z" fill="#FF0000"/>
<path d="M44.9348 27.5131C44.4494 26.6333 43.054 24.8739 41.8406 23.5694C39.5654 21.1426 39.2923 20.3235 40.7788 20.3235C41.8102 20.3235 44.2067 22.5683 45.7235 24.9952C47.2707 27.3917 47.4527 28.0288 46.846 28.6355C46.0876 29.3636 45.9056 29.2725 44.9348 27.5131Z" fill="#FF0000"/>
<path d="M64.198 17.5326C63.3789 15.5608 62.7419 13.3462 62.8936 13.0732C62.9846 12.9215 62.8632 12.6485 62.6205 12.4362C61.8925 11.8295 62.0442 9.9183 62.8632 9.15991C65.4114 6.76338 69.4461 9.79696 67.3226 12.5272C66.5642 13.4676 64.8957 13.862 63.743 13.3766C63.2273 13.1642 63.7126 13.7406 65.0474 14.9844L67.1709 16.9259L66.3215 17.2596C65.8665 17.4416 65.4114 17.8056 65.3204 18.0483C65.0171 18.7764 64.6227 18.5943 64.198 17.5326ZM66.7159 12.4362C68.081 11.0711 67.0496 8.79588 65.0777 8.79588C63.0452 8.79588 61.9228 10.7374 63.0756 12.2238C63.8946 13.2552 65.7755 13.3766 66.7159 12.4362Z" fill="#FF0000"/>
<path d="M68.8394 17.2899C68.8394 17.1383 68.9304 16.9866 69.082 16.9866C69.2034 16.9866 69.8101 16.5012 70.4168 15.9248C71.5089 14.8934 72.1763 14.5901 72.1763 15.1361C72.1763 15.2878 71.5999 15.9248 70.9022 16.5012C69.6584 17.563 68.8394 17.8967 68.8394 17.2899Z" fill="#FF0000"/>
<path d="M69.3246 11.0407C68.0201 9.58456 67.7168 9.06886 68.1718 9.22054C68.5358 9.31154 69.1425 9.49356 69.5369 9.58456C69.9009 9.70591 70.902 10.0396 71.7818 10.3733L73.3592 10.9497L72.3278 12.0114C71.7514 12.5878 71.2357 13.0428 71.2054 13.0428C71.1447 13.0428 70.2953 12.1328 69.3246 11.0407Z" fill="#FF0000"/>
</svg>
