<?xml version="1.0" standalone="no"?>
<!DOCTYPE svg PUBLIC "-//W3C//DTD SVG 20010904//EN"
 "http://www.w3.org/TR/2001/REC-SVG-20010904/DTD/svg10.dtd">
<svg version="1.0" xmlns="http://www.w3.org/2000/svg"
 width="70pt" height="70.000000pt" viewBox="0 0 400.000000 400.000000"
 preserveAspectRatio="xMidYMid meet">

<g transform="translate(0.000000,400.000000) scale(0.100000,-0.100000)"
fill="#000000" stroke="none">
<path d="M1385 3280 c-33 -4 -71 -13 -85 -19 -23 -11 -22 -11 10 -5 99 17 163
20 240 12 47 -5 128 -13 180 -17 78 -7 85 -9 40 -10 -53 -3 -54 -3 -21 -12 26
-8 41 -6 74 10 35 18 44 18 71 7 18 -7 38 -19 46 -27 24 -23 89 -49 118 -48
20 0 15 4 -23 16 -27 8 -63 25 -80 37 -51 37 -90 49 -144 41 -27 -4 -91 -2
-143 4 -140 15 -217 18 -283 11z"/>
<path d="M1210 3224 c-25 -14 -70 -49 -100 -79 -58 -56 -106 -85 -140 -85 -29
0 -94 -69 -108 -116 -6 -23 -26 -68 -44 -100 -29 -53 -32 -67 -32 -139 1 -50
9 -108 22 -155 28 -97 49 -215 57 -315 7 -97 23 -208 36 -255 20 -66 19 -66
29 -51 6 11 12 7 23 -15 18 -35 67 -89 67 -74 0 16 -42 101 -47 96 -3 -2 1
-14 7 -26 6 -12 9 -24 7 -27 -6 -6 -37 51 -37 67 0 6 4 8 10 5 6 -3 7 1 3 10
-3 9 -9 13 -12 8 -10 -14 -34 -9 -38 7 -4 13 -3 13 7 0 8 -12 10 -8 8 20 -2
21 -8 34 -15 33 -15 -3 -22 36 -27 149 -3 48 -8 93 -12 99 -3 6 0 15 7 20 8 5
9 9 3 9 -7 0 -14 27 -18 63 -4 34 -18 98 -31 142 -31 104 -44 187 -35 233 10
57 73 184 83 169 5 -8 6 -5 3 8 -11 40 46 99 130 136 27 11 69 40 94 64 61 61
103 95 115 95 13 1 52 30 39 30 -5 0 -29 -12 -54 -26z"/>
<path d="M1800 3210 c-12 -8 -11 -10 7 -10 12 0 25 5 28 10 8 13 -15 13 -35 0z"/>
<path d="M2128 3163 c12 -2 32 -2 45 0 12 2 2 4 -23 4 -25 0 -35 -2 -22 -4z"/>
<path d="M2295 3161 c22 -4 50 -13 63 -19 23 -13 30 -32 11 -32 -27 0 45 -42
79 -46 20 -2 48 -9 62 -14 14 -5 70 -21 125 -35 55 -15 113 -32 130 -40 16 -7
39 -16 50 -19 11 -4 36 -20 55 -37 33 -29 35 -35 35 -91 -1 -41 -5 -62 -15
-68 -19 -12 -73 -13 -66 -1 3 5 -8 14 -26 20 -38 14 -58 14 -38 1 24 -16 -10
-13 -60 5 -51 18 -53 18 -44 4 4 -7 0 -9 -12 -5 -27 8 -148 27 -218 33 -38 4
-53 9 -45 14 9 6 -2 8 -31 8 -37 -1 -41 -2 -20 -9 20 -6 13 -8 -30 -10 -125
-4 -85 -17 70 -23 151 -6 391 -35 465 -55 28 -8 30 -12 27 -48 -1 -21 -7 -57
-12 -79 -5 -22 -17 -89 -26 -150 -9 -60 -22 -125 -28 -142 -11 -31 -12 -32
-23 -13 -11 16 -10 18 2 14 22 -9 18 11 -7 40 -17 19 -40 28 -88 36 -160 27
-635 47 -1068 46 -189 -1 -292 3 -292 9 0 31 74 123 145 180 27 22 59 48 69
57 11 10 28 20 38 24 10 3 18 9 18 14 0 16 58 23 245 29 l190 7 -185 2 c-184
1 -259 -9 -268 -38 -2 -5 -9 -10 -15 -10 -6 0 -19 -7 -29 -17 -26 -24 -34 -9
-9 18 42 46 19 39 -27 -8 -46 -46 -63 -75 -22 -38 11 10 23 16 26 13 3 -3 -21
-27 -53 -53 -32 -26 -64 -56 -71 -66 -10 -15 -26 -19 -70 -19 -45 -1 -53 -3
-39 -11 11 -6 32 -9 48 -7 16 3 28 2 26 -1 -61 -117 -83 -184 -93 -281 -4 -41
-9 -68 -12 -60 -19 58 -22 61 -36 48 -13 -11 -13 -15 1 -25 9 -7 16 -26 17
-43 1 -16 4 -30 9 -30 12 0 8 -47 -7 -87 -8 -21 -19 -72 -26 -113 -19 -126
-20 -120 5 -120 26 0 35 17 35 65 0 43 21 98 27 73 4 -14 15 -18 53 -18 27 0
52 -4 55 -10 4 -6 -15 -10 -49 -10 l-56 0 0 -44 c0 -40 2 -44 28 -48 15 -2 46
-2 69 0 34 3 40 7 36 23 -4 15 0 19 20 19 20 0 24 4 20 19 -4 14 1 21 19 24
15 3 11 5 -14 6 -52 2 -60 21 -9 21 23 0 41 5 41 10 0 6 -18 10 -41 10 -44 0
-46 19 -1 21 l27 1 -30 8 c-28 7 -27 8 13 9 l42 1 0 -90 c0 -53 4 -90 10 -90
6 0 10 34 10 81 0 62 4 84 17 97 16 16 16 17 0 20 -30 6 -18 21 21 25 l37 4
-37 1 c-70 3 -36 52 36 52 25 0 46 5 46 10 0 6 -11 10 -25 10 -14 0 -25 5 -25
10 0 6 -16 10 -35 10 -19 0 -35 5 -35 10 0 6 30 10 70 10 l70 0 0 -170 c0
-107 4 -170 10 -170 6 0 10 63 10 169 0 126 3 171 13 174 9 4 9 8 1 14 -7 4
-12 27 -12 51 -1 42 11 56 22 26 6 -15 9 -14 25 5 10 11 21 21 24 21 4 0 8
-100 10 -222 l2 -223 3 237 c2 227 3 237 22 243 11 3 20 11 20 16 0 5 6 9 14
9 8 0 16 6 19 13 3 9 9 8 22 -5 17 -16 16 -18 -21 -52 -22 -20 -35 -36 -30
-36 8 0 55 36 115 89 15 13 32 19 43 15 13 -4 16 -1 12 10 -8 21 5 20 28 0 13
-13 21 -14 31 -6 10 9 18 8 32 -2 17 -12 16 -15 -19 -50 -21 -20 -41 -36 -44
-36 -4 0 -13 -9 -20 -20 -19 -31 -1 -23 48 20 25 22 50 45 57 50 8 6 19 3 35
-11 17 -15 20 -22 9 -26 -25 -10 -77 -62 -61 -63 8 0 28 14 46 31 27 26 35 29
53 20 12 -7 21 -18 21 -26 0 -18 -12 -19 -28 -3 -9 9 -12 -37 -12 -210 0 -141
4 -222 10 -222 6 0 10 73 10 198 l0 197 36 33 37 34 20 -21 c17 -17 18 -22 7
-36 -7 -9 -18 -14 -24 -12 -7 3 -17 -6 -23 -19 -6 -13 -7 -24 -2 -24 5 0 9
-77 9 -175 0 -110 4 -175 10 -175 6 0 10 69 10 188 l1 187 25 18 c24 18 26 18
45 1 19 -17 19 -18 -3 -41 -12 -13 -17 -23 -11 -23 6 0 16 7 23 15 15 19 27
19 45 1 12 -12 5 -22 -45 -67 -64 -57 -74 -78 -16 -34 32 25 36 25 36 8 0 -10
-18 -34 -40 -53 -48 -42 -53 -61 -7 -26 19 15 37 26 40 26 4 0 7 -25 7 -54 0
-49 -4 -59 -32 -87 -30 -29 -31 -31 -6 -16 36 22 38 22 38 -13 0 -38 16 -38
56 -1 17 16 38 30 45 31 27 4 40 0 38 -12 -6 -49 -6 -49 113 -45 l112 4 -2 96
c-1 60 2 97 8 97 5 0 10 11 10 24 0 13 6 27 13 29 10 4 10 6 0 6 -7 1 -13 12
-13 26 0 18 5 25 20 25 15 0 20 7 21 28 0 15 3 21 6 14 3 -7 0 -49 -6 -95 -6
-45 -12 -122 -15 -172 l-5 -90 13 84 c11 75 16 87 45 110 36 30 61 73 61 107
0 12 5 26 10 29 6 3 10 17 10 31 0 13 5 24 10 24 6 0 10 6 10 13 1 20 47 47
92 53 77 9 124 -35 199 -188 5 -10 9 -27 9 -38 0 -11 4 -20 9 -20 5 0 11 -15
14 -32 3 -18 12 -69 21 -112 41 -215 48 -589 12 -691 -43 -125 -137 -275 -222
-358 -62 -60 -168 -137 -189 -137 -25 0 -84 30 -93 47 -5 10 -12 71 -16 137
-7 129 -17 166 -27 96 -3 -25 -3 -47 1 -50 4 -3 8 -30 9 -60 0 -30 5 -82 11
-115 15 -93 13 -127 -7 -123 -20 4 -31 48 -12 48 8 0 9 4 0 13 -8 10 -7 17 2
26 9 9 9 13 0 19 -8 5 -14 43 -17 97 -2 50 -7 98 -11 108 -4 9 -2 24 4 31 8 9
8 15 1 18 -14 4 -24 179 -11 198 16 23 26 3 32 -68 4 -45 6 -13 7 100 l2 167
-32 -31 c-21 -20 -33 -27 -36 -18 -3 7 1 16 8 20 9 5 9 9 1 14 -8 5 -4 14 11
26 22 18 20 18 -103 19 l-126 2 -33 -31 c-37 -35 -51 -33 -26 5 16 24 16 25
-4 25 -11 0 -20 -7 -20 -15 0 -8 -3 -15 -7 -15 -14 -1 -87 -69 -81 -76 4 -3
23 6 43 21 56 43 52 22 -7 -36 -48 -47 -44 -48 20 -3 12 9 26 14 30 10 3 -4
-19 -30 -51 -57 -68 -60 -75 -82 -13 -39 25 16 47 27 49 23 8 -15 -11 -48 -38
-68 -48 -35 -55 -45 -49 -70 3 -12 1 -26 -5 -29 -8 -5 -11 47 -11 173 0 114
-4 181 -10 181 -6 0 -10 -71 -10 -194 0 -119 4 -197 10 -201 6 -3 10 -1 10 4
0 6 5 11 10 11 19 0 10 -43 -12 -63 -18 -15 -19 -19 -5 -14 29 11 34 -23 8
-45 -34 -27 -41 -23 -42 30 l-1 47 -10 -50 c-5 -27 -6 -123 -3 -212 3 -97 1
-164 -4 -168 -6 -3 -12 16 -14 42 -3 44 -4 42 -5 -14 -2 -60 -3 -63 -27 -63
-24 0 -25 3 -25 56 0 40 -3 55 -12 52 -9 -3 -14 -31 -16 -81 -2 -53 -7 -77
-15 -77 -7 0 -14 14 -15 32 -4 45 -12 49 -12 5 0 -31 -3 -36 -30 -42 -41 -9
-50 0 -51 53 l-1 47 -11 -50 c-5 -27 -15 -53 -21 -57 -8 -5 -7 -8 2 -8 6 0 12
-7 12 -15 0 -11 -12 -15 -45 -15 l-45 0 0 39 c0 55 -18 61 -22 9 -3 -42 -4
-43 -40 -46 -22 -2 -38 1 -38 7 0 6 -5 11 -10 11 -6 0 -22 11 -35 25 l-25 24
58 4 57 3 -66 2 c-45 1 -71 7 -79 17 -11 13 -2 15 69 15 52 0 80 4 76 10 -3 6
-48 10 -100 10 -113 0 -138 18 -33 23 l73 3 -84 2 c-46 1 -81 5 -77 9 4 4 73
7 154 5 81 -1 161 2 177 7 21 6 -34 10 -178 10 -117 1 -206 5 -203 10 3 5 20
7 38 5 54 -6 248 8 242 17 -3 5 -47 10 -97 11 l-92 2 85 6 85 6 -110 3 c-60 2
-114 3 -118 2 -4 -1 -18 4 -30 11 -20 12 -16 14 43 19 l65 6 -67 1 c-114 3
-77 21 50 25 l117 3 -122 2 c-74 1 -123 6 -123 12 0 6 3 10 8 10 66 2 258 13
261 16 2 2 -35 4 -83 4 -52 0 -96 5 -109 13 -19 10 -11 13 68 18 l90 5 -102 2
c-70 1 -103 6 -106 15 -4 9 -8 8 -17 -3 -10 -13 -11 -13 -7 0 4 17 10 17 115
19 40 1 72 5 72 11 0 6 -30 10 -70 10 -69 0 -96 15 -42 23 26 4 26 4 5 12 -51
17 -16 25 110 27 l132 1 -132 10 c-129 9 -181 26 -85 28 26 0 67 4 92 8 39 8
34 9 -42 10 -101 1 -122 20 -25 23 l62 1 -63 6 c-67 6 -85 22 -37 32 28 6 27
7 -10 8 -37 2 -39 3 -21 16 11 8 14 15 8 15 -7 0 -12 7 -12 15 0 8 9 15 20 15
27 0 25 18 -2 23 -20 4 -19 4 5 6 15 0 27 6 27 11 0 6 -12 10 -27 11 l-28 1
25 8 c23 7 23 8 4 9 -27 1 -29 13 -33 126 -4 114 -11 125 -11 17 l0 -82 -40 0
c-34 0 -40 3 -40 21 0 11 5 17 10 14 6 -3 10 -2 10 4 0 5 -6 12 -12 14 -10 4
-9 8 2 16 10 7 11 11 3 11 -8 0 -13 15 -13 40 0 22 -4 40 -10 40 -5 0 -10 -4
-10 -10 0 -5 -10 -10 -22 -10 -19 0 -20 2 -8 10 11 7 -5 10 -52 10 -61 0 -66
-1 -61 -20 3 -11 10 -20 17 -20 6 0 4 -5 -4 -10 -13 -8 -12 -10 3 -10 9 0 17
-4 17 -10 0 -5 -6 -10 -13 -10 -10 0 -14 -16 -16 -50 -1 -42 2 -50 16 -51 16
0 15 -2 -2 -9 -17 -7 -17 -9 -2 -9 21 -1 23 -21 2 -21 -21 0 -19 -38 3 -43 16
-4 16 -5 0 -6 -22 -1 -24 -21 -3 -21 8 0 15 -7 15 -15 0 -18 -16 -20 -23 -2
-4 9 -6 8 -6 -2 -1 -8 7 -20 17 -27 16 -13 16 -13 0 -14 -10 0 -18 -5 -18 -11
0 -5 4 -8 9 -4 5 3 12 1 16 -5 3 -5 -1 -10 -9 -10 -11 0 -16 -9 -16 -30 0 -20
5 -30 15 -30 8 0 15 -4 15 -10 0 -5 -6 -10 -14 -10 -10 0 -14 -10 -14 -30 1
-25 5 -30 25 -30 12 0 23 -4 23 -10 0 -5 -11 -10 -25 -10 -31 0 -32 -11 -2
-30 l22 -14 -30 -7 c-27 -6 -26 -7 13 -8 51 -1 56 -19 7 -23 -40 -3 -48 -21
-13 -26 40 -6 45 -22 7 -22 -31 0 -35 -3 -34 -23 2 -18 8 -22 38 -22 25 0 37
-5 37 -14 0 -9 -7 -11 -24 -7 -14 3 -33 3 -43 -1 -15 -6 -13 -9 12 -14 l30 -7
-27 -1 c-44 -2 -33 -21 12 -21 22 0 40 -4 40 -10 0 -5 -21 -10 -47 -10 -39 -1
-45 -3 -30 -11 10 -6 27 -9 37 -6 10 2 24 1 31 -4 9 -6 -4 -9 -36 -10 -34 -1
-40 -3 -20 -6 46 -7 55 -23 13 -23 -34 0 -37 -2 -36 -30 1 -25 5 -30 25 -30
12 0 23 -4 23 -10 0 -5 -11 -10 -25 -10 -14 0 -25 -4 -25 -9 0 -5 -3 -16 -6
-24 -3 -10 2 -17 13 -20 14 -4 14 -5 -4 -6 -40 -2 -25 -21 16 -21 22 0 43 -4
46 -10 4 -6 -11 -10 -38 -10 -31 0 -47 -5 -51 -15 -4 -11 2 -15 24 -16 17 -1
35 -3 40 -4 6 -1 17 -3 25 -4 8 0 15 -5 15 -11 0 -6 -28 -10 -62 -10 -45 0
-59 -3 -48 -10 8 -5 25 -10 37 -10 34 0 86 -51 81 -79 -3 -22 -4 -22 -44 13
-57 48 -87 55 -102 21 -7 -14 -12 -39 -12 -56 0 -42 -25 -86 -60 -104 -36 -19
-49 -19 -88 0 -39 20 -46 50 -32 156 5 46 10 85 10 86 0 2 -6 3 -13 3 -16 0
-59 -138 -61 -192 -1 -47 24 -72 113 -113 47 -22 66 -25 160 -24 58 1 97 3 86
6 -29 7 -65 43 -65 65 0 10 4 18 8 18 9 0 95 -71 100 -82 5 -11 32 -10 32 2 0
5 -8 14 -17 19 -10 6 -12 11 -5 11 6 0 12 4 12 9 0 13 -100 95 -107 88 -3 -4
9 -18 26 -33 18 -14 30 -29 27 -31 -3 -3 -12 2 -21 11 -9 8 -26 23 -38 32 -14
10 -18 18 -10 21 7 2 9 12 5 21 -3 9 28 -13 70 -48 49 -41 71 -66 62 -68 -13
-3 -12 -6 3 -18 10 -7 23 -13 28 -14 6 0 3 5 -5 11 -11 8 -12 12 -3 15 8 4 1
16 -18 35 -34 34 -33 47 3 29 20 -10 20 -8 -4 12 -16 13 -28 27 -28 32 0 8 44
-22 78 -54 13 -12 25 -20 27 -18 4 4 -29 40 -60 66 -25 21 -18 31 17 22 28 -9
71 -39 90 -65 5 -6 8 -5 8 3 0 7 -6 15 -14 18 -8 3 -17 12 -20 19 -4 11 45 13
289 12 171 -1 290 -6 285 -11 -8 -8 11 -36 25 -36 4 0 16 11 27 25 11 14 28
25 39 25 27 0 24 -15 -7 -35 -14 -9 -23 -19 -20 -23 3 -3 17 4 29 17 13 12 31
19 39 16 8 -3 21 1 28 10 7 8 17 15 23 15 6 0 0 -11 -13 -25 -13 -14 -18 -25
-12 -25 7 0 12 3 12 8 0 10 69 47 76 40 5 -6 1 -10 -46 -48 -20 -16 -21 -19
-5 -13 11 4 34 20 50 35 33 31 45 35 45 16 0 -7 -21 -33 -47 -57 -32 -29 -37
-36 -16 -22 18 12 35 26 38 31 9 15 25 12 25 -5 0 -20 7 -19 32 5 20 18 23 19
31 4 6 -10 3 -22 -10 -37 -18 -22 -18 -22 3 -5 11 10 28 18 36 18 9 0 19 10
23 22 l8 23 4 -24 c4 -19 -3 -31 -29 -53 -18 -15 -28 -27 -23 -27 6 0 26 12
44 28 29 24 39 27 58 18 28 -13 29 -22 3 -40 -19 -13 -18 -14 10 -14 21 0 30
6 33 21 4 21 4 21 6 0 1 -19 7 -22 40 -20 32 2 48 11 92 54 60 58 55 72 -5 17
-21 -19 -41 -35 -45 -35 -3 1 21 25 54 55 33 30 55 55 49 55 -5 0 -15 -5 -22
-12 -9 -9 -12 -5 -12 19 0 23 5 32 21 36 21 6 21 10 15 79 -4 40 -10 76 -13
80 -2 5 -18 -1 -34 -12 -24 -18 -29 -19 -29 -6 0 9 -4 16 -10 16 -5 0 -10 -13
-10 -30 0 -16 -4 -30 -10 -30 -5 0 -10 9 -10 20 0 11 -5 20 -10 20 -6 0 -8
-12 -5 -27 3 -16 2 -22 -1 -15 -9 19 -22 14 -26 -10 -4 -25 -28 -37 -28 -14 0
23 -17 20 -23 -5 -3 -11 -15 -23 -26 -26 -12 -3 -21 -10 -21 -15 0 -5 -4 -7
-10 -3 -5 3 -7 12 -3 20 3 8 0 15 -6 15 -6 0 -11 -5 -11 -10 0 -18 -64 -51
-87 -45 -12 3 -28 -2 -37 -11 -9 -8 -21 -14 -28 -12 -7 3 -2 13 12 26 31 29
17 28 -23 0 -39 -28 -88 -34 -80 -9 6 15 5 15 -13 0 -22 -19 -107 -23 -97 -5
3 6 0 5 -8 -2 -16 -14 -43 -16 -34 -2 3 6 1 10 -4 10 -6 0 -11 -5 -11 -10 0
-7 -88 -9 -267 -6 -148 2 -289 4 -315 5 -39 0 -56 6 -88 32 -41 33 -52 59 -24
59 29 0 94 -45 94 -65 0 -6 9 -11 21 -12 20 -2 20 -1 5 16 -24 26 -21 45 7 36
32 -10 115 -22 246 -35 88 -9 140 -9 225 0 190 21 346 44 403 59 20 6 35 5 42
-2 8 -8 11 -8 11 1 0 7 10 12 23 13 12 0 31 5 42 10 14 6 8 7 -22 3 -38 -5
-43 -4 -43 15 0 16 7 20 43 23 34 2 41 6 39 21 -2 9 2 17 8 17 5 0 10 9 10 20
0 11 7 20 15 20 8 0 15 -5 15 -12 0 -9 3 -9 12 0 19 19 36 14 41 -10 4 -22 5
-22 11 -3 5 13 17 22 33 23 33 3 44 12 15 12 -23 0 -26 15 -12 60 l8 25 1 -27
c1 -16 6 -28 11 -28 10 0 15 63 11 127 -2 27 1 33 17 33 23 0 27 -11 42 -145
11 -92 26 -170 41 -215 7 -18 8 -11 4 25 l-5 50 60 19 c57 17 169 70 180 84 3
4 38 29 78 57 73 49 217 191 249 246 10 16 21 29 25 29 4 0 8 5 8 11 0 6 9 23
19 38 28 39 101 182 101 198 0 7 4 21 9 31 23 44 49 177 61 312 13 153 -8 413
-41 498 -5 13 -9 34 -9 47 0 13 -4 27 -10 30 -5 3 -10 15 -10 25 0 11 -7 36
-16 57 -9 21 -20 47 -23 58 -4 11 -30 65 -57 120 -35 70 -55 99 -66 97 -8 -1
-21 5 -28 13 -7 9 -8 15 -2 15 6 0 12 -6 15 -12 2 -7 8 -9 13 -5 10 9 -82 97
-124 118 -15 8 -29 17 -32 20 -6 7 -79 27 -148 41 -52 10 -153 1 -196 -17 -18
-8 -19 -5 -12 31 8 41 21 128 33 204 3 24 14 53 24 64 51 54 28 143 -49 192
-42 28 -169 74 -247 89 -16 4 -39 10 -50 15 -11 4 -46 15 -77 24 -37 11 -65
27 -81 45 -32 39 -59 51 -104 50 l-38 -2 40 -6z m105 -61 c0 -5 -2 -10 -4 -10
-3 0 -8 5 -11 10 -3 6 -1 10 4 10 6 0 11 -4 11 -10z m775 -675 c11 -5 36 -20
56 -34 20 -14 46 -33 58 -41 26 -18 27 -30 2 -30 -16 0 -17 -5 -11 -37 7 -37
42 -116 78 -178 10 -16 25 -52 34 -80 10 -27 28 -81 42 -120 55 -156 72 -406
41 -611 -18 -117 -23 -137 -64 -229 -18 -38 -36 -80 -41 -92 -25 -59 -36 -80
-55 -108 -12 -16 -27 -43 -35 -60 -8 -16 -29 -45 -47 -62 -18 -18 -33 -37 -33
-43 0 -21 -20 -9 -21 13 -1 12 -5 4 -8 -18 -4 -25 -11 -39 -19 -37 -7 1 -16
-6 -19 -15 -4 -10 -26 -38 -50 -62 -51 -52 -49 -65 4 -28 35 25 39 26 51 10
10 -15 12 -13 12 15 0 37 16 43 23 10 3 -17 5 -14 6 10 1 30 20 47 22 20 0 -7
5 1 10 17 5 17 22 39 39 50 16 11 30 27 31 35 0 12 2 12 6 1 4 -10 9 -8 19 10
l13 24 1 -30 c0 -65 -211 -250 -378 -331 -51 -25 -105 -46 -120 -47 l-26 -2
-23 180 c-12 99 -20 181 -19 182 2 2 17 -4 35 -13 33 -17 98 -14 110 4 3 5 25
21 49 36 122 76 266 277 328 456 16 47 19 83 18 260 -1 277 -27 466 -84 615
-27 72 -71 143 -109 176 -38 34 -50 39 -93 39 -70 0 -117 -36 -146 -110 -12
-31 -22 -62 -22 -70 0 -24 -38 -80 -55 -80 -10 0 -13 8 -10 28 18 103 44 275
50 317 7 56 13 68 35 74 30 7 76 14 98 13 12 0 22 3 22 7 0 8 164 -21 195 -34z
m-1858 -17 c-3 -8 -6 -5 -6 6 -1 11 2 17 5 13 3 -3 4 -12 1 -19z m83 18 c0 -2
-7 -9 -15 -16 -12 -10 -15 -10 -15 4 0 9 7 16 15 16 8 0 15 -2 15 -4z m265
-16 c3 -5 -3 -10 -14 -10 -12 0 -21 5 -21 10 0 6 6 10 14 10 8 0 18 -4 21 -10z
m50 0 c13 -6 15 -9 5 -9 -8 0 -22 4 -30 9 -18 12 -2 12 25 0z m128 -7 c-7 -2
-21 -2 -30 0 -10 3 -4 5 12 5 17 0 24 -2 18 -5z m-210 -23 c8 0 7 -4 -1 -12
-9 -9 -16 -8 -30 6 -16 18 -16 19 1 12 10 -3 24 -6 30 -6z m169 -8 c-7 -2 -12
-10 -12 -19 0 -21 -34 -12 -38 11 -3 14 0 17 17 11 13 -4 21 -2 21 5 0 6 5 8
12 4 9 -6 9 -9 0 -12z m80 6 c3 -7 3 -19 0 -26 -3 -10 -9 -9 -23 4 -15 13 -17
19 -7 26 18 11 25 10 30 -4z m228 2 c0 -5 -9 -10 -19 -10 -11 0 -23 5 -26 10
-4 6 5 10 19 10 14 0 26 -4 26 -10z m88 1 c10 -6 10 -10 -1 -20 -11 -9 -19 -7
-38 9 l-24 19 25 1 c14 0 31 -4 38 -9z m102 -28 c0 -7 6 -13 13 -13 8 0 22 -8
31 -19 15 -16 15 -19 2 -24 -9 -4 -23 4 -35 18 -10 14 -22 25 -25 25 -3 0 -15
8 -26 17 -13 12 -16 19 -8 24 14 9 48 -11 48 -28z m-850 17 c0 -5 -4 -10 -10
-10 -5 0 -10 5 -10 10 0 6 5 10 10 10 6 0 10 -4 10 -10z m255 0 c3 -5 -1 -10
-9 -10 -9 0 -16 5 -16 10 0 6 4 10 9 10 6 0 13 -4 16 -10z m690 -20 c3 -6 0
-10 -7 -10 -18 1 -49 26 -42 33 8 7 40 -8 49 -23z m-251 14 c20 -8 21 -44 2
-44 -18 0 -39 27 -31 40 7 12 8 12 29 4z m-544 -25 c0 -6 -4 -7 -10 -4 -5 3
-10 11 -10 16 0 6 5 7 10 4 6 -3 10 -11 10 -16z m143 1 c16 -19 16 -20 -3 -20
-13 0 -20 7 -20 20 0 11 1 20 3 20 1 0 10 -9 20 -20z m511 1 c17 -18 17 -20
-1 -29 -23 -13 -58 10 -50 33 9 21 30 19 51 -4z m-574 0 c0 -6 -4 -13 -10 -16
-5 -3 -10 1 -10 9 0 9 5 16 10 16 6 0 10 -4 10 -9z m-190 -11 c0 -5 -4 -10
-10 -10 -5 0 -10 5 -10 10 0 6 5 10 10 10 6 0 10 -4 10 -10z m240 -31 c0 -13
-24 -22 -46 -17 -17 3 -17 4 0 20 16 17 46 15 46 -3z m478 9 c7 -7 12 -16 12
-20 0 -13 -37 -9 -49 5 -20 24 14 38 37 15z m112 -30 c0 -18 -32 -20 -51 -2
-19 17 -19 19 -3 31 15 11 21 10 36 -4 10 -9 18 -20 18 -25z m124 27 c3 -9 0
-15 -9 -15 -8 0 -15 7 -15 15 0 8 4 15 9 15 5 0 11 -7 15 -15z m-994 -5 c0 -5
-4 -10 -10 -10 -5 0 -10 5 -10 10 0 6 5 10 10 10 6 0 10 -4 10 -10z m90 0 c0
-5 -7 -10 -15 -10 -8 0 -15 5 -15 10 0 6 7 10 15 10 8 0 15 -4 15 -10z m100 0
c0 -5 -11 -10 -25 -10 -14 0 -25 5 -25 10 0 6 11 10 25 10 14 0 25 -4 25 -10z
m749 -19 c8 -5 11 -16 7 -26 -5 -15 -8 -15 -21 -1 -27 26 -17 46 14 27z m401
-23 c0 -17 -3 -18 -15 -8 -8 7 -15 19 -15 26 0 8 6 11 15 8 8 -4 15 -15 15
-26z m-1150 -8 c0 -18 -7 -20 -60 -20 -57 0 -78 11 -44 24 25 9 54 7 54 -5 0
-5 10 -3 22 5 28 20 28 20 28 -4z m743 -13 c16 -13 23 -47 12 -59 -3 -3 -23
11 -45 30 -30 27 -37 39 -29 49 11 13 25 9 62 -20z m-898 13 c3 -5 1 -10 -4
-10 -6 0 -11 5 -11 10 0 6 2 10 4 10 3 0 8 -4 11 -10z m1255 -5 c0 -8 -4 -15
-10 -15 -5 0 -10 7 -10 15 0 8 5 15 10 15 6 0 10 -7 10 -15z m662 -42 c50
-109 72 -160 97 -233 70 -197 97 -486 66 -695 -9 -60 -19 -127 -22 -148 -3
-20 -9 -40 -14 -43 -5 -3 -9 -14 -9 -26 0 -11 -6 -32 -14 -46 -8 -15 -26 -52
-40 -82 -32 -69 -69 -134 -78 -138 -5 -2 -8 -10 -8 -18 0 -8 -4 -14 -10 -14
-22 0 -7 83 20 110 13 13 87 158 116 225 33 80 49 194 49 365 0 276 -39 460
-142 674 -18 38 -33 75 -33 83 0 7 -4 13 -10 13 -5 0 -10 7 -10 15 0 30 16 14
42 -42z m-1952 37 c0 -5 -2 -10 -4 -10 -3 0 -8 5 -11 10 -3 6 -1 10 4 10 6 0
11 -4 11 -10z m995 -10 c7 -11 -11 -40 -25 -40 -4 0 -5 11 -2 25 5 26 16 32
27 15z m335 -21 c0 -11 -4 -17 -10 -14 -5 3 -10 15 -10 26 0 11 5 17 10 14 6
-3 10 -15 10 -26z m-80 11 c0 -5 -4 -10 -10 -10 -5 0 -10 5 -10 10 0 6 5 10
10 10 6 0 10 -4 10 -10z m-1383 -32 c-3 -8 -6 -5 -6 6 -1 11 2 17 5 13 3 -3 4
-12 1 -19z m30 0 c-3 -8 -6 -5 -6 6 -1 11 2 17 5 13 3 -3 4 -12 1 -19z m133 7
c0 -10 -11 -15 -35 -15 -24 0 -35 5 -35 15 0 10 11 15 35 15 24 0 35 -5 35
-15z m160 0 c0 -12 -13 -15 -56 -15 -34 0 -53 4 -49 10 3 6 2 10 -4 10 -5 0
-11 -6 -14 -12 -2 -7 -8 -9 -13 -5 -15 15 20 27 79 27 44 0 57 -3 57 -15z
m837 -22 c-3 -10 -5 -4 -5 12 0 17 2 24 5 18 2 -7 2 -21 0 -30z m263 17 c0 -5
-2 -10 -4 -10 -3 0 -8 5 -11 10 -3 6 -1 10 4 10 6 0 11 -4 11 -10z m-290 -19
c0 -20 -13 -41 -21 -35 -15 9 -10 44 6 44 8 0 15 -4 15 -9z m-1130 -21 c0 -5
-4 -10 -10 -10 -5 0 -10 5 -10 10 0 6 5 10 10 10 6 0 10 -4 10 -10z m105 0 c3
-5 -3 -10 -14 -10 -12 0 -21 5 -21 10 0 6 6 10 14 10 8 0 18 -4 21 -10z m55 0
c0 -5 -4 -10 -9 -10 -6 0 -13 5 -16 10 -3 6 1 10 9 10 9 0 16 -4 16 -10z m920
-26 c0 -15 -23 -44 -34 -44 -11 0 -6 36 6 48 17 17 28 15 28 -4z m97 0 c-3 -3
-12 -4 -19 -1 -8 3 -5 6 6 6 11 1 17 -2 13 -5z m160 0 c-3 -3 -12 -4 -19 -1
-8 3 -5 6 6 6 11 1 17 -2 13 -5z m-211 -26 c5 -7 -10 -27 -37 -50 -34 -29 -45
-34 -47 -22 -5 22 29 58 40 42 5 -9 8 -7 8 8 0 33 22 46 36 22z m-1125 -20 l0
-23 9 23 c13 30 40 29 40 -3 0 -22 -4 -25 -40 -25 -36 0 -40 3 -40 25 0 32 30
34 31 3z m159 -3 c0 -29 -12 -32 -40 -8 -28 24 -25 33 10 33 25 0 30 -4 30
-25z m1177 19 c-3 -3 -12 -4 -19 -1 -8 3 -5 6 6 6 11 1 17 -2 13 -5z m-1227
-36 c0 -9 -34 -11 -43 -2 -3 3 -3 12 0 20 4 10 9 11 24 1 10 -6 19 -15 19 -19z
m1070 -3 c0 -8 -6 -15 -14 -15 -8 0 -16 7 -20 15 -4 10 1 15 14 15 11 0 20 -7
20 -15z m-1130 -25 c0 -5 -18 -10 -40 -10 -22 0 -40 5 -40 10 0 6 18 10 40 10
22 0 40 -4 40 -10z m95 0 c4 -6 -10 -10 -34 -10 -23 0 -41 5 -41 10 0 6 15 10
34 10 19 0 38 -4 41 -10z m992 -8 c8 -5 -5 -22 -42 -50 l-55 -43 0 27 c0 45
63 88 97 66z m53 -12 c0 -5 -7 -10 -16 -10 -8 0 -12 5 -9 10 3 6 10 10 16 10
5 0 9 -4 9 -10z m-30 -49 c0 -21 -10 -37 -42 -62 -23 -19 -47 -40 -54 -46 -19
-20 -24 -16 -24 21 0 28 8 42 46 75 56 49 74 52 74 12z m40 14 c0 -8 -4 -15
-9 -15 -13 0 -22 16 -14 24 11 11 23 6 23 -9z m137 -7 c-3 -8 -6 -5 -6 6 -1
11 2 17 5 13 3 -3 4 -12 1 -19z m-1327 -4 c0 -2 -15 -4 -32 -4 -23 0 -29 3
-19 9 12 8 51 4 51 -5z m35 6 c3 -5 1 -10 -4 -10 -6 0 -11 5 -11 10 0 6 2 10
4 10 3 0 8 -4 11 -10z m1155 -65 c0 -8 -4 -15 -10 -15 -5 0 -10 7 -10 15 0 8
5 15 10 15 6 0 10 -7 10 -15z m-1152 -13 c2 -8 -8 -12 -31 -12 -38 0 -67 8
-67 19 0 12 94 5 98 -7z m1112 8 c0 -5 -5 -10 -11 -10 -5 0 -7 5 -4 10 3 6 8
10 11 10 2 0 4 -4 4 -10z m200 0 c0 -5 -7 -10 -15 -10 -8 0 -15 5 -15 10 0 6
7 10 15 10 8 0 15 -4 15 -10z m-1270 -10 c0 -5 -4 -10 -10 -10 -5 0 -10 5 -10
10 0 6 5 10 10 10 6 0 10 -4 10 -10z m1101 -53 c-8 -8 -11 -5 -11 9 0 27 14
41 18 19 2 -9 -1 -22 -7 -28z m119 23 c0 -13 -7 -20 -20 -20 -19 0 -27 20 -13
33 13 14 33 6 33 -13z m40 10 c0 -5 -5 -10 -11 -10 -5 0 -7 5 -4 10 3 6 8 10
11 10 2 0 4 -4 4 -10z m-1302 -18 c2 -8 -6 -11 -29 -8 -18 2 -35 9 -37 15 -3
9 6 11 29 9 18 -2 34 -9 37 -16z m1112 -460 c0 -12 -100 -95 -107 -89 -8 8 28
51 62 76 32 22 45 26 45 13z m100 -2 c0 -5 -4 -10 -10 -10 -5 0 -10 5 -10 10
0 6 5 10 10 10 6 0 10 -4 10 -10z m-1220 -20 c0 -5 -5 -10 -11 -10 -5 0 -7 5
-4 10 3 6 8 10 11 10 2 0 4 -4 4 -10z m70 -10 c0 -11 -2 -20 -5 -20 -3 0 -15
9 -27 20 l-22 20 27 0 c20 0 27 -5 27 -20z m-40 -20 c0 -5 -13 -10 -30 -10
-16 0 -30 5 -30 10 0 6 14 10 30 10 17 0 30 -4 30 -10z m1090 0 c0 -5 -5 -10
-11 -10 -5 0 -7 5 -4 10 3 6 8 10 11 10 2 0 4 -4 4 -10z m105 0 c-3 -5 -10
-10 -16 -10 -5 0 -9 5 -9 10 0 6 7 10 16 10 8 0 12 -4 9 -10z m120 -63 c0 -43
-5 -66 -15 -74 -26 -21 -30 -15 -30 46 0 51 3 62 22 75 12 9 23 16 23 16 0 0
0 -28 0 -63z m-222 43 c6 0 0 -11 -13 -25 -29 -31 -40 -32 -40 -2 0 29 9 39
28 32 7 -3 19 -5 25 -5z m-1053 -10 c0 -5 -23 -10 -51 -10 -31 0 -48 4 -44 10
3 6 26 10 51 10 24 0 44 -4 44 -10z m980 -38 c0 -16 -8 -32 -19 -39 -17 -11
-19 -9 -16 12 2 22 21 55 31 55 2 0 4 -12 4 -28z m170 20 c0 -13 -12 -22 -22
-16 -10 6 -1 24 13 24 5 0 9 -4 9 -8z m-1155 -12 c4 -6 -9 -10 -32 -9 -30 0
-34 2 -18 9 27 12 43 12 50 0z m1075 0 c0 -19 -64 -74 -68 -60 -3 7 8 25 24
41 31 30 44 35 44 19z m-1073 -26 c-3 -3 -12 -4 -19 -1 -8 3 -5 6 6 6 11 1 17
-2 13 -5z m1143 -4 c-19 -13 -30 -13 -30 0 0 6 10 10 23 10 18 0 19 -2 7 -10z
m-1062 -27 c-10 -2 -28 -2 -40 0 -13 2 -5 4 17 4 22 1 32 -1 23 -4z m900 -54
c1 -46 -13 -79 -32 -79 -13 0 -5 40 11 55 16 16 16 18 -1 27 -17 9 -17 11 0
29 9 10 18 19 19 19 1 0 2 -23 3 -51z m82 33 c0 -16 -41 -62 -55 -62 -14 0 -2
45 17 61 27 24 38 24 38 1z m-1130 -2 c0 -5 -4 -10 -9 -10 -6 0 -13 5 -16 10
-3 6 1 10 9 10 9 0 16 -4 16 -10z m63 -1 c-8 -8 -16 -8 -30 0 -16 9 -14 10 12
11 21 0 26 -3 18 -11z m102 1 c-3 -5 -22 -10 -41 -10 -19 0 -34 5 -34 10 0 6
18 10 41 10 24 0 38 -4 34 -10z m1035 -20 c0 -5 -4 -10 -10 -10 -5 0 -10 5
-10 10 0 6 5 10 10 10 6 0 10 -4 10 -10z m-1047 -7 c-7 -2 -21 -2 -30 0 -10 3
-4 5 12 5 17 0 24 -2 18 -5z m795 -74 c-26 -23 -34 -26 -36 -14 -2 9 11 29 30
45 27 24 34 26 36 13 2 -9 -11 -29 -30 -44z m-895 44 c-13 -2 -35 -2 -50 0
-16 2 -5 4 22 4 28 0 40 -2 28 -4z m100 0 c-13 -2 -35 -2 -50 0 -16 2 -5 4 22
4 28 0 40 -2 28 -4z m977 -13 c0 -5 -4 -10 -10 -10 -5 0 -10 -6 -10 -14 0 -12
-20 -26 -36 -26 -10 0 -3 25 13 42 17 19 43 24 43 8z m75 0 c-3 -5 -10 -10
-16 -10 -5 0 -9 5 -9 10 0 6 7 10 16 10 8 0 12 -4 9 -10z m-1197 -27 c2 -8 -5
-13 -17 -13 -12 0 -21 6 -21 16 0 18 31 15 38 -3z m62 2 c0 -19 -9 -19 -34 0
-19 14 -19 15 7 15 17 0 27 -5 27 -15z m98 3 c-3 -7 -21 -14 -41 -16 -28 -2
-37 1 -37 12 0 12 11 16 41 16 28 0 39 -4 37 -12z m1032 -8 c0 -5 -4 -10 -10
-10 -5 0 -10 5 -10 10 0 6 5 10 10 10 6 0 10 -4 10 -10z m-250 -70 c-18 -17
-34 -30 -36 -30 -2 0 -4 12 -4 28 0 19 10 34 33 50 32 22 32 22 35 2 2 -13 -8
-32 -28 -50z m98 -2 c0 -39 -3 -55 -7 -43 -7 16 -9 13 -15 -18 -8 -44 -26 -49
-26 -7 0 19 7 34 20 42 24 15 26 28 5 28 -8 0 -15 3 -15 8 0 8 29 52 34 52 2
0 3 -28 4 -62z m80 35 c0 -16 -10 -36 -22 -46 -21 -19 -21 -19 -24 7 -2 18 4
33 20 46 13 11 24 19 24 20 1 0 2 -12 2 -27z m-1078 7 c0 -5 -16 -10 -35 -10
-19 0 -35 5 -35 10 0 6 16 10 35 10 19 0 35 -4 35 -10z m120 0 c0 -5 -18 -10
-40 -10 -22 0 -40 5 -40 10 0 6 18 10 40 10 22 0 40 -4 40 -10z m1030 -25 c0
-8 -4 -15 -10 -15 -5 0 -10 7 -10 15 0 8 5 15 10 15 6 0 10 -7 10 -15z m-1138
-17 c-10 -10 -44 0 -37 12 3 5 14 6 26 3 12 -3 17 -9 11 -15z m108 13 c2 0 -1
-6 -7 -12 -11 -11 -53 -4 -53 10 0 6 42 7 60 2z m-180 -11 c0 -5 -2 -10 -4
-10 -3 0 -8 5 -11 10 -3 6 -1 10 4 10 6 0 11 -4 11 -10z m958 -69 c-31 -28
-33 -28 -36 -10 -2 12 6 28 20 39 13 11 28 24 33 28 6 6 11 2 13 -9 2 -11 -10
-30 -30 -48z m252 50 c0 -6 -4 -13 -10 -16 -5 -3 -10 1 -10 9 0 9 5 16 10 16
6 0 10 -4 10 -9z m-1175 -11 c3 -6 -4 -9 -19 -8 -13 1 -22 6 -20 10 7 11 32
10 39 -2z m95 0 c12 -7 10 -9 -8 -7 -12 0 -22 5 -22 9 0 11 12 10 30 -2z
m1010 -25 c0 -23 -8 -41 -22 -55 l-23 -21 -3 36 c-2 25 3 43 14 56 25 28 34
23 34 -16z m-1145 -15 c3 -5 1 -10 -4 -10 -6 0 -11 5 -11 10 0 6 2 10 4 10 3
0 8 -4 11 -10z m95 0 c11 -7 6 -10 -20 -10 -19 0 -42 5 -50 10 -11 7 -6 10 20
10 19 0 42 -5 50 -10z m90 0 c0 -5 -13 -10 -29 -10 -17 0 -33 5 -36 10 -4 6 8
10 29 10 20 0 36 -4 36 -10z m1030 0 c0 -5 -4 -10 -10 -10 -5 0 -10 5 -10 10
0 6 5 10 10 10 6 0 10 -4 10 -10z m-232 -46 c-7 -15 -23 -34 -35 -42 -22 -14
-23 -13 -23 14 0 21 9 35 33 52 36 25 45 16 25 -24z m79 -26 c-2 -13 -4 -3 -4
22 0 25 2 35 4 23 2 -13 2 -33 0 -45z m-1022 32 c4 -6 -7 -10 -29 -10 -45 0
-55 15 -11 18 18 2 36 -2 40 -8z m95 0 c0 -13 -40 -13 -60 0 -11 7 -5 10 23
10 20 0 37 -4 37 -10z m45 0 c-3 -5 -13 -10 -21 -10 -8 0 -12 5 -9 10 3 6 13
10 21 10 8 0 12 -4 9 -10z m855 -36 c0 -21 -4 -33 -10 -29 -5 3 -10 19 -10 36
0 16 5 29 10 29 6 0 10 -16 10 -36z m107 9 c0 -15 -31 -53 -44 -53 -1 0 -3 11
-3 23 0 15 9 28 23 35 12 6 22 11 23 11 0 1 1 -7 1 -16z m-1052 -13 c4 -6 -8
-10 -29 -10 -19 0 -38 5 -41 10 -4 6 8 10 29 10 19 0 38 -4 41 -10z m45 0 c0
-5 -2 -10 -4 -10 -3 0 -8 5 -11 10 -3 6 -1 10 4 10 6 0 11 -4 11 -10z m50 0
c0 -5 -9 -10 -20 -10 -11 0 -20 5 -20 10 0 6 9 10 20 10 11 0 20 -4 20 -10z
m722 -34 c-7 -16 -8 -28 -2 -31 19 -12 11 -74 -10 -87 -18 -11 -20 -24 -20
-110 0 -54 -4 -98 -9 -98 -5 0 -10 78 -11 179 -1 176 0 179 20 174 13 -3 20 0
20 8 0 10 3 10 12 1 9 -9 9 -18 0 -36z m308 34 c0 -5 -4 -10 -10 -10 -5 0 -10
5 -10 10 0 6 5 10 10 10 6 0 10 -4 10 -10z m-230 -43 c0 -19 -7 -39 -18 -48
-17 -15 -20 -14 -30 15 -9 21 -9 32 -2 34 6 2 16 10 23 18 19 22 27 16 27 -19z
m-936 -2 c19 -14 18 -15 -11 -15 -17 0 -36 7 -43 15 -10 13 -9 15 11 15 13 0
33 -7 43 -15z m86 0 c0 -9 -9 -15 -24 -15 -13 0 -29 7 -36 15 -11 13 -7 15 24
15 25 0 36 -4 36 -15z m940 -5 c0 -11 -4 -20 -10 -20 -5 0 -10 9 -10 20 0 11
5 20 10 20 6 0 10 -9 10 -20z m70 0 c0 -5 -8 -10 -17 -10 -13 0 -15 -2 -5 -8
9 -7 8 -13 -8 -27 -20 -18 -20 -18 -20 6 0 14 5 30 12 37 15 15 38 16 38 2z
m-1053 -37 c5 -15 -35 -9 -51 8 -8 7 -3 10 18 7 16 -2 31 -8 33 -15z m43 7 c0
-5 -4 -10 -9 -10 -6 0 -13 5 -16 10 -3 6 1 10 9 10 9 0 16 -4 16 -10z m57 -6
c2 -7 -6 -10 -22 -7 -14 3 -25 10 -25 15 0 13 43 6 47 -8z m883 -23 c0 -11 -4
-23 -10 -26 -6 -4 -10 5 -10 19 0 14 5 26 10 26 6 0 10 -9 10 -19z m935 -11
c4 -12 0 -26 -9 -36 -15 -14 -16 -12 -16 20 0 39 15 48 25 16z m-1880 -1 c10
-15 -1 -23 -20 -15 -9 3 -13 10 -10 16 8 13 22 13 30 -1z m855 -2 c0 -8 -9
-22 -20 -32 -19 -18 -20 -17 -20 1 0 20 17 44 32 44 4 0 8 -6 8 -13z m-915 -7
c3 -5 -3 -10 -14 -10 -11 0 -23 5 -26 10 -3 6 3 10 14 10 11 0 23 -4 26 -10z
m972 -5 c0 -8 -4 -12 -9 -9 -5 3 -6 10 -3 15 9 13 12 11 12 -6z m93 6 c0 -5
-7 -12 -16 -15 -22 -9 -24 -8 -24 9 0 8 9 15 20 15 11 0 20 -4 20 -9z m-124
-59 c-11 -10 -15 4 -8 28 l7 25 3 -23 c2 -13 1 -26 -2 -30z m-996 28 c0 -5 -5
-10 -11 -10 -5 0 -7 5 -4 10 3 6 8 10 11 10 2 0 4 -4 4 -10z m1060 -16 c0 -8
-4 -14 -10 -14 -5 0 -10 9 -10 21 0 11 5 17 10 14 6 -3 10 -13 10 -21z m-159
-147 c-16 -16 -19 -8 -22 69 -3 103 14 118 25 21 6 -55 5 -82 -3 -90z m67 108
c1 -39 -1 -45 -18 -45 -16 0 -20 7 -20 31 0 19 7 37 18 45 9 7 17 14 17 14 1
0 2 -20 3 -45z m162 35 c0 -5 -12 -10 -26 -10 -14 0 -23 4 -19 10 3 6 15 10
26 10 10 0 19 -4 19 -10z m-1070 -20 c0 -5 -9 -10 -19 -10 -11 0 -23 5 -26 10
-4 6 5 10 19 10 14 0 26 -4 26 -10z m60 6 c0 -11 -19 -15 -25 -6 -3 5 1 10 9
10 9 0 16 -2 16 -4z m877 -38 c-3 -8 -6 -5 -6 6 -1 11 2 17 5 13 3 -3 4 -12 1
-19z m63 2 c0 -11 -4 -20 -10 -20 -5 0 -10 9 -10 20 0 11 5 20 10 20 6 0 10
-9 10 -20z m177 -12 c-3 -7 -5 -2 -5 12 0 14 2 19 5 13 2 -7 2 -19 0 -25z
m-1154 15 c-7 -2 -19 -2 -25 0 -7 3 -2 5 12 5 14 0 19 -2 13 -5z m154 1 c-3
-3 -12 -4 -19 -1 -8 3 -5 6 6 6 11 1 17 -2 13 -5z m893 -9 c0 -10 -10 -15 -27
-15 -27 1 -27 1 -9 15 25 19 36 19 36 0z m-1015 -25 c4 -6 -12 -10 -40 -10
-28 0 -44 4 -40 10 3 6 21 10 40 10 19 0 37 -4 40 -10z m853 -37 c-2 -17 -10
-29 -20 -31 -14 -3 -18 3 -18 27 0 25 4 31 21 31 16 0 20 -5 17 -27z m32 0
c-1 -24 -2 -26 -11 -10 -5 9 -7 22 -4 27 10 17 15 11 15 -17z m58 5 c-4 -29
-38 -38 -38 -10 0 19 11 29 33 31 5 1 7 -9 5 -21z m42 18 c0 -3 -4 -8 -10 -11
-5 -3 -10 -1 -10 4 0 6 5 11 10 11 6 0 10 -2 10 -4z m-984 -19 c4 -4 -5 -7
-19 -7 -15 0 -27 4 -27 10 0 11 35 8 46 -3z m1024 -7 c0 -11 -7 -20 -15 -20
-15 0 -21 21 -8 33 12 13 23 7 23 -13z m97 -12 c-3 -7 -5 -2 -5 12 0 14 2 19
5 13 2 -7 2 -19 0 -25z m-1194 15 c-7 -2 -19 -2 -25 0 -7 3 -2 5 12 5 14 0 19
-2 13 -5z m130 0 c-7 -2 -21 -2 -30 0 -10 3 -4 5 12 5 17 0 24 -2 18 -5z m-98
-23 c4 -6 -7 -10 -24 -10 -17 0 -31 5 -31 10 0 6 11 10 24 10 14 0 28 -4 31
-10z m130 0 c4 -6 -10 -10 -34 -10 -23 0 -41 5 -41 10 0 6 15 10 34 10 19 0
38 -4 41 -10z m705 -30 c0 -5 -7 -10 -15 -10 -8 0 -15 5 -15 10 0 6 7 10 15
10 8 0 15 -4 15 -10z m60 0 c0 -5 -9 -10 -20 -10 -11 0 -20 5 -20 10 0 6 9 10
20 10 11 0 20 -4 20 -10z m30 0 c0 -5 -4 -10 -10 -10 -5 0 -10 5 -10 10 0 6 5
10 10 10 6 0 10 -4 10 -10z m40 0 c0 -5 -4 -10 -10 -10 -5 0 -10 5 -10 10 0 6
5 10 10 10 6 0 10 -4 10 -10z m60 0 c0 -5 -4 -10 -10 -10 -5 0 -10 5 -10 10 0
6 5 10 10 10 6 0 10 -4 10 -10z m145 0 c3 -5 1 -10 -4 -10 -6 0 -11 5 -11 10
0 6 2 10 4 10 3 0 8 -4 11 -10z m-1245 -18 c0 -9 -10 -12 -27 -10 -37 4 -40
24 -3 23 18 0 30 -5 30 -13z m110 3 c0 -14 -52 -13 -57 1 -2 7 8 11 27 10 16
-1 30 -6 30 -11z m146 0 c17 -14 15 -15 -35 -13 -33 2 -56 8 -59 16 -6 18 69
16 94 -3z m524 -30 c0 -8 -7 -15 -15 -15 -8 0 -15 7 -15 15 0 8 7 15 15 15 8
0 15 -7 15 -15z m17 -7 c-3 -8 -6 -5 -6 6 -1 11 2 17 5 13 3 -3 4 -12 1 -19z
m30 0 c-3 -8 -6 -5 -6 6 -1 11 2 17 5 13 3 -3 4 -12 1 -19z m33 7 c0 -8 -4
-15 -10 -15 -5 0 -10 7 -10 15 0 8 5 15 10 15 6 0 10 -7 10 -15z m42 0 c0 -5
-5 -11 -11 -13 -6 -2 -11 4 -11 13 0 9 5 15 11 13 6 -2 11 -8 11 -13z m68 0
c0 -8 -9 -15 -20 -15 -11 0 -20 7 -20 15 0 8 9 15 20 15 11 0 20 -7 20 -15z
m26 -12 c-10 -10 -19 5 -10 18 6 11 8 11 12 0 2 -7 1 -15 -2 -18z m44 12 c0
-8 -4 -15 -10 -15 -5 0 -10 7 -10 15 0 8 5 15 10 15 6 0 10 -7 10 -15z m104 0
c-4 -8 -10 -15 -15 -15 -5 0 -9 7 -9 15 0 8 7 15 15 15 9 0 12 -6 9 -15z m56
0 c0 -8 -4 -15 -10 -15 -5 0 -10 7 -10 15 0 8 5 15 10 15 6 0 10 -7 10 -15z
m58 -2 c-5 -24 -27 -28 -25 -4 1 12 7 21 15 21 7 0 12 -8 10 -17z m-1258 -3
c0 -5 -4 -10 -10 -10 -5 0 -10 5 -10 10 0 6 5 10 10 10 6 0 10 -4 10 -10z m70
0 c0 -5 -13 -10 -30 -10 -16 0 -30 5 -30 10 0 6 14 10 30 10 17 0 30 -4 30
-10z m50 0 c0 -5 -7 -10 -15 -10 -8 0 -15 5 -15 10 0 6 7 10 15 10 8 0 15 -4
15 -10z m45 0 c3 -5 -3 -10 -14 -10 -12 0 -21 5 -21 10 0 6 6 10 14 10 8 0 18
-4 21 -10z m167 -30 c24 -22 46 -40 50 -40 5 0 8 -4 8 -9 0 -18 -72 -21 -96
-3 -26 19 -32 34 -9 26 8 -4 15 -1 15 5 0 6 -15 12 -32 12 -24 1 -27 3 -10 6
34 7 26 23 -12 23 -19 0 -38 5 -41 10 -4 6 12 10 39 10 40 0 52 -5 88 -40z
m768 30 c0 -5 -4 -10 -10 -10 -5 0 -10 5 -10 10 0 6 5 10 10 10 6 0 10 -4 10
-10z m-1117 -37 c-13 -2 -33 -2 -45 0 -13 2 -3 4 22 4 25 0 35 -2 23 -4z m110
0 c-13 -2 -35 -2 -50 0 -16 2 -5 4 22 4 28 0 40 -2 28 -4z m100 0 c-13 -2 -33
-2 -45 0 -13 2 -3 4 22 4 25 0 35 -2 23 -4z m477 -4 c0 -6 -7 -9 -15 -5 -8 3
-15 1 -15 -4 0 -6 -7 -10 -15 -10 -8 0 -15 7 -15 15 0 10 10 15 30 15 17 0 30
-5 30 -11z m50 1 c0 -5 -4 -10 -10 -10 -5 0 -10 5 -10 10 0 6 5 10 10 10 6 0
10 -4 10 -10z m50 0 c0 -5 -4 -10 -10 -10 -5 0 -10 5 -10 10 0 6 5 10 10 10 6
0 10 -4 10 -10z m90 0 c0 -5 -4 -10 -10 -10 -5 0 -10 5 -10 10 0 6 5 10 10 10
6 0 10 -4 10 -10z m40 0 c0 -5 -4 -10 -10 -10 -5 0 -10 5 -10 10 0 6 5 10 10
10 6 0 10 -4 10 -10z m65 1 c3 -5 1 -12 -5 -16 -5 -3 -10 1 -10 9 0 18 6 21
15 7z m31 -18 c-10 -10 -19 5 -10 18 6 11 8 11 12 0 2 -7 1 -15 -2 -18z m99
17 c3 -5 1 -10 -4 -10 -6 0 -11 5 -11 10 0 6 2 10 4 10 3 0 8 -4 11 -10z m45
1 c0 -6 -4 -13 -10 -16 -5 -3 -10 1 -10 9 0 9 5 16 10 16 6 0 10 -4 10 -9z
m61 -4 c-1 -12 -15 -9 -19 4 -3 6 1 10 8 8 6 -3 11 -8 11 -12z m57 1 c-6 -18
-28 -21 -28 -4 0 9 7 16 16 16 9 0 14 -5 12 -12z m-218 -8 c0 -5 -2 -10 -4
-10 -3 0 -8 5 -11 10 -3 6 -1 10 4 10 6 0 11 -4 11 -10z m-1047 -17 c-7 -2
-19 -2 -25 0 -7 3 -2 5 12 5 14 0 19 -2 13 -5z m115 0 c-10 -2 -26 -2 -35 0
-10 3 -2 5 17 5 19 0 27 -2 18 -5z m125 0 c-13 -2 -35 -2 -50 0 -16 2 -5 4 22
4 28 0 40 -2 28 -4z m204 -9 c-3 -3 -12 -4 -19 -1 -8 3 -5 6 6 6 11 1 17 -2
13 -5z m703 -4 c0 -5 -4 -10 -10 -10 -5 0 -10 5 -10 10 0 6 5 10 10 10 6 0 10
-4 10 -10z m-1065 -20 c4 -6 -6 -10 -24 -10 -16 0 -33 5 -36 10 -4 6 6 10 24
10 16 0 33 -4 36 -10z m45 0 c0 -5 -4 -10 -9 -10 -6 0 -13 5 -16 10 -3 6 1 10
9 10 9 0 16 -4 16 -10z m60 0 c0 -5 -11 -10 -25 -10 -14 0 -25 5 -25 10 0 6
11 10 25 10 14 0 25 -4 25 -10z m106 -5 c4 -8 12 -15 19 -15 7 0 19 -7 26 -17
13 -15 12 -15 -8 -5 -12 7 -39 12 -60 13 -34 1 -35 2 -13 9 24 8 23 8 -7 9
-45 1 -42 21 2 21 22 0 38 -6 41 -15z m-79 -21 c-3 -3 -12 -4 -19 -1 -8 3 -5
6 6 6 11 1 17 -2 13 -5z m203 -3 c0 -6 -4 -13 -10 -16 -5 -3 -10 1 -10 9 0 9
5 16 10 16 6 0 10 -4 10 -9z m40 -6 c0 -8 -4 -15 -10 -15 -5 0 -10 7 -10 15 0
8 5 15 10 15 6 0 10 -7 10 -15z m70 -1 c0 -8 -4 -12 -10 -9 -5 3 -10 10 -10
16 0 5 5 9 10 9 6 0 10 -7 10 -16z m40 7 c0 -6 -4 -13 -10 -16 -5 -3 -10 1
-10 9 0 9 5 16 10 16 6 0 10 -4 10 -9z m30 -6 c0 -8 -4 -15 -10 -15 -5 0 -10
7 -10 15 0 8 5 15 10 15 6 0 10 -7 10 -15z m50 0 c0 -8 -7 -15 -15 -15 -8 0
-15 7 -15 15 0 8 7 15 15 15 8 0 15 -7 15 -15z m30 6 c0 -6 -4 -13 -10 -16 -5
-3 -10 1 -10 9 0 9 5 16 10 16 6 0 10 -4 10 -9z m17 -13 c-3 -8 -6 -5 -6 6 -1
11 2 17 5 13 3 -3 4 -12 1 -19z m88 2 c3 -5 -1 -10 -9 -10 -9 0 -16 5 -16 10
0 6 4 10 9 10 6 0 13 -4 16 -10z m45 -10 c0 -5 -7 -7 -15 -4 -8 4 -15 8 -15
10 0 2 7 4 15 4 8 0 15 -4 15 -10z m40 0 c0 -5 -4 -10 -10 -10 -5 0 -10 5 -10
10 0 6 5 10 10 10 6 0 10 -4 10 -10z m40 -10 c0 -5 -2 -10 -4 -10 -3 0 -8 5
-11 10 -3 6 -1 10 4 10 6 0 11 -4 11 -10z m160 -9 c0 -11 -9 -21 -22 -25 -44
-11 -56 -7 -54 19 1 22 6 25 39 25 30 0 37 -4 37 -19z m-709 -13 c0 -9 2 -9 6
1 5 11 7 11 14 0 8 -12 11 -11 20 1 8 12 12 12 16 2 4 -10 8 -10 20 -1 12 10
16 10 24 -2 7 -11 11 -12 18 -1 6 10 10 8 16 -10 6 -19 8 -20 12 -5 5 19 23
24 23 6 0 -8 6 -7 17 2 14 12 17 12 21 0 4 -11 6 -11 12 0 7 10 11 10 24 0 11
-9 16 -10 16 -2 0 6 7 11 15 11 10 0 15 -10 15 -27 l0 -26 -152 6 c-202 8
-378 28 -325 37 20 4 40 10 44 13 12 13 143 8 144 -5z m319 -15 c0 -15 2 -14
15 3 8 10 15 14 15 7 0 -8 9 -9 33 -2 41 12 120 9 130 -5 5 -8 10 -6 16 3 8
12 12 12 25 2 11 -9 16 -10 16 -2 0 6 11 11 25 11 14 0 25 -4 25 -10 0 -5 -3
-10 -7 -10 -5 0 -62 -7 -128 -15 -171 -21 -185 -21 -185 10 0 14 5 25 10 25 6
0 10 -8 10 -17z m-562 0 c-10 -2 -26 -2 -35 0 -10 3 -2 5 17 5 19 0 27 -2 18
-5z m-108 -13 c0 -5 -4 -10 -9 -10 -6 0 -13 5 -16 10 -3 6 1 10 9 10 9 0 16
-4 16 -10z m120 -30 c0 -5 -2 -10 -4 -10 -3 0 -8 5 -11 10 -3 6 -1 10 4 10 6
0 11 -4 11 -10z m-165 -35 c20 -16 25 -25 15 -25 -9 0 -22 6 -29 13 -11 10
-13 10 -7 0 4 -8 1 -13 -7 -13 -9 0 -14 10 -14 25 0 31 4 31 42 0z m105 -21
c0 -2 -11 -4 -25 -4 -18 0 -25 5 -25 20 0 20 1 20 25 4 14 -9 25 -18 25 -20z
m980 -14 c0 -5 -4 -10 -10 -10 -5 0 -10 5 -10 10 0 6 5 10 10 10 6 0 10 -4 10
-10z m277 -27 c-3 -10 -5 -4 -5 12 0 17 2 24 5 18 2 -7 2 -21 0 -30z m43 33
c0 -3 -4 -8 -10 -11 -5 -3 -10 -1 -10 4 0 6 5 11 10 11 6 0 10 -2 10 -4z
m-1382 -26 c13 -11 22 -24 20 -30 -3 -10 -58 31 -58 44 0 11 14 6 38 -14z m22
10 c0 -5 -2 -10 -4 -10 -3 0 -8 5 -11 10 -3 6 -1 10 4 10 6 0 11 -4 11 -10z
m1196 -38 c-12 -11 -18 7 -10 30 l8 23 4 -23 c2 -13 1 -26 -2 -30z m-436 13
c-7 -8 -19 -15 -27 -15 -13 0 -13 3 -3 15 7 8 19 15 27 15 13 0 13 -3 3 -15z
m100 5 c0 -5 -4 -10 -10 -10 -5 0 -10 5 -10 10 0 6 5 10 10 10 6 0 10 -4 10
-10z m200 -1 c0 -11 -24 -39 -34 -39 -11 0 -6 26 6 38 15 15 28 15 28 1z m70
-4 c0 -8 -4 -15 -10 -15 -5 0 -10 7 -10 15 0 8 5 15 10 15 6 0 10 -7 10 -15z
m230 -9 c0 -8 -4 -18 -10 -21 -5 -3 -10 3 -10 14 0 12 5 21 10 21 6 0 10 -6
10 -14z m-274 -33 c-11 -11 -19 6 -11 24 8 17 8 17 12 0 3 -10 2 -21 -1 -24z
m71 5 c-3 -7 -5 -2 -5 12 0 14 2 19 5 13 2 -7 2 -19 0 -25z m160 -20 c-3 -7
-5 -2 -5 12 0 14 2 19 5 13 2 -7 2 -19 0 -25z m-121 -5 c-10 -10 -19 5 -10 18
6 11 8 11 12 0 2 -7 1 -15 -2 -18z m91 -15 c-3 -7 -5 -2 -5 12 0 14 2 19 5 13
2 -7 2 -19 0 -25z m-1292 2 c3 -5 1 -10 -4 -10 -6 0 -11 5 -11 10 0 6 2 10 4
10 3 0 8 -4 11 -10z m1305 -34 c0 -3 -4 -8 -10 -11 -5 -3 -10 -1 -10 4 0 6 5
11 10 11 6 0 10 -2 10 -4z"/>
<path d="M2980 2446 c0 -2 8 -10 18 -17 15 -13 16 -12 3 4 -13 16 -21 21 -21
13z"/>
<path d="M2960 2432 c0 -4 10 -13 23 -21 22 -14 22 -14 3 8 -20 22 -26 25 -26
13z"/>
<path d="M2894 2402 c-9 -5 -8 -10 1 -19 11 -10 13 -9 12 7 -1 11 -1 20 -2 20
0 0 -5 -4 -11 -8z"/>
<path d="M3175 2390 c-3 -5 -1 -10 4 -10 6 0 11 5 11 10 0 6 -2 10 -4 10 -3 0
-8 -4 -11 -10z"/>
<path d="M2885 2338 c-36 -21 -42 -33 -49 -93 l-7 -60 21 25 c11 14 33 39 48
55 40 43 45 54 32 70 -15 18 -19 18 -45 3z"/>
<path d="M3153 2228 c98 -136 157 -403 157 -712 0 -94 4 -177 9 -184 5 -8 11
57 15 155 11 274 -25 539 -90 665 -15 30 -93 108 -107 108 -4 0 3 -15 16 -32z"/>
<path d="M3070 808 c-58 -61 -119 -117 -137 -124 -18 -8 -58 -14 -90 -14 l-58
-1 45 -21 c25 -12 47 -25 50 -28 22 -27 43 -16 126 68 77 77 182 217 172 227
-2 2 -51 -46 -108 -107z"/>
<path d="M3201 744 c0 -11 3 -14 6 -6 3 7 2 16 -1 19 -3 4 -6 -2 -5 -13z"/>
<path d="M3001 531 c-1 -28 3 -41 8 -35 6 5 6 24 1 44 l-8 35 -1 -44z"/>
<path d="M2972 520 c0 -19 2 -27 5 -17 2 9 2 25 0 35 -3 9 -5 1 -5 -18z"/>
<path d="M2942 520 c0 -14 2 -19 5 -12 2 6 2 18 0 25 -3 6 -5 1 -5 -13z"/>
<path d="M2875 426 c-55 -11 -60 -14 -63 -40 -3 -26 -2 -28 26 -21 16 3 60 21
98 40 65 32 67 34 34 33 -19 0 -62 -6 -95 -12z"/>
<path d="M2360 2220 c0 -5 5 -10 10 -10 6 0 10 5 10 10 0 6 -4 10 -10 10 -5 0
-10 -4 -10 -10z"/>
<path d="M1950 3146 c0 -2 13 -6 29 -8 17 -2 28 -1 25 4 -5 8 -54 12 -54 4z"/>
<path d="M2069 3109 c30 -17 65 -42 78 -55 32 -32 39 -30 14 4 -11 15 -37 37
-58 48 -21 10 -39 22 -41 27 -2 4 -13 7 -25 7 -16 0 -6 -9 32 -31z"/>
<path d="M1990 3114 c0 -5 31 -18 70 -28 22 -6 22 -5 7 4 -21 14 -77 31 -77
24z"/>
<path d="M1443 3093 c9 -2 25 -2 35 0 9 3 1 5 -18 5 -19 0 -27 -2 -17 -5z"/>
<path d="M1363 3080 c-13 -5 -23 -12 -23 -15 0 -4 10 -3 23 0 22 7 22 7 2 -9
-11 -8 -15 -16 -9 -16 5 0 14 4 20 9 5 6 36 12 69 14 l60 3 -65 3 c-47 2 -59
5 -45 11 27 12 -3 11 -32 0z"/>
<path d="M1538 3074 c40 -14 68 -33 115 -77 10 -10 21 -17 23 -14 7 6 -70 73
-104 91 -17 9 -41 16 -54 16 -16 -1 -10 -6 20 -16z"/>
<path d="M1085 3060 c-7 -23 1 -40 18 -39 9 0 9 2 0 6 -18 7 -16 30 3 37 32
12 47 7 41 -15 -4 -16 -3 -18 8 -9 22 19 6 40 -30 40 -25 0 -35 -5 -40 -20z"/>
<path d="M2010 3070 c8 -5 20 -10 25 -10 6 0 3 5 -5 10 -8 5 -19 10 -25 10 -5
0 -3 -5 5 -10z"/>
<path d="M1515 3050 c3 -5 10 -10 16 -10 5 0 9 5 9 10 0 6 -7 10 -16 10 -8 0
-12 -4 -9 -10z"/>
<path d="M946 3005 c-11 -8 -17 -17 -14 -20 2 -3 13 4 23 15 21 23 18 25 -9 5z"/>
<path d="M1016 3001 c-9 -14 3 -39 22 -46 13 -5 13 -3 -2 14 -10 11 -15 25
-11 30 3 6 4 11 1 11 -3 0 -7 -4 -10 -9z"/>
<path d="M1100 3000 c-8 -5 -10 -10 -5 -10 6 0 17 5 25 10 8 5 11 10 5 10 -5
0 -17 -5 -25 -10z"/>
<path d="M1548 3003 c7 -3 16 -2 19 1 4 3 -2 6 -13 5 -11 0 -14 -3 -6 -6z"/>
<path d="M1139 2980 c-2 -13 -15 -30 -29 -37 -23 -12 -23 -13 -4 -13 28 0 47
23 42 52 -4 23 -4 23 -9 -2z"/>
<path d="M1610 2996 c0 -4 11 -19 25 -34 14 -15 25 -22 25 -16 0 6 -11 21 -25
34 -14 13 -25 20 -25 16z"/>
<path d="M1963 2985 c-3 -9 -3 -19 1 -22 3 -4 6 2 6 11 0 15 7 17 35 14 19 -2
35 0 35 4 0 15 -70 9 -77 -7z"/>
<path d="M1854 2979 c-3 -6 -1 -16 6 -22 10 -9 11 -9 5 2 -4 8 -2 17 6 22 9 6
10 9 2 9 -6 0 -15 -5 -19 -11z"/>
<path d="M1070 2965 c0 -8 5 -15 10 -15 6 0 10 7 10 15 0 8 -4 15 -10 15 -5 0
-10 -7 -10 -15z"/>
<path d="M1993 2953 c9 -2 23 -2 30 0 6 3 -1 5 -18 5 -16 0 -22 -2 -12 -5z"/>
<path d="M2334 2945 c-8 -20 2 -45 18 -45 9 0 9 3 0 12 -15 15 -16 38 -2 38 6
0 10 -7 10 -15 0 -8 5 -15 10 -15 14 0 13 13 -2 28 -16 16 -27 15 -34 -3z"/>
<path d="M1918 2939 c-21 -12 -24 -39 -4 -39 8 0 13 8 12 17 0 12 7 19 22 21
17 3 22 -1 22 -19 0 -17 3 -20 12 -11 8 8 8 15 -2 27 -14 17 -37 19 -62 4z"/>
<path d="M2416 2921 c-4 -5 -3 -16 0 -25 8 -20 44 -21 44 -1 0 17 -36 39 -44
26z m29 -21 c3 -5 2 -10 -4 -10 -5 0 -13 5 -16 10 -3 6 -2 10 4 10 5 0 13 -4
16 -10z"/>
<path d="M2598 2895 c3 -26 -1 -37 -17 -47 -12 -7 -21 -17 -21 -21 0 -17 69
48 69 65 1 10 -7 22 -17 27 -16 8 -17 6 -14 -24z"/>
<path d="M2105 2835 c-27 -7 -68 -16 -90 -21 -27 -5 -34 -9 -21 -12 24 -5 119
14 161 33 38 17 15 17 -50 0z"/>
<path d="M1385 2830 c3 -5 10 -10 16 -10 5 0 9 5 9 10 0 6 -7 10 -16 10 -8 0
-12 -4 -9 -10z"/>
<path d="M2205 2830 c-16 -7 -17 -9 -3 -9 9 -1 20 4 23 9 7 11 7 11 -20 0z"/>
<path d="M1450 2811 c0 -27 19 -36 37 -18 18 18 9 37 -18 37 -12 0 -19 -7 -19
-19z m38 -3 c-6 -18 -28 -21 -28 -4 0 9 7 16 16 16 9 0 14 -5 12 -12z"/>
<path d="M895 2800 c-4 -12 -5 -24 -2 -27 3 -2 8 5 12 17 4 12 5 24 2 27 -3 2
-8 -5 -12 -17z"/>
<path d="M1755 2790 l-90 -6 90 -1 c50 0 119 3 155 7 l65 7 -65 0 c-36 -1
-105 -4 -155 -7z"/>
<path d="M2090 2787 c-44 -9 -49 -12 -25 -14 17 -2 53 3 80 11 59 17 24 18
-55 3z"/>
<path d="M1395 2779 c-17 -8 -15 -8 8 -4 28 6 34 -2 17 -23 -5 -7 -3 -6 6 2 9
8 13 19 10 25 -8 13 -14 13 -41 0z"/>
<path d="M1031 2746 c-6 -7 -13 -42 -15 -77 -2 -35 -2 -50 0 -34 2 17 9 47 16
68 10 33 15 38 35 34 19 -3 21 -2 12 9 -15 18 -33 18 -48 0z"/>
<path d="M2530 2720 c-12 -7 -12 -12 -2 -22 9 -9 12 -9 12 4 0 9 6 19 13 21 6
3 8 6 2 6 -5 0 -17 -4 -25 -9z"/>
<path d="M901 2704 c0 -11 3 -14 6 -6 3 7 2 16 -1 19 -3 4 -6 -2 -5 -13z"/>
<path d="M2755 2710 c-3 -5 -2 -10 4 -10 5 0 13 5 16 10 3 6 2 10 -4 10 -5 0
-13 -4 -16 -10z"/>
<path d="M2802 2706 c7 -8 15 -12 17 -11 5 6 -10 25 -20 25 -5 0 -4 -6 3 -14z"/>
<path d="M1111 2685 c1 -19 18 -51 18 -35 0 8 -4 22 -9 30 -5 8 -9 11 -9 5z"/>
<path d="M910 2658 c0 -9 5 -20 10 -23 13 -8 13 5 0 25 -8 13 -10 13 -10 -2z"/>
<path d="M896 2627 c3 -10 9 -15 12 -12 3 3 0 11 -7 18 -10 9 -11 8 -5 -6z"/>
<path d="M930 2593 c0 -17 5 -35 10 -38 13 -8 13 35 0 55 -7 11 -10 7 -10 -17z"/>
<path d="M1948 2609 c-10 -5 -18 -15 -18 -22 0 -9 3 -8 9 1 4 7 21 17 37 22
20 6 23 8 9 9 -11 0 -28 -4 -37 -10z"/>
<path d="M1350 2595 c-9 -8 -40 -19 -70 -24 l-55 -9 45 -1 c40 -1 110 27 110
44 0 10 -16 5 -30 -10z"/>
<path d="M2010 2606 c0 -2 7 -7 16 -10 8 -3 12 -2 9 4 -6 10 -25 14 -25 6z"/>
<path d="M2330 2596 c0 -2 7 -6 15 -10 8 -3 15 -1 15 4 0 6 -7 10 -15 10 -8 0
-15 -2 -15 -4z"/>
<path d="M911 2574 c0 -11 3 -14 6 -6 3 7 2 16 -1 19 -3 4 -6 -2 -5 -13z"/>
<path d="M1115 2560 c-7 -33 -37 -46 -77 -35 -22 6 -22 6 -4 -9 11 -9 25 -16
31 -16 20 0 65 48 65 70 0 29 -7 25 -15 -10z"/>
<path d="M1930 2552 c0 -12 19 -26 26 -19 2 2 -2 10 -11 17 -9 8 -15 8 -15 2z"/>
<path d="M2298 2548 c6 -6 18 -8 28 -6 14 3 12 5 -9 10 -19 3 -25 2 -19 -4z"/>
<path d="M2175 2540 c-3 -5 1 -10 9 -10 9 0 16 5 16 10 0 6 -4 10 -9 10 -6 0
-13 -4 -16 -10z"/>
<path d="M2660 2541 c0 -5 9 -7 20 -4 11 3 20 7 20 9 0 2 -9 4 -20 4 -11 0
-20 -4 -20 -9z"/>
<path d="M1995 2530 l-30 -8 27 -1 c15 0 30 4 33 9 3 6 5 9 3 9 -2 -1 -16 -5
-33 -9z"/>
<path d="M2476 2521 c-3 -4 3 -16 14 -26 15 -13 22 -14 37 -5 17 11 17 11 -1
6 -20 -7 -49 11 -40 25 3 5 3 9 0 9 -3 0 -7 -4 -10 -9z"/>
<path d="M1466 2505 c-9 -26 -7 -32 5 -12 6 10 9 21 6 23 -2 3 -7 -2 -11 -11z"/>
<path d="M2665 2510 c3 -5 14 -10 23 -10 15 0 15 2 2 10 -20 13 -33 13 -25 0z"/>
<path d="M2095 2489 c-10 -15 3 -25 16 -12 7 7 7 13 1 17 -6 3 -14 1 -17 -5z"/>
<path d="M2341 2484 c0 -11 3 -14 6 -6 3 7 2 16 -1 19 -3 4 -6 -2 -5 -13z"/>
<path d="M2590 2474 c0 -8 5 -12 10 -9 6 4 8 11 5 16 -9 14 -15 11 -15 -7z"/>
<path d="M2723 2464 c-6 -16 12 -34 32 -34 6 1 2 5 -7 11 -22 12 -23 29 -3 29
8 0 15 -4 15 -10 0 -5 5 -10 11 -10 8 0 8 5 -1 15 -16 20 -39 19 -47 -1z"/>
<path d="M893 2433 c20 -21 35 -41 33 -44 -3 -3 4 -5 14 -5 19 0 19 1 -1 19
-11 10 -16 24 -13 30 4 7 4 9 -1 5 -4 -4 -22 2 -39 14 -29 20 -29 19 7 -19z"/>
<path d="M1025 2450 c-3 -5 1 -10 9 -10 9 0 16 5 16 10 0 6 -4 10 -9 10 -6 0
-13 -4 -16 -10z"/>
<path d="M1200 2410 l-25 -8 28 -1 c15 -1 27 4 27 9 0 6 -1 10 -2 9 -2 -1 -14
-5 -28 -9z"/>
<path d="M929 2337 c25 -28 14 -39 -13 -12 -8 8 -18 15 -23 15 -7 0 55 -60 63
-60 2 0 0 8 -3 17 -5 13 -3 15 13 9 18 -7 18 -6 -1 11 -42 38 -61 48 -36 20z"/>
<path d="M1959 2337 c-14 -12 -43 -37 -64 -55 -21 -17 -35 -35 -32 -38 7 -7
135 96 136 109 1 13 -13 7 -40 -16z"/>
<path d="M2020 2350 c0 -5 5 -10 10 -10 6 0 10 5 10 10 0 6 -4 10 -10 10 -5 0
-10 -4 -10 -10z"/>
<path d="M1200 2336 c0 -2 7 -9 15 -16 9 -7 15 -8 15 -2 0 5 -7 12 -15 16 -8
3 -15 4 -15 2z"/>
<path d="M1191 2291 c-8 -5 -10 -14 -6 -22 6 -9 10 -8 16 7 6 18 8 17 17 -6 7
-16 11 -19 11 -9 1 22 -22 40 -38 30z"/>
<path d="M1130 2196 c0 -9 30 -14 35 -6 4 6 -3 10 -14 10 -12 0 -21 -2 -21 -4z"/>
<path d="M1135 2129 c-4 -11 -4 -23 -1 -26 3 -4 6 1 6 11 0 9 10 21 23 26 l22
9 -22 0 c-13 1 -24 -7 -28 -20z"/>
<path d="M1145 1914 c-4 -22 -9 -46 -11 -54 -2 -8 0 -21 5 -28 5 -8 10 10 14
50 6 71 2 90 -8 32z"/>
<path d="M930 1902 c0 -14 30 -71 41 -77 14 -9 11 2 -11 45 -20 39 -30 49 -30
32z"/>
<path d="M2441 1836 c-10 -12 -8 -13 8 -9 12 3 21 9 21 14 0 14 -16 11 -29 -5z"/>
<path d="M745 1728 c-47 -27 -58 -75 -29 -129 15 -29 14 -31 -6 -36 -17 -5
-21 -12 -18 -42 3 -34 5 -36 38 -34 24 1 42 10 57 28 27 31 29 55 6 102 -15
33 -15 36 0 48 10 7 17 26 17 44 0 26 -4 31 -22 31 -13 0 -32 -6 -43 -12z"/>
<path d="M1293 1716 c-27 -23 -28 -29 -31 -125 l-4 -101 36 0 c33 0 36 2 36
30 0 20 5 30 15 30 10 0 15 11 15 35 0 24 -5 35 -15 35 -17 0 -19 18 -6 39 19
30 31 -2 31 -85 l0 -84 35 0 35 0 0 104 c0 101 -1 105 -26 125 -36 28 -86 27
-121 -3z"/>
<path d="M1513 1716 c-27 -23 -28 -29 -31 -125 l-4 -101 41 0 41 0 0 91 c0 68
3 90 13 87 8 -3 13 -33 15 -91 l3 -87 35 0 36 0 -4 106 c-3 97 -5 107 -27 125
-33 27 -84 24 -118 -5z"/>
<path d="M1765 1730 c-66 -27 -95 -125 -55 -188 20 -33 71 -62 109 -62 32 0
81 48 81 80 0 49 -9 60 -51 60 -35 0 -39 -3 -39 -25 0 -16 6 -25 15 -25 8 0
15 -4 15 -10 0 -14 -33 -12 -52 3 -8 6 -18 23 -21 36 -7 30 35 75 63 68 22 -6
30 9 23 46 -5 23 -10 27 -37 26 -17 0 -40 -4 -51 -9z"/>
<path d="M830 1701 c0 -25 4 -30 28 -33 27 -3 27 -3 30 -90 l3 -88 34 0 35 0
0 90 0 90 30 0 c27 0 30 3 30 30 l0 30 -95 0 -95 0 0 -29z"/>
<path d="M1040 1610 l0 -120 40 0 40 0 0 90 c0 72 3 90 14 90 23 0 31 -22 13
-35 -22 -16 -22 -65 0 -110 15 -31 21 -35 54 -35 l38 0 -21 50 c-19 45 -19 50
-4 65 24 24 20 77 -7 103 -19 18 -35 22 -95 22 l-72 0 0 -120z"/>
<path d="M1947 1712 c-13 -14 -17 -38 -17 -100 0 -103 14 -122 90 -122 l50 0
0 35 c0 33 -2 35 -35 35 -19 0 -35 5 -35 10 0 6 14 10 30 10 27 0 30 3 30 30
0 27 -3 30 -31 30 -41 0 -33 24 9 28 28 3 32 7 32 33 0 28 -1 29 -53 29 -40 0
-58 -5 -70 -18z"/>
<path d="M2200 1610 l0 -120 40 0 40 0 0 90 c0 50 4 90 9 90 15 0 23 -18 11
-25 -18 -11 -12 -73 8 -78 16 -4 16 -5 0 -6 -14 -1 -18 -10 -18 -36 0 -32 3
-35 28 -35 16 0 36 8 45 18 23 25 22 88 0 101 -15 8 -16 12 -5 22 17 18 15 64
-4 83 -11 12 -35 16 -85 16 l-69 0 0 -120z"/>
<path d="M2410 1610 l0 -120 40 0 40 0 0 90 c0 72 3 90 14 90 23 0 31 -22 13
-35 -22 -16 -22 -65 0 -110 15 -31 21 -35 54 -35 l38 0 -19 46 c-18 41 -19 48
-5 67 23 32 19 80 -8 105 -19 18 -35 22 -95 22 l-72 0 0 -120z"/>
<path d="M2654 1716 c-16 -12 -19 -27 -19 -106 0 -107 9 -120 87 -120 l48 0 0
35 c0 33 -2 35 -35 35 -19 0 -35 5 -35 10 0 6 16 10 36 10 33 0 35 2 32 28 -2
21 -9 28 -30 30 -39 5 -37 32 2 32 27 0 30 3 30 30 0 29 -1 30 -48 30 -27 0
-57 -6 -68 -14z"/>
<path d="M2810 1630 c0 -94 2 -103 25 -125 28 -29 51 -31 83 -10 19 14 24 14
47 -1 28 -18 64 -13 89 12 13 12 16 38 16 120 l0 104 -35 0 -35 0 0 -85 c0
-50 -4 -85 -10 -85 -6 0 -10 35 -10 85 l0 85 -35 0 -35 0 0 -85 c0 -69 -3 -85
-15 -85 -12 0 -15 16 -15 85 l0 85 -35 0 -35 0 0 -100z"/>
<path d="M1031 1368 c1 -24 5 -54 9 -68 6 -18 8 -7 9 43 1 38 -3 67 -9 67 -5
0 -10 -19 -9 -42z"/>
<path d="M1106 1387 c-5 -15 -6 -66 -4 -113 3 -49 0 -84 -5 -84 -5 0 -4 -6 2
-14 9 -10 9 -16 1 -21 -8 -5 -8 -11 1 -21 9 -12 16 -11 40 7 36 26 49 72 49
182 0 82 -1 87 -21 87 -20 0 -21 -4 -17 -90 1 -50 0 -90 -4 -90 -8 0 -26 86
-31 145 -3 39 -3 39 -11 12z m39 -187 c-9 -15 -25 -2 -25 21 0 19 1 19 16 5 8
-9 12 -20 9 -26z"/>
<path d="M2061 1143 c1 -148 4 -308 8 -358 5 -60 8 28 9 268 1 232 -1 357 -8
357 -6 0 -10 -95 -9 -267z"/>
<path d="M2270 1400 c-8 -5 -11 -12 -8 -16 4 -3 14 1 23 10 18 17 9 21 -15 6z"/>
<path d="M1032 1070 c-2 -8 -7 -73 -12 -145 -5 -71 -12 -157 -16 -190 -4 -43
-3 -56 5 -45 15 23 36 -2 23 -27 -18 -32 -26 -161 -12 -178 18 -22 27 -19 35
13 9 33 24 183 32 315 5 94 5 97 -16 97 -11 0 -21 -4 -21 -10 0 -5 5 -10 11
-10 8 0 9 -11 4 -32 -9 -45 -12 -67 -14 -110 -1 -27 -6 -38 -16 -38 -18 0 -19
27 -4 153 8 73 9 264 1 207z"/>
<path d="M1065 980 c3 -5 10 -10 16 -10 5 0 9 5 9 10 0 6 -7 10 -16 10 -8 0
-12 -4 -9 -10z"/>
<path d="M1050 940 c0 -5 9 -10 21 -10 11 0 17 5 14 10 -3 6 -13 10 -21 10 -8
0 -14 -4 -14 -10z"/>
<path d="M2143 610 c0 -47 2 -66 4 -42 2 23 2 61 0 85 -2 23 -4 4 -4 -43z"/>
<path d="M953 305 c0 -22 2 -30 4 -17 2 12 2 30 0 40 -3 9 -5 -1 -4 -23z"/>
<path d="M2416 224 c-11 -7 -18 -16 -15 -18 2 -2 13 2 23 10 11 7 18 16 15 18
-2 2 -13 -2 -23 -10z"/>
<path d="M2180 189 c0 -5 5 -7 10 -4 6 3 10 8 10 11 0 2 -4 4 -10 4 -5 0 -10
-5 -10 -11z"/>
<path d="M930 90 c1 -31 70 -90 104 -90 17 1 15 3 -10 14 -17 8 -45 31 -62 52
-18 21 -32 32 -32 24z"/>
<path d="M1440 66 c0 -2 8 -10 18 -17 15 -13 16 -12 3 4 -13 16 -21 21 -21 13z"/>
<path d="M2497 25 c-15 -14 -24 -25 -18 -25 5 0 23 11 38 25 15 13 24 24 18
24 -5 0 -23 -11 -38 -24z"/>
<path d="M2759 23 c-13 -16 -12 -17 4 -4 16 13 21 21 13 21 -2 0 -10 -8 -17
-17z"/>
</g>
</svg>
