<svg width="54" height="78" viewBox="0 0 54 78" fill="none" xmlns="http://www.w3.org/2000/svg">
<path d="M39.7877 77.3653C39.4746 77.3027 39.2242 77.0523 39.2242 76.8644C39.2242 76.614 39.1303 76.6453 38.9424 76.9271C38.5668 77.5218 34.5911 77.2714 34.1842 76.614C33.965 76.2697 33.9024 76.2697 33.9024 76.614C33.9024 77.1775 29.8955 76.9584 29.5511 76.3636C29.332 76.0505 29.2381 76.0505 29.1442 76.3323C28.9564 76.9271 20.1911 76.301 19.7842 75.6749C19.5651 75.3305 19.5024 75.3305 19.5024 75.6749C19.5024 76.2697 15.2137 76.0192 14.7755 75.3931C14.5564 75.0175 14.4311 74.9862 14.212 75.3305C13.8364 75.9566 5.19636 75.3931 4.7581 74.7357C4.57027 74.4227 4.47636 74.4227 4.47636 74.7044C4.47636 75.174 1.56505 75.2366 0.688533 74.7671C0.187663 74.4853 0.09375 74.0784 0.09375 72.2627C0.09375 70.5097 0.187663 70.0714 0.563315 70.0714C0.938967 70.0714 1.03288 69.6331 1.03288 67.8801C1.03288 66.1271 0.938967 65.6888 0.563315 65.6888C-0.156685 65.6888 -0.000163235 64.4992 0.81375 63.8418C1.1894 63.5288 2.31636 62.5584 3.3494 61.7444L5.19636 60.2105L5.13375 57.0175C5.10244 54.9201 5.19636 53.7931 5.38418 53.7931C5.57201 53.7931 5.72853 53.4488 5.72853 53.0105C5.72853 52.5723 5.60331 52.2279 5.41549 52.2279C4.60158 52.2279 4.88331 45.9984 5.72853 45.7166C6.16679 45.5601 6.13549 41.8975 5.69723 41.8975C5.44679 41.8975 5.41549 41.3027 5.54071 39.9566C5.66592 38.861 5.88505 33.9149 6.04157 28.9062C6.44853 15.7897 6.57375 14.7253 8.3581 11.1566C11.7077 4.39489 15.9651 1.67141 25.012 0.419241C29.3946 -0.206846 33.4642 -0.112933 33.9337 0.575763C34.1529 0.888806 34.3094 0.920111 34.4033 0.669676C34.5285 0.419241 35.1233 0.48185 36.6572 0.857502C37.8155 1.17055 39.412 1.5775 40.1946 1.76533C43.6381 2.57924 47.645 5.96011 49.3042 9.43489C51.0572 13.0349 52.2781 22.3636 51.1198 23.1149C50.7442 23.3653 50.7442 23.4279 51.0885 23.4279C51.6833 23.4279 51.4329 28.0297 50.8068 28.4366C50.5563 28.5931 50.4937 28.7497 50.6816 28.7497C50.9007 28.7497 51.0885 30.0331 51.2137 32.2558C51.339 34.1966 51.5268 36.5445 51.6207 37.4523C51.8085 38.8297 51.7459 39.0801 51.3077 39.0801C50.932 39.0801 50.8068 39.3618 50.8068 40.1758C50.8068 40.9271 50.9633 41.2714 51.2763 41.2714C51.8711 41.2714 51.8711 42.2731 51.3077 44.214C50.9946 45.2784 50.8381 47.6575 50.7755 52.2592L50.7129 58.8331L52.3407 60.5862L53.9998 62.3705L53.8746 65.9079C53.812 68.4749 53.6555 69.5392 53.3424 69.7271C53.0294 69.9462 52.9981 70.0088 53.3111 70.134C53.5929 70.2279 53.6555 70.541 53.5303 71.0418C53.3737 71.6053 52.1216 72.4818 48.3964 74.7044C43.8572 77.3653 43.3564 77.5844 41.9164 77.5531C41.0398 77.5218 40.0694 77.4592 39.7877 77.3653ZM36.1563 72.5444L35.9998 70.9792L37.2207 71.0731C38.3164 71.1671 38.5042 71.3236 39.1929 72.6697C40.3198 74.8297 40.7894 74.6105 40.7894 71.9497C40.7894 70.4471 40.6642 69.6957 40.4137 69.6018C40.1946 69.5392 34.3094 69.101 27.3285 68.6314C20.3477 68.1618 13.3981 67.6923 11.8329 67.5671C10.299 67.4105 7.7007 67.2853 6.13549 67.2853C3.41201 67.254 3.22418 67.2853 3.22418 67.8801C3.22418 68.4123 3.44331 68.5062 4.72679 68.5062C7.13723 68.5062 7.60679 68.7566 7.60679 69.9149C7.60679 71.0105 7.60679 71.0105 4.63288 71.6053C3.47462 71.8558 3.44331 71.8871 4.31984 71.9184C6.2294 72.0749 35.3424 74.0471 35.812 74.1097C36.219 74.141 36.2816 73.8905 36.1563 72.5444ZM48.3024 70.7288L49.7111 69.9149L48.7094 69.821C47.8016 69.7271 47.6763 69.6018 47.6763 68.7879V67.8801L46.4242 68.5062C45.2033 69.1323 45.172 69.1636 45.172 70.8853V72.6384L46.0485 72.0749C46.5181 71.7618 47.5198 71.1671 48.3024 70.7288ZM22.0068 65.094C22.0068 64.1862 22.0694 64.1549 23.6659 64.0297C25.1998 63.9358 25.1685 63.9358 23.1964 63.8731L21.0677 63.8105V64.9062C21.0677 65.6575 21.2242 66.0018 21.5372 66.0018C21.8503 66.0018 22.0068 65.6888 22.0068 65.094ZM17.3111 64.781C17.3111 63.9671 17.4364 63.8418 18.3442 63.7479C18.9077 63.6853 18.1877 63.5288 16.6851 63.3723C15.2137 63.2471 13.6172 63.1844 13.0851 63.2784C12.5842 63.341 13.0851 63.4349 14.2746 63.4662L16.372 63.4975V64.5931C16.372 65.3444 16.5285 65.6888 16.8416 65.6888C17.1546 65.6888 17.3111 65.3758 17.3111 64.781ZM36.0937 64.7497C36.0937 64.5931 35.499 64.4679 34.779 64.4679L33.4329 64.5305L34.685 64.7497C35.3737 64.8749 35.9685 65.0001 36.0311 65.0314C36.0624 65.0314 36.0937 64.9375 36.0937 64.7497ZM31.0224 64.2175C30.5216 64.1549 29.7703 64.1549 29.3007 64.2175C28.7998 64.2801 29.2068 64.3427 30.1459 64.3427C31.085 64.3427 31.492 64.2801 31.0224 64.2175ZM10.9251 58.8018C13.0224 58.8018 33.0259 59.8349 37.3772 60.1792L39.1616 60.3045L39.5059 57.581C39.6937 56.0784 39.8503 54.3253 39.8503 53.6992C39.8503 52.6349 39.9129 52.541 40.7581 52.541C41.6659 52.541 42.0729 52.1027 41.7911 51.3827C41.7285 51.1636 41.259 50.9758 40.7894 50.9758C40.2885 50.9758 39.8503 50.7566 39.725 50.4749C39.4746 49.8175 39.4746 42.4923 39.725 40.0505C39.9442 38.2036 39.9755 38.141 40.8207 38.141C41.6972 38.141 41.7285 38.0784 41.7285 36.5758C41.7285 35.1045 41.6972 35.0105 40.9146 35.0105H40.0694L40.3511 29.3131C40.6955 22.3636 40.6329 20.2662 39.9755 17.0105C39.2555 13.1914 38.6607 11.3758 38.0346 10.8123C37.4711 10.3114 37.4398 10.3114 37.0955 11.0627C36.8137 11.6888 36.5007 11.8453 35.6242 11.8453C34.6224 11.8453 34.5285 11.7827 34.5285 10.9375C34.5285 10.4366 34.685 9.62272 34.8416 9.15315C35.092 8.49576 35.0607 8.18272 34.6537 7.71315C33.8085 6.80533 29.9581 5.02098 27.9233 4.58272C26.1077 4.20707 26.0764 4.17576 26.0764 3.17402V2.14098H27.9546C29.4259 2.14098 29.8329 2.04707 29.8329 1.67141C29.8329 1.32707 29.4885 1.20185 28.6746 1.23315C27.2033 1.23315 22.5077 2.04707 23.5094 2.10968C24.0729 2.14098 24.1981 2.32881 24.1981 3.20533V4.23837L21.7877 4.4575C20.4729 4.55141 19.3459 4.70794 19.252 4.80185C19.1894 4.86446 19.6277 5.70967 20.2537 6.64881C20.9737 7.71315 21.3807 8.71489 21.3807 9.37228V10.374L19.4711 10.1549C17.1546 9.93576 16.9981 9.84185 16.9981 8.71489C16.9981 7.55663 16.7164 6.83663 16.2468 6.83663C15.5581 6.83663 12.6468 10.1236 11.9581 11.6888C11.5824 12.5653 11.0503 13.5984 10.7372 14.0366C9.61027 15.6645 9.42244 16.854 9.98592 18.5445C10.4868 20.0784 11.5511 21.894 12.0833 22.1131C12.4277 22.2697 12.3651 24.9305 11.9894 25.6505C11.739 26.0888 11.332 26.2453 10.4555 26.2453H9.23462L9.0781 32.7566C8.98418 36.3253 8.70244 41.5531 8.4207 44.4018C8.13897 47.2505 8.01375 50.3184 8.10766 51.2262L8.29549 52.8853L8.98418 52.2592C9.42244 51.821 10.1111 51.6018 10.8311 51.6018C11.8955 51.6018 11.9894 51.6644 11.9894 52.5097C11.9894 53.6679 10.3303 56.1723 9.39114 56.4853C8.3894 56.7984 8.23288 57.174 8.29549 59.1149C8.32679 60.2105 8.3894 60.461 8.45201 59.8349L8.57723 58.8018H10.9251ZM46.8311 57.6749C47.3007 57.3931 47.6763 56.9549 47.6763 56.6105C47.6763 56.1097 47.8955 55.9844 48.6155 55.9844H49.5546V53.9497V51.9149H48.6155H47.6763V48.7218C47.6763 46.9375 47.8955 44.6523 48.1459 43.6192C48.3964 42.5862 48.5842 41.0523 48.6155 40.2071V38.6731L47.6763 39.8627C47.1755 40.5201 46.7372 41.3966 46.7372 41.8036C46.7372 42.4923 46.612 42.5549 45.579 42.461L44.3894 42.3671L44.4207 39.1427L44.452 35.9184L45.7668 34.8227C46.7372 33.9775 47.0503 33.4766 47.0503 32.7879C47.0503 32.2558 47.2068 31.5358 47.4259 31.1601C47.645 30.7845 47.8955 29.0001 48.052 27.1845C48.1772 25.3688 48.365 22.8331 48.459 21.5497C48.6468 19.5149 48.5216 18.6697 47.6763 15.4453C47.1442 13.3792 46.5181 11.4697 46.2677 11.2192C45.8607 10.8436 45.7981 10.8436 45.7981 11.2818C45.7981 11.5949 45.3598 11.9705 44.7024 12.1897C44.1077 12.4088 43.6068 12.6592 43.6068 12.7845C43.6068 12.8784 43.8885 14.2871 44.2329 15.9149C44.9842 19.5462 45.0468 24.5236 44.3894 31.2853C44.139 33.9462 43.9511 38.9862 43.9511 42.5236C43.9824 55.421 43.9511 57.7062 43.7633 58.3949C43.6068 59.0836 43.6068 59.0836 44.765 58.5827C45.4224 58.3323 46.3303 57.894 46.8311 57.6749ZM7.98244 20.8297C7.82592 20.2036 7.79462 20.2036 7.57549 20.7984C7.23114 21.7062 7.26244 21.8627 7.73201 21.6749C7.98244 21.581 8.10766 21.2679 7.98244 20.8297ZM42.7929 7.83837C43.0746 7.36881 42.0729 6.24185 40.6016 5.39663C39.819 4.92707 39.1303 4.64533 39.0364 4.73924C38.8798 4.89576 42.0729 8.0575 42.4172 8.08881C42.5424 8.08881 42.699 7.96359 42.7929 7.83837ZM46.4242 7.65054C46.4242 7.58794 46.205 7.3688 45.9546 7.14967C45.579 6.83663 45.485 6.83663 45.485 7.27489C45.485 7.55663 45.7042 7.77576 45.9546 7.77576C46.205 7.77576 46.4242 7.71315 46.4242 7.65054Z" fill="black"/>
<path d="M23.1024 46.562C21.2242 46.4368 18.9703 46.4054 18.0938 46.4994C15.8711 46.6872 15.5894 46.4055 15.5581 43.8072C15.4955 41.6472 15.4955 41.5533 13.7738 39.3307C11.2694 36.0437 10.5494 32.9759 11.3633 28.7498C12.3651 23.4594 16.2155 19.8594 21.819 18.9828C27.4851 18.1063 32.8381 20.7359 35.499 25.7133C36.532 27.5915 36.532 27.7481 36.5633 31.4107C36.5633 35.9185 36.3442 36.4507 33.2451 39.8315L31.0851 42.2107V44.5585V46.9063L28.8311 46.8437C27.579 46.8437 25.012 46.6872 23.1024 46.562ZM28.0485 40.4889C28.1738 39.7063 28.7998 38.7359 30.1459 37.2646C32.5564 34.635 32.9946 33.7898 33.0572 31.755C33.1511 27.5602 28.7685 22.7394 24.4172 22.2698C22.852 22.082 20.1598 23.0211 18.2816 24.3985C16.059 25.995 14.4311 29.1568 14.3998 31.8802C14.3998 33.2576 15.0572 34.5411 17.0294 37.0455C18.219 38.5794 18.5633 39.2681 18.5633 40.1133V41.2402L20.8485 41.3654C22.0694 41.3968 24.1668 41.4907 25.4816 41.522L27.8607 41.5846L28.0485 40.4889Z" fill="black"/>
<path d="M19.8157 39.3931C19.8157 38.8609 20.0975 37.9218 20.4105 37.2644L21.0053 36.1062H18.9705C17.1235 36.1062 16.8731 36.0122 16.1844 35.2296C15.5583 34.5096 15.4331 34.0088 15.4331 32.3183C15.4331 30.5653 15.5583 30.1896 16.2157 29.5322C16.8731 28.8435 17.2488 28.7496 19.127 28.7496C21.8818 28.7496 22.6644 29.4383 22.8835 32.0366C23.0088 33.414 23.134 33.7583 23.5722 33.7583C23.9792 33.7583 24.167 33.3827 24.2922 32.1305C24.6053 29.6888 25.5131 28.9062 28.0801 28.9062C29.7705 28.9062 30.2088 29.0314 30.8974 29.6575C31.6174 30.3462 31.7114 30.6592 31.7114 32.5688C31.7114 34.447 31.6175 34.8227 30.9288 35.5114C30.2088 36.2314 29.927 36.294 27.9861 36.2001L25.8261 36.1062L26.2644 36.9514C26.5148 37.4209 26.7027 38.3601 26.7027 39.0801V40.3322H23.2592H19.8157V39.3931Z" fill="black"/>
<path d="M43.6696 75.4872C43.3566 75.362 43.2627 74.2976 43.3253 71.1046C43.3566 67.6298 43.2627 66.8472 42.887 66.5341C42.2609 66.0646 41.7288 64.6559 41.7288 63.5289C41.7288 62.7463 41.9792 62.5272 44.1705 61.5254C45.8609 60.7115 46.3305 60.3672 45.7983 60.3672C45.1722 60.3672 45.4227 60.148 46.894 59.3341C48.3653 58.5515 48.7722 58.1759 48.8348 57.5498C48.8661 56.7985 48.8661 56.7985 48.7096 57.4872C48.6157 58.0194 48.0835 58.4576 46.9566 58.9898L45.3288 59.7411L45.2348 59.0524C45.1722 58.6767 45.2348 58.3011 45.3914 58.2698C45.5166 58.2072 46.1114 57.8941 46.6748 57.5498L47.6766 56.9237V53.4802C47.6766 50.6941 47.7705 50.0367 48.1148 50.0367C48.3653 50.0367 48.647 50.2872 48.7096 50.6002C48.8348 51.1011 48.8661 51.1011 48.8975 50.6002C48.8975 50.2872 49.1479 50.0367 49.4296 50.0367C49.8679 50.0367 49.8992 50.5689 49.8053 54.4507C49.7114 58.3637 49.6488 58.8959 49.1166 59.3028C48.5218 59.7098 48.5531 59.7411 49.4609 59.7411C50.6818 59.7411 51.4331 60.6176 51.4331 62.0263C51.4331 62.9654 51.3079 63.1846 50.807 63.1846C50.4627 63.1846 50.1809 63.3411 50.1809 63.4976C50.1809 63.6854 50.6818 63.8107 51.2766 63.8107H52.3722V67.5672V71.2924L49.2418 73.108C47.5514 74.1098 46.1427 75.1115 46.1114 75.3307C46.1114 75.7063 44.4835 75.8315 43.6696 75.4872ZM48.1461 72.795L51.9027 70.5098L51.9966 67.3167C52.0592 64.6559 51.9966 64.1237 51.6209 64.1237C51.3705 64.1237 51.0261 64.3115 50.9009 64.5307C50.7757 64.7185 50.4314 64.9063 50.1809 64.9063C49.9305 64.9063 48.3966 65.5637 46.8314 66.4089L43.9201 67.8802V71.4802C43.9201 73.4524 44.014 75.0802 44.1705 75.0489C44.2957 75.0489 46.0801 74.0159 48.1461 72.795ZM46.3305 64.8437C47.7392 64.1237 48.9601 63.3724 49.0853 63.1846C49.1792 63.028 49.5235 62.8715 49.8366 62.8715C50.9948 62.8715 51.1514 62.1202 50.2435 61.0246L49.3983 60.0228L45.8922 61.6507C43.9514 62.5585 42.3548 63.4663 42.3548 63.6854C42.3548 64.2489 43.3879 66.3463 43.5757 66.2524C43.6696 66.1898 44.9218 65.5637 46.3305 64.8437Z" fill="#100341"/>
<path d="M44.2332 71.3237V68.1933L46.8314 66.8785C48.2401 66.1272 49.4923 65.5011 49.6175 65.4385C49.9305 65.282 49.2418 67.9741 48.8349 68.4437C48.5532 68.8193 48.5845 68.882 49.0853 68.788C49.461 68.6941 49.8053 68.2246 50.0245 67.5672C50.2123 66.9724 50.5879 66.0646 50.8697 65.5324C51.4018 64.5933 51.4018 64.5933 51.4332 67.4733V70.3533L47.9897 72.388C46.0801 73.515 44.4523 74.4541 44.3897 74.4541C44.2958 74.4541 44.2332 73.0454 44.2332 71.3237Z" fill="#100341"/>
<path d="M43.1689 64.6871C42.6367 63.4662 42.4802 63.6227 46.6437 61.7445C49.1793 60.6175 49.2732 60.5862 49.868 61.1497C50.2124 61.4627 50.4941 61.8384 50.4941 61.9949C50.4941 62.4332 49.555 62.2766 49.3672 61.7758C49.0541 60.9619 48.5845 61.2749 48.7724 62.1827C48.8976 62.9653 48.7411 63.1219 46.5185 64.2801C45.2037 64.9688 43.9828 65.5949 43.8576 65.6262C43.7011 65.6888 43.388 65.2819 43.1689 64.6871Z" fill="#100341"/>
<path d="M7.85737 75.1427C6.79302 74.9236 7.23128 74.141 8.38955 74.141C9.26607 74.141 9.4852 74.2662 9.4852 74.7358C9.4852 75.3306 9.17215 75.4245 7.85737 75.1427Z" fill="#100341"/>
<path d="M13.2417 71.3236V69.7584H14.6504H16.0591V71.3236V72.8889H14.6504H13.2417V71.3236Z" fill="#100341"/>
<path d="M33.9653 71.7306C34.0592 70.5723 34.0905 70.541 35.3113 70.541C36.5322 70.541 36.5635 70.5723 36.6574 71.7306L36.7513 72.8888H35.3113H33.8713L33.9653 71.7306Z" fill="#100341"/>
<path d="M8.67135 70.6037C8.57744 70.3219 8.54614 69.6645 8.60874 69.0697C8.70266 68.0993 8.76527 68.0367 10.0487 67.9428L11.3948 67.8489L11.3009 69.3515C11.207 70.8541 11.207 70.8541 10.0174 70.948C9.20353 71.0106 8.79657 70.9167 8.67135 70.6037Z" fill="#100341"/>
<path d="M36.72 68.8192C36.72 68.3497 36.8765 68.2244 37.44 68.3184C37.8156 68.4123 38.3165 68.4749 38.5356 68.4749C38.7234 68.5062 38.9113 68.7253 38.9113 68.9758C38.9113 69.2888 38.5669 69.4453 37.8156 69.4453C36.9391 69.4453 36.72 69.3201 36.72 68.8192Z" fill="#100341"/>
<path d="M11.9894 67.2854C11.9894 66.7845 12.2398 66.628 13.492 66.5341L14.9633 66.4402L13.492 66.3776C11.6137 66.315 11.5198 65.7515 13.3354 65.595L14.6502 65.4698L13.1789 65.4384C12.052 65.3758 11.6763 65.5011 11.6763 65.8141C11.6763 66.0645 11.4259 66.3463 11.1441 66.4089C10.612 66.5341 10.612 66.5654 11.1441 66.5967C11.4259 66.5967 11.6763 66.8471 11.6763 67.0976C11.6763 67.4732 11.238 67.5671 9.48501 67.5671C7.51283 67.5671 7.2937 67.5045 7.2937 66.9724C7.2937 66.4715 7.54414 66.315 8.63979 66.2211L9.95457 66.0958L8.63979 66.0645C6.76153 65.9706 6.94935 65.3758 8.85892 65.3758C9.95457 65.3758 10.4241 65.2506 10.4241 64.9689C10.4241 64.6558 11.0189 64.5619 12.8659 64.5932C14.1807 64.6245 14.6502 64.6245 13.8676 64.5619C11.3007 64.3428 10.4241 64.1237 10.4241 63.6541C10.4241 63.2784 10.8624 63.1845 12.3024 63.1845C13.7424 63.1845 14.1807 63.0906 14.1807 62.7463C14.1807 62.4332 14.5876 62.2454 15.3702 62.1515L16.5285 62.0263L15.3702 61.995C13.2415 61.9011 14.118 61.3063 16.372 61.3063C18.0624 61.3063 18.5633 61.4002 18.5633 61.7445C18.5633 61.995 18.3128 62.2767 18.0311 62.3393C17.4989 62.4645 17.4989 62.4958 18.0311 62.5271C18.4694 62.5584 18.5633 62.8402 18.532 64.1237C18.4694 65.6889 18.4694 65.6889 17.405 65.6889C16.7163 65.6889 16.372 65.8454 16.372 66.1271C16.372 66.3776 16.1215 66.6593 15.8398 66.7219C15.3076 66.8471 15.3076 66.8784 15.8398 66.9097C16.1215 66.9097 16.372 67.1602 16.372 67.4106C16.372 67.7863 15.9337 67.8802 14.1807 67.8802C12.2085 67.8802 11.9894 67.8176 11.9894 67.2854Z" fill="#100341"/>
<path d="M36.72 67.5672C36.72 67.4107 37.2208 67.2542 37.8156 67.2542C38.4104 67.2542 38.9113 67.4107 38.9113 67.5672C38.9113 67.755 38.4104 67.8802 37.8156 67.8802C37.2208 67.8802 36.72 67.755 36.72 67.5672Z" fill="#100341"/>
<path d="M33.9023 66.5027C33.9023 66.2522 34.1528 65.9705 34.4658 65.9079C34.9667 65.7827 34.9667 65.7514 34.4658 65.7201C34.1528 65.7201 33.9023 65.4696 33.9023 65.2192C33.9023 64.8435 34.3093 64.7496 35.7806 64.7496C37.471 64.7496 37.6589 64.8122 37.6589 65.407C37.6589 65.7514 37.5336 65.9705 37.3771 65.8453C37.2206 65.7514 37.0015 65.814 36.8763 66.0018C36.7823 66.1583 36.9076 66.3149 37.158 66.3149C37.4397 66.3149 37.6589 66.4714 37.6589 66.6279C37.6589 66.8157 36.8136 66.9409 35.7806 66.9409C34.3719 66.9409 33.9023 66.847 33.9023 66.5027Z" fill="#100341"/>
<path d="M19.1897 65.5636C19.1897 65.3132 19.4401 65.0314 19.7532 64.9688C20.254 64.8436 20.254 64.8123 19.7532 64.781C19.4401 64.781 19.1897 64.5305 19.1897 64.2801C19.1897 63.9045 19.628 63.8105 21.2245 63.8105H23.228L23.1967 64.9062L23.1653 66.0019H21.1619C19.6593 66.0019 19.1897 65.9079 19.1897 65.5636Z" fill="#100341"/>
<path d="M4.41402 64.2176C4.78967 64.155 5.35315 64.155 5.6662 64.2176C5.94793 64.3115 5.63489 64.3741 4.9462 64.3428C4.2575 64.3428 4.00707 64.2802 4.41402 64.2176Z" fill="#100341"/>
<path d="M31.0852 63.8106C31.0852 63.1532 31.5861 63.028 32.9009 63.3723C34.1217 63.7167 33.7461 64.4367 32.3374 64.4367C31.3043 64.4367 31.0852 64.3428 31.0852 63.8106Z" fill="#100341"/>
<path d="M4.78955 63.6853C4.78955 63.2783 6.51129 61.9636 7.07477 61.9323C7.60694 61.9323 7.85738 62.9966 7.35651 63.3096C6.91825 63.5601 4.78955 63.8731 4.78955 63.6853Z" fill="#100341"/>
<path d="M3.85034 62.8715C3.85034 62.4646 4.06947 62.2455 4.44512 62.2455C4.75817 62.2455 5.10252 61.9637 5.19643 61.6194C5.32165 61.1498 5.63469 60.9933 6.47991 60.9933C7.10599 60.9933 7.60686 61.1498 7.60686 61.3063C7.60686 61.4942 7.35643 61.6194 7.04338 61.6194C6.73034 61.6194 6.01034 62.0263 5.41556 62.5585C4.10078 63.6542 3.85034 63.7168 3.85034 62.8715Z" fill="#100341"/>
<path d="M32.2747 62.9654C30.6782 62.7775 30.7408 62.2454 32.3373 62.2454C33.2451 62.2454 33.5895 62.3706 33.5895 62.7149C33.5895 62.9654 33.5582 63.1532 33.5269 63.1219C33.4643 63.0906 32.9008 63.028 32.2747 62.9654Z" fill="#100341"/>
<path d="M6.22954 59.7097C5.9165 58.0192 6.01041 56.9236 6.47998 56.9236C6.73041 56.9236 7.01215 57.174 7.07476 57.4871C7.19998 57.9879 7.23128 57.9879 7.26259 57.4871C7.3252 56.6732 8.17041 56.7984 8.29563 57.6436C8.35824 58.2071 8.60867 58.3636 9.73563 58.4262C10.7687 58.5201 11.0504 58.6453 11.0504 59.1149C11.0504 59.5218 10.7687 59.741 10.2052 59.8349L9.32867 59.9601L10.2052 60.0227C10.6748 60.0227 11.0504 60.2105 11.0504 60.3671C11.0504 60.5549 10.08 60.6801 8.73389 60.6801H6.44867L6.22954 59.7097Z" fill="#100341"/>
<path d="M25.7634 56.7671V55.3584H27.3286H28.8939V56.7671V58.1758H27.3286H25.7634V56.7671Z" fill="#100341"/>
<path d="M39.6939 53.5741C39.8192 51.195 40.007 49.1915 40.0696 49.0976C40.1635 49.0037 40.4139 49.2228 40.6644 49.5359C41.04 50.0681 41.1026 50.0994 41.1026 49.6298C41.1026 49.3481 41.3218 49.0976 41.5722 49.0976C41.9478 49.0976 42.0418 49.5046 42.0418 50.9133C42.0418 54.5446 41.6661 57.8628 41.2278 57.8628C41.0087 57.8628 40.7583 57.6124 40.6957 57.3307C40.5705 56.7985 40.5392 56.7985 40.5079 57.3307C40.5079 57.6124 40.2574 57.8628 39.9757 57.8628C39.5374 57.8628 39.5061 57.362 39.6939 53.5741ZM41.0087 54.0437C40.9461 53.6367 40.8835 53.9498 40.8835 54.7324C40.8835 55.515 40.9461 55.8281 41.0087 55.4524C41.0713 55.0454 41.0713 54.4194 41.0087 54.0437Z" fill="#100341"/>
<path d="M35.6871 57.0176C35.5619 56.9237 35.468 56.0785 35.468 55.1394V53.4802H36.5011C38.5045 53.4802 38.9115 53.762 38.9115 55.0454C38.9115 55.7341 38.6924 56.4541 38.4106 56.7359C37.9411 57.2367 36.0628 57.4246 35.6871 57.0176Z" fill="#100341"/>
<path d="M9.51641 54.8263C9.73554 54.5132 9.98598 54.2002 10.0173 54.1376C10.0799 54.075 10.1112 54.2941 10.1112 54.6697C10.1112 55.108 9.92337 55.3584 9.61033 55.3584C9.17207 55.3584 9.14076 55.2645 9.51641 54.8263Z" fill="#100341"/>
<path d="M7.91992 53.9184C7.91992 53.2923 8.07644 53.1671 8.85905 53.1671C9.70427 53.1671 9.76688 53.2297 9.42253 53.7619C9.2034 54.1062 8.79644 54.4506 8.4834 54.5132C8.04514 54.6384 7.91992 54.4819 7.91992 53.9184Z" fill="#100341"/>
<path d="M34.0278 52.1027C33.9339 51.8523 33.9026 51.2575 33.9652 50.7566C34.0591 49.9427 34.153 49.8801 35.4678 49.8801H36.8765V51.1323C36.8765 52.3845 36.8765 52.3845 35.5304 52.4784C34.5913 52.541 34.153 52.4471 34.0278 52.1027Z" fill="#100341"/>
<path d="M6.16695 47.0002C6.26087 45.6854 6.35478 44.1515 6.35478 43.5567C6.35478 42.9932 6.5113 42.5237 6.66782 42.5237C6.85565 42.5237 7.01217 43.588 7.04348 44.9654C7.07478 46.3741 7.13739 46.7811 7.2 45.9672C7.38782 43.4315 7.60695 42.5237 8.07652 42.5237C8.60869 42.5237 8.6713 43.8072 8.32695 47.3132C8.17043 49.035 8.04521 49.4106 7.57565 49.4106C7.26261 49.4106 6.94956 49.1602 6.88695 48.8785C6.76174 48.3463 6.73043 48.3463 6.69913 48.8785C6.69913 49.1602 6.5113 49.4106 6.32348 49.4106C6.04174 49.4106 6.01043 48.7219 6.16695 47.0002Z" fill="#100341"/>
<path d="M43.9823 47.3132C44.0763 46.1549 44.1076 46.1236 45.4223 46.0297L46.7371 45.9358V47.188V48.4714H45.2971H43.8884L43.9823 47.3132Z" fill="#100341"/>
<path d="M47.6765 45.9044C47.6765 45.3722 47.833 44.0888 48.0522 43.087C48.3339 41.7096 48.553 41.2714 48.96 41.2714C49.3356 41.2714 49.5548 41.5844 49.6487 42.1479L49.7739 42.9931L49.8365 42.1479C49.8991 40.927 50.4939 41.0522 50.4939 42.2731C50.4939 45.0905 49.273 48.0957 48.8348 46.374C48.7096 45.8418 48.6783 45.8418 48.647 46.374C48.5843 47.407 47.6765 46.9688 47.6765 45.9044Z" fill="#100341"/>
<path d="M41.7288 42.9931C41.7288 41.7096 41.854 41.2714 42.167 41.2714C42.4175 41.2714 42.6992 41.5218 42.7618 41.8348C42.887 42.3357 42.9183 42.3357 42.9496 41.8348C42.9496 41.5218 43.2001 41.2714 43.4505 41.2714C43.8262 41.2714 43.9201 41.6783 43.9201 42.9931C43.9201 44.4957 43.8262 44.7148 43.3253 44.7148C42.9496 44.7148 42.6679 44.4644 42.574 44.0261L42.4488 43.3061L42.3862 44.0261C42.2922 45.4974 41.7288 44.6209 41.7288 42.9931Z" fill="#100341"/>
<path d="M10.4243 42.3672V40.9585H11.833H13.2417V42.3672V43.7759H11.833H10.4243V42.3672Z" fill="#100341"/>
<path d="M41.666 40.1133C41.3843 40.0507 41.0712 39.7376 41.0086 39.4559C40.8834 38.9863 40.8521 38.9863 40.8208 39.4872C40.8208 39.7689 40.5703 40.0194 40.3199 40.0194C39.913 40.0194 39.8503 39.362 39.8503 35.9498C39.8503 32.1307 39.8816 31.8802 40.4451 31.8802C40.9147 31.8802 41.1025 32.1307 41.1964 33.0698L41.3216 34.2281L41.353 33.0698C41.4156 31.9741 42.0416 31.3168 42.0416 32.3498C42.0416 32.6002 42.2295 32.8194 42.4486 32.8194C42.7303 32.8194 42.7929 33.7272 42.7303 36.5759C42.6677 38.642 42.5425 40.3011 42.4173 40.3011C42.2921 40.2698 41.9477 40.2072 41.666 40.1133Z" fill="#100341"/>
<path d="M42.981 37.2959C42.981 33.8211 43.1688 32.8193 43.7949 32.8193C44.1392 32.8193 44.2331 33.5706 44.2331 36.5759C44.2331 40.1132 44.2018 40.3324 43.607 40.3324C43.0123 40.3324 42.981 40.1132 42.981 37.2959Z" fill="#100341"/>
<path d="M27.1408 33.6333C26.7965 32.2559 27.1095 31.4733 28.1113 31.1915C28.8 31.035 29.1756 31.0976 29.52 31.442C29.9269 31.8802 29.8956 31.9742 29.1443 32.5376C28.6434 32.9133 28.2678 33.4455 28.2678 33.7898C28.2678 34.635 27.3913 34.5411 27.1408 33.6333Z" fill="#100341"/>
<path d="M11.0503 32.9758C11.0503 32.1306 11.1755 31.8801 11.6138 31.8801C11.9894 31.8801 12.1772 32.1619 12.2086 32.9758C12.3025 33.8836 12.2086 34.0714 11.6764 34.0714C11.1755 34.0714 11.0503 33.8523 11.0503 32.9758Z" fill="#100341"/>
<path d="M18.0626 32.7881C17.9061 31.9429 17.7495 31.6611 17.593 31.9429C17.3739 32.2559 17.3113 32.2246 17.3113 31.8489C17.3113 31.5672 17.5304 31.1602 17.7808 30.9411C18.1878 30.5968 18.2191 30.6281 18.0313 31.0976C17.8748 31.5672 17.9374 31.6298 18.4069 31.4733C18.9078 31.2542 18.9078 31.3168 18.5321 31.7863C18.1252 32.3185 18.1252 32.3185 18.7513 31.8176C19.0956 31.5046 19.5026 31.2542 19.5965 31.2542C19.9408 31.2542 19.8469 32.4437 19.5026 32.6629C19.3461 32.7568 19.1895 33.1324 19.1895 33.4768C19.1895 34.6663 18.2504 34.1029 18.0626 32.7881Z" fill="#100341"/>
<path d="M37.2523 26.6836C37.1271 26.5584 37.0332 25.8384 37.0332 25.0871V23.7097L38.3793 23.8036L39.6941 23.8975V25.3062C39.6941 26.6836 39.6628 26.7149 38.5984 26.8088C37.9723 26.8715 37.3775 26.8088 37.2523 26.6836Z" fill="#100341"/>
<path d="M42.668 24.5236C42.668 23.2401 42.7932 22.8019 43.1062 22.8019C43.3567 22.8019 43.6384 23.0523 43.701 23.3654C43.8262 23.8662 43.8575 23.8662 43.8888 23.3654C43.8888 23.0523 44.1393 22.8019 44.3897 22.8019C44.7654 22.8019 44.8593 23.2088 44.8593 24.5236C44.8593 25.7758 44.7341 26.2454 44.421 26.2454C44.2019 26.2454 43.8888 25.9323 43.7636 25.5567L43.5132 24.8367L43.388 25.5567C43.1375 26.8714 42.668 26.2454 42.668 24.5236Z" fill="#100341"/>
<path d="M13.8679 23.9288C13.8679 22.8958 13.9305 22.8019 14.8384 22.8019H15.7775L15.1201 23.741C14.1497 25.1184 13.8679 25.1497 13.8679 23.9288Z" fill="#100341"/>
<path d="M48.3026 23.2714C48.3026 22.4888 48.1773 21.8627 47.9895 21.8627C47.5199 21.8627 47.5826 18.8262 48.0834 18.6384C48.3026 18.5445 48.2399 18.4506 47.9269 18.4506C47.4886 18.4193 47.3634 18.6697 47.3634 19.6714C47.3634 20.8923 47.3321 20.9236 46.2678 20.9236C45.2034 20.9236 45.1721 20.8923 45.1721 19.6714C45.1721 18.701 45.2973 18.4193 45.7356 18.4193C46.1426 18.4193 46.2678 18.1375 46.2678 17.1045C46.2678 16.0088 46.393 15.7271 46.8939 15.6645C47.426 15.6019 47.5199 15.3827 47.426 14.1932C47.2695 12.3775 48.0834 12.221 48.5843 13.9427L48.8973 15.1323L48.7408 13.9741C48.6156 13.0975 48.7095 12.7845 49.0226 12.7845C49.7426 12.7845 50.4939 17.0419 50.4939 21.0801C50.4939 23.9914 50.3999 24.6801 50.0556 24.6801C49.8052 24.6801 49.5234 24.4297 49.4608 24.148C49.3356 23.6158 49.3043 23.6158 49.273 24.148C49.273 24.4297 49.0226 24.6801 48.7721 24.6801C48.4278 24.6801 48.3026 24.3045 48.3026 23.2714ZM49.7739 20.0784C49.7112 19.421 49.6486 19.8906 49.6486 21.0801C49.6486 22.301 49.7112 22.8019 49.7739 22.2697C49.8365 21.7062 49.8365 20.7045 49.7739 20.0784Z" fill="#100341"/>
<path d="M8.13911 20.5166C7.85737 19.5775 7.60693 18.0123 7.60693 17.0106C7.60693 15.101 8.13911 12.7845 8.60867 12.7845C8.73389 12.7845 8.85911 12.5653 8.85911 12.3149C8.85911 12.0645 9.01563 11.8453 9.17215 11.8453C9.35998 11.8453 9.48519 11.6575 9.48519 11.4697C9.48519 11.2506 9.82954 10.3114 10.2678 9.4349C10.8939 8.02621 11.1443 7.77577 11.8643 7.77577H12.7095L12.0835 8.49577C11.3008 9.34099 10.6435 10.5932 10.8313 10.8123C10.9252 10.8749 11.0817 10.6558 11.2069 10.2801C11.4887 9.37229 13.3356 7.33751 15.2139 5.8349C16.0591 5.17751 16.5913 4.64534 16.4348 4.64534C16.2782 4.64534 15.4017 5.30273 14.5252 6.08534C13.0226 7.43142 12.9287 7.46273 12.9287 6.74273C12.9287 5.89751 13.8052 4.95838 14.5878 4.95838C14.8695 4.95838 15.12 4.73925 15.12 4.48882C15.12 4.23838 15.4956 3.92534 15.9965 3.83143C16.4661 3.70621 16.9982 3.42447 17.1548 3.20534C17.4991 2.73577 22.4139 2.14099 25.7635 2.14099C27.4539 2.14099 27.9548 2.2349 27.9548 2.57925C27.9548 2.82969 27.7043 3.11143 27.4226 3.17403C26.8904 3.29925 26.8904 3.33056 27.4226 3.36186C27.7043 3.36186 27.9548 3.6123 27.9548 3.86273C27.9548 4.23838 27.4539 4.33229 25.3252 4.33229C21.9756 4.33229 21.6939 4.45751 21.6939 5.77229C21.6939 6.5236 21.5374 6.83664 21.193 6.83664C20.8487 6.83664 20.7548 7.02447 20.9426 7.55664C21.0365 7.93229 21.2869 8.30795 21.4121 8.33925C21.5687 8.40186 21.6939 8.99664 21.6939 9.68534C21.6939 10.8436 21.6626 10.9062 20.6608 10.9062C20.0974 10.9062 19.5026 10.781 19.3461 10.6245C19.1582 10.4679 18.6261 10.2801 18.0939 10.2175C17.0921 10.1236 16.9043 9.74795 16.4974 7.30621C16.3721 6.61751 16.2156 6.27316 16.1217 6.5236C15.84 7.46273 14.9948 8.08882 14.1182 8.08882C13.3982 8.08882 13.2417 8.21403 13.2417 8.87142C13.2417 9.30968 13.0226 10.0297 12.7408 10.4366L12.24 11.2192H13.5235H14.8382L14.7443 12.5653C14.6504 13.8801 14.6504 13.8801 13.3356 13.974C12.0208 14.0679 11.9895 14.0679 11.9582 13.0349C11.9269 12.4714 11.8643 12.2523 11.7704 12.5653C11.7078 12.8471 11.4887 13.0975 11.3322 13.0975C11.1756 13.0975 11.0504 13.2853 11.0504 13.5358C11.0504 13.7862 10.9252 14.0366 10.7687 14.0992C10.5808 14.1619 10.2991 14.8506 10.08 15.6645C9.73563 16.9166 9.76693 17.3862 10.2052 18.8262C10.4869 19.7653 10.7374 20.8923 10.7374 21.3932C10.7374 22.2384 10.7061 22.2384 10.1739 21.7375C9.67302 21.2992 8.85911 19.0766 8.42085 17.0106C8.32693 16.5723 8.29563 16.6349 8.26432 17.2297C8.26432 17.6992 8.57737 19.014 8.98433 20.141C9.64172 21.9566 9.67302 22.1758 9.20345 22.1758C8.8278 22.1758 8.48345 21.6436 8.13911 20.5166ZM10.1113 12.5966C10.4869 12.0019 10.7687 11.4384 10.6748 11.3758C10.6122 11.3132 10.2365 11.814 9.86085 12.5027C8.98432 14.0366 9.17215 14.1306 10.1113 12.5966ZM19.9095 8.49577C18.9078 6.86795 18.8139 6.77403 18.4695 7.21229C18.2817 7.49403 18.2504 7.46273 18.3756 7.08708C18.4695 6.77403 18.3443 6.08534 18.1252 5.55316C17.8121 4.77056 17.6869 4.67664 17.5304 5.1149C17.4052 5.39664 17.4678 5.89751 17.6243 6.21056C17.8121 6.5236 17.9374 7.21229 17.9374 7.74447C17.9374 8.24534 18.0626 8.74621 18.2191 8.84012C18.3756 8.96534 18.4382 8.74621 18.3443 8.40186C18.1252 7.52534 18.6887 7.61925 19.3148 8.55838C20.0035 9.62273 20.5982 9.56012 19.9095 8.49577Z" fill="#100341"/>
<path d="M40.4766 20.9236C40.4766 19.5149 41.1966 19.1392 41.5409 20.3914C41.8853 21.6749 41.76 22.1757 41.1026 22.1757C40.5705 22.1757 40.4766 21.9566 40.4766 20.9236Z" fill="#100341"/>
<path d="M42.0417 20.9237C42.0417 20.235 42.1983 19.6715 42.3548 19.6715C42.5426 19.6715 42.6678 20.235 42.6678 20.9237C42.6678 21.6124 42.5426 22.1759 42.3548 22.1759C42.1983 22.1759 42.0417 21.6124 42.0417 20.9237Z" fill="#100341"/>
<path d="M25.7009 20.0158C24.48 19.7341 23.8853 19.4524 23.8853 19.108C23.8853 18.7324 24.1983 18.6697 25.6696 18.8576C27.7044 19.108 27.7357 19.108 27.5792 19.8906C27.4853 20.4228 27.36 20.4228 25.7009 20.0158Z" fill="#100341"/>
<path d="M20.1287 19.6715C20.1287 19.1706 20.3478 19.0454 21.2243 19.0454C22.4765 19.0454 22.7582 19.7967 21.6313 20.1098C20.4417 20.4228 20.1287 20.3289 20.1287 19.6715Z" fill="#100341"/>
<path d="M39.8816 17.4176C39.6938 16.5097 39.412 14.9445 39.3181 13.9741C39.1616 12.4402 39.2242 12.1584 39.6312 12.1584C39.9442 12.1584 40.226 12.628 40.4451 13.5045L40.7894 14.8193L40.6329 13.5045C40.5077 12.5341 40.5703 12.1584 40.8834 12.1584C41.2903 12.1584 42.3547 16.6976 42.3547 18.3567C42.3547 19.4524 41.8851 19.1706 41.5094 17.8871L41.1651 16.6976L41.3216 17.8871C41.4468 18.8889 41.4155 19.0454 40.8834 19.0454C40.4138 19.0454 40.1947 18.7011 39.8816 17.4176Z" fill="#100341"/>
<path d="M11.2694 16.9479C11.1442 16.854 11.0503 16.2905 11.0503 15.6958C11.0503 14.694 11.0816 14.6627 12.3025 14.6627H13.5546V15.9149C13.5546 17.1358 13.5233 17.1671 12.5216 17.1671C11.9268 17.1671 11.3633 17.0732 11.2694 16.9479Z" fill="#100341"/>
<path d="M30.24 15.1011C29.9895 15.0071 29.833 14.3498 29.833 13.5358V12.1584H31.4295H32.9947L32.9008 13.6611C32.8069 15.1011 32.7756 15.1324 31.7113 15.195C31.1165 15.2263 30.4278 15.195 30.24 15.1011Z" fill="#100341"/>
<path d="M34.2157 12.0332C34.2157 11.7828 33.9026 11.5324 33.527 11.4697C32.9009 11.3758 32.807 11.1567 32.7131 9.90453L32.6191 8.40192H33.7148C34.8104 8.40192 34.8418 8.37061 34.8418 7.24366V6.1167L35.5304 6.71148C36.1252 7.24366 36.1878 7.24366 36 6.77409C35.8435 6.36714 35.9687 6.21061 36.407 6.21061C36.7513 6.21061 37.0331 6.05409 37.0331 5.83496C37.0331 5.64714 37.3774 5.80366 37.8157 6.21061C38.2226 6.58627 38.5044 7.02453 38.4418 7.18105C38.3478 7.30627 38.4104 7.49409 38.5983 7.61931C38.7548 7.71322 38.9113 8.08887 38.9113 8.46453C38.9113 9.05931 38.8487 9.05931 37.7844 8.2454C36.5635 7.30627 36.4383 7.33757 36.2191 8.52713C36.1565 8.9654 35.9374 9.6854 35.7809 10.1237C35.5931 10.6558 35.5931 10.875 35.7809 10.7497C35.9374 10.6558 36.2191 9.99844 36.407 9.34105C36.5948 8.65235 36.8452 8.08887 37.0017 8.08887C37.127 8.08887 37.6278 8.52714 38.1287 9.028C38.9739 9.90453 38.9739 9.96713 38.3791 9.96713C37.9409 9.96713 37.6278 10.2176 37.4713 10.6871C37.3774 11.0628 37.0644 11.6263 36.7826 11.9393C36.1878 12.5967 34.2157 12.6906 34.2157 12.0332Z" fill="#100341"/>
<path d="M27.0783 9.43495C27.1722 8.12017 27.2661 7.93235 27.9235 7.83843C28.2992 7.77582 28.9879 7.80713 29.4261 7.93235C30.0835 8.08887 30.1774 8.24539 30.0835 9.43495L29.9896 10.7497L28.487 10.8436L26.9844 10.9376L27.0783 9.43495Z" fill="#100341"/>
<path d="M42.5741 7.30633C42.3862 6.83677 39.9445 4.95851 39.5062 4.95851C39.381 4.95851 39.2245 5.39677 39.1619 5.89764L39.068 6.86807L38.0662 5.92894L37.0332 4.98981L38.0662 4.86459L39.068 4.73938L38.0662 4.70807C37.2523 4.64546 37.0332 4.52025 37.0332 4.01938C37.0332 3.54981 37.2523 3.39329 37.9097 3.36198C38.5358 3.33068 38.5984 3.29938 38.1289 3.17416C37.7845 3.08025 37.3776 2.86112 37.1897 2.70459C36.9706 2.48546 37.5654 2.42285 39.0367 2.54807C42.5741 2.86112 45.0158 4.70807 44.7967 6.89938L44.7028 7.93242L44.0767 6.68024C43.3567 5.20894 40.821 3.39329 39.5689 3.42459C38.8176 3.4559 38.8176 3.4559 39.7254 3.70633C41.8228 4.1759 43.9202 5.96025 43.9202 7.21242C43.9202 7.90111 42.8245 7.96372 42.5741 7.30633Z" fill="#100341"/>
<path d="M38.6922 76.1133C38.2852 76.0507 37.9722 75.8628 37.9722 75.7063C37.9722 75.2368 38.6296 74.9863 39.0052 75.362C39.193 75.5498 39.9443 75.7063 40.6956 75.7063C42.0104 75.7063 42.0417 75.7063 42.0417 74.6107C42.0417 74.0159 42.1983 73.515 42.3548 73.515C42.5426 73.515 42.6678 74.1411 42.6678 74.9237V76.3324L41.04 76.3011C40.1322 76.2698 39.0678 76.1759 38.6922 76.1133Z" fill="#360094"/>
<path d="M33.9023 75.7064C33.9023 75.5498 34.4658 75.3933 35.1545 75.3933C35.8432 75.3933 36.4067 75.5498 36.4067 75.7064C36.4067 75.8942 35.8432 76.0194 35.1545 76.0194C34.4658 76.0194 33.9023 75.8942 33.9023 75.7064Z" fill="#360094"/>
<path d="M29.207 75.3932C29.207 75.2367 29.7705 75.0802 30.4592 75.0802C31.1479 75.0802 31.7114 75.2367 31.7114 75.3932C31.7114 75.5811 31.1479 75.7063 30.4592 75.7063C29.7705 75.7063 29.207 75.5811 29.207 75.3932Z" fill="#360094"/>
<path d="M24.1982 75.0801C24.1982 74.9236 24.7617 74.7671 25.4504 74.7671C26.1391 74.7671 26.7026 74.9236 26.7026 75.0801C26.7026 75.268 26.1391 75.3932 25.4504 75.3932C24.7617 75.3932 24.1982 75.268 24.1982 75.0801Z" fill="#360094"/>
<path d="M39.4747 75.1739C39.193 75.1113 38.7547 74.5792 38.473 73.9844C37.8782 72.7635 37.8469 72.5757 38.2852 72.5757C38.473 72.5757 38.5982 72.8574 38.5982 73.2018C38.5982 73.7966 38.7234 73.8279 40.1634 73.64L41.7286 73.4209V74.4226C41.7286 75.2679 41.6347 75.3931 40.8834 75.3618C40.3825 75.3305 39.7878 75.2679 39.4747 75.1739Z" fill="#360094"/>
<path d="M19.5027 74.7671C19.5027 74.6106 20.0662 74.4541 20.7549 74.4541C21.4436 74.4541 22.007 74.6106 22.007 74.7671C22.007 74.955 21.4436 75.0802 20.7549 75.0802C20.0662 75.0802 19.5027 74.955 19.5027 74.7671Z" fill="#360094"/>
<path d="M34.1219 74.861C34.028 74.7045 33.8714 73.5775 33.7462 72.3566L33.5271 70.0714H34.9671C36.3445 70.0714 36.3758 70.1027 36.5949 71.261C36.7201 71.8871 36.9393 72.4818 37.0645 72.5758C37.221 72.701 37.4088 73.2018 37.5341 73.734C37.6906 74.6105 37.628 74.7045 36.7201 74.8923C35.3741 75.1427 34.2784 75.1427 34.1219 74.861Z" fill="#360094"/>
<path d="M14.4941 74.454C14.4941 74.2975 15.1202 74.141 15.9028 74.141C16.6854 74.141 17.3115 74.2975 17.3115 74.454C17.3115 74.6419 16.6854 74.7671 15.9028 74.7671C15.1202 74.7671 14.4941 74.6419 14.4941 74.454Z" fill="#360094"/>
<path d="M29.4262 74.548C29.3009 74.4541 29.207 74.0784 29.207 73.7654C29.207 73.3271 29.4575 73.2019 30.4592 73.2019C31.5862 73.2019 31.7114 73.2958 31.7114 73.9845C31.7114 74.6732 31.5862 74.7671 30.6783 74.7671C30.0836 74.7671 29.5201 74.6732 29.4262 74.548Z" fill="#360094"/>
<path d="M9.79834 74.141C9.79834 73.9845 10.3618 73.828 11.0505 73.828C11.7392 73.828 12.3027 73.9845 12.3027 74.141C12.3027 74.3289 11.7392 74.4541 11.0505 74.4541C10.3618 74.4541 9.79834 74.3289 9.79834 74.141Z" fill="#360094"/>
<path d="M24.4174 74.2349C24.2922 74.141 24.1982 73.7653 24.1982 73.4523C24.1982 73.014 24.4487 72.8888 25.4504 72.8888C26.5774 72.8888 26.7026 72.9827 26.7026 73.6714C26.7026 74.3601 26.5774 74.454 25.6695 74.454C25.0748 74.454 24.5113 74.3601 24.4174 74.2349Z" fill="#360094"/>
<path d="M4.78955 73.8281C4.78955 73.6715 5.35303 73.515 6.04172 73.515C6.73042 73.515 7.2939 73.6715 7.2939 73.8281C7.2939 74.0159 6.73042 74.1411 6.04172 74.1411C5.35303 74.1411 4.78955 74.0159 4.78955 73.8281Z" fill="#360094"/>
<path d="M19.7218 73.9218C19.5966 73.8279 19.5027 73.4522 19.5027 73.1392C19.5027 72.7009 19.7531 72.5757 20.7549 72.5757C21.8818 72.5757 22.007 72.6696 22.007 73.3583C22.007 74.047 21.8818 74.1409 20.974 74.1409C20.3792 74.1409 19.8157 74.047 19.7218 73.9218Z" fill="#360094"/>
<path d="M1.34619 71.9497C1.34619 70.2279 1.4088 70.0714 2.03489 70.0714C2.56706 70.0714 2.62967 70.1653 2.34793 70.4471C2.1288 70.6662 1.97228 71.3549 1.97228 72.0123C1.97228 73.0766 2.06619 73.2018 2.75489 73.2018C3.19315 73.2018 3.5375 73.3584 3.5375 73.5149C3.5375 73.7027 3.03663 73.8279 2.44184 73.8279H1.34619V71.9497Z" fill="#360094"/>
<path d="M14.9011 73.6089C14.682 73.5463 14.4941 73.2019 14.4941 72.8576C14.4941 72.3567 14.7133 72.2628 15.9028 72.2628C17.1863 72.2628 17.3115 72.3254 17.3115 73.0454C17.3115 73.7341 17.1863 73.828 16.3098 73.7967C15.7463 73.7967 15.0889 73.7028 14.9011 73.6089Z" fill="#360094"/>
<path d="M10.0175 73.2958C9.89225 73.2019 9.79834 72.8262 9.79834 72.5132C9.79834 72.0749 10.0488 71.9497 11.0505 71.9497C12.1775 71.9497 12.3027 72.0436 12.3027 72.7323C12.3027 73.421 12.1775 73.5149 11.2696 73.5149C10.6749 73.5149 10.1114 73.421 10.0175 73.2958Z" fill="#360094"/>
<path d="M5.19646 72.9827C4.97733 72.9201 4.7895 72.5757 4.7895 72.2314C4.7895 71.9183 4.60168 71.6366 4.35124 71.6366C4.10081 71.6366 3.81907 71.4488 3.75646 71.2609C3.66255 71.0418 3.56863 71.3235 3.56863 71.887C3.53733 72.6696 3.41211 72.8888 2.91124 72.8888C2.44168 72.8888 2.28516 72.6696 2.28516 71.9809C2.28516 70.9166 3.41211 69.8835 4.00689 70.3844C4.22603 70.5722 4.7895 70.5096 5.54081 70.2592C6.51124 69.9149 6.60515 69.8209 6.10429 69.6957C5.75994 69.6018 5.29037 69.6331 5.10255 69.7583C4.69559 70.0088 3.53733 69.4766 3.53733 69.0696C3.53733 68.9131 3.81907 68.8192 4.16342 68.8192C4.50776 68.8192 4.7895 68.694 4.7895 68.5062C4.7895 68.3496 5.29037 68.1931 5.88516 68.1931C6.9495 68.1931 6.98081 68.2244 6.98081 69.414C6.98081 70.134 6.76168 70.854 6.47994 71.1357C6.04168 71.6053 6.04168 71.6366 6.63646 71.6366C7.13733 71.6366 7.29385 71.8244 7.29385 72.4192C7.29385 73.0766 7.13733 73.2018 6.44863 73.1705C5.94776 73.1705 5.38429 73.0766 5.19646 72.9827Z" fill="#360094"/>
<path d="M13.2417 70.3846C13.2417 69.1638 13.273 69.1324 14.3374 69.1324C15.433 69.1324 15.433 69.1324 15.4017 70.4785C15.3704 71.1985 15.3078 71.5429 15.2139 71.2611C15.0574 70.5724 14.1808 70.5098 14.1808 71.1672C14.1808 71.4177 13.9617 71.6368 13.7113 71.6368C13.3669 71.6368 13.2417 71.2924 13.2417 70.3846Z" fill="#360094"/>
<path d="M8.79663 70.7914C8.38968 70.6975 8.23315 70.3219 8.23315 69.5706V68.5062H9.9862H11.7079L11.614 69.6958C11.5201 70.7914 11.4575 70.8541 10.4245 70.9167C9.82968 70.9167 9.07837 70.8854 8.79663 70.7914ZM10.4245 69.2575C10.4245 68.7567 9.92359 68.6627 9.64185 69.1323C9.39141 69.5393 9.76707 70.1341 10.1427 69.9149C10.2992 69.7897 10.4245 69.508 10.4245 69.2575Z" fill="#360094"/>
<path d="M39.8503 69.101C39.8503 68.6001 40.0069 68.4749 40.6956 68.5688C41.2277 68.6314 41.6034 68.8819 41.666 69.2262C41.7599 69.6332 41.5721 69.7584 40.8208 69.7584C40.0382 69.7584 39.8503 69.6332 39.8503 69.101Z" fill="#360094"/>
<path d="M42.0416 68.9758C42.0416 68.2871 41.9164 68.1932 40.946 68.1932C40.3512 68.1932 39.8503 68.068 39.8503 67.8802C39.8503 67.7237 40.4138 67.5671 41.1025 67.5671C42.3234 67.5671 42.3547 67.5984 42.3547 68.6628C42.3547 69.2576 42.2921 69.7584 42.1982 69.7584C42.1043 69.7584 42.0416 69.4141 42.0416 68.9758Z" fill="#360094"/>
<path d="M11.3635 67.2542C11.3635 66.5968 11.8644 66.4716 13.1792 66.8159C14.4 67.1603 14.0244 67.8803 12.6157 67.8803C11.5827 67.8803 11.3635 67.7864 11.3635 67.2542Z" fill="#360094"/>
<path d="M6.66797 66.9411C6.66797 66.2837 7.16884 66.1585 8.48362 66.5028C9.70449 66.8472 9.32884 67.5672 7.92014 67.5672C6.8871 67.5672 6.66797 67.4733 6.66797 66.9411Z" fill="#360094"/>
<path d="M35.781 66.4401C35.781 66.0644 35.9688 65.9705 36.501 66.127C36.8767 66.2209 37.3775 66.3148 37.5967 66.3148C37.7845 66.3148 37.9723 66.4714 37.9723 66.6279C37.9723 66.8157 37.4714 66.9409 36.8767 66.9409C36.0627 66.9409 35.781 66.8157 35.781 66.4401Z" fill="#360094"/>
<path d="M11.3635 66.0019C11.3635 65.8454 11.927 65.6888 12.6157 65.6888C13.3044 65.6888 13.8679 65.8454 13.8679 66.0019C13.8679 66.1897 13.3044 66.3149 12.6157 66.3149C11.927 66.3149 11.3635 66.1897 11.3635 66.0019Z" fill="#360094"/>
<path d="M6.66797 65.6889C6.66797 65.5324 7.23145 65.3759 7.92014 65.3759C8.60884 65.3759 9.17232 65.5324 9.17232 65.6889C9.17232 65.8767 8.60884 66.0019 7.92014 66.0019C7.23145 66.0019 6.66797 65.8767 6.66797 65.6889Z" fill="#360094"/>
<path d="M21.3806 65.5636C21.3806 65.3132 21.6311 65.0314 21.9441 64.9688C22.445 64.8436 22.445 64.8123 21.9441 64.781C21.6311 64.781 21.3806 64.5305 21.3806 64.2801C21.3806 63.9045 21.7876 63.8105 23.1024 63.8105C24.605 63.8105 24.8241 63.9045 24.8241 64.4053C24.8241 64.8749 24.5737 65.0627 23.8224 65.1566L22.7893 65.2818L23.8224 65.3132C25.5441 65.4071 24.918 66.0019 23.1024 66.0019C21.8189 66.0019 21.3806 65.8766 21.3806 65.5636Z" fill="#360094"/>
<path d="M36.3444 65.7514C35.2801 65.5322 35.7183 64.7496 36.8766 64.7496C37.7531 64.7496 37.9723 64.8748 37.9723 65.3444C37.9723 65.9392 37.6592 66.0331 36.3444 65.7514Z" fill="#360094"/>
<path d="M16.6851 65.2506C16.6851 65.0002 16.9355 64.7184 17.2485 64.6558C17.7494 64.5306 17.7494 64.4993 17.2485 64.468C16.9355 64.468 16.6851 64.2176 16.6851 63.9671C16.6851 63.6228 17.0607 63.4976 18.2503 63.4976C19.5964 63.4976 19.8155 63.5915 19.8155 64.0923C19.8155 64.5306 19.5651 64.7497 18.9703 64.8436L18.0938 64.9689L18.9703 65.0315C20.4729 65.0941 19.8781 65.6889 18.2503 65.6889C17.092 65.6889 16.6851 65.5636 16.6851 65.2506Z" fill="#360094"/>
<path d="M29.52 63.8105C29.52 63.3097 29.7392 63.1844 30.5531 63.1844C32.0244 63.1844 32.9635 63.4975 32.9635 63.9984C32.9635 64.3114 32.4939 64.4366 31.2418 64.4366C29.7391 64.4366 29.52 64.374 29.52 63.8105Z" fill="#360094"/>
<path d="M12.6155 62.8714C12.6155 62.3706 12.8346 62.2454 13.6485 62.2454C15.1198 62.2454 16.059 62.5584 16.059 63.0593C16.059 63.3723 15.5894 63.4975 14.3372 63.4975C12.8346 63.4975 12.6155 63.4349 12.6155 62.8714Z" fill="#360094"/>
<path d="M29.52 62.5584C29.52 62.4019 30.3026 62.2454 31.2418 62.2454C32.1809 62.2454 32.9635 62.4019 32.9635 62.5584C32.9635 62.7462 32.1809 62.8714 31.2418 62.8714C30.3026 62.8714 29.52 62.7462 29.52 62.5584Z" fill="#360094"/>
<path d="M12.6155 61.6193C12.6155 61.4628 13.3981 61.3063 14.3372 61.3063C15.2763 61.3063 16.059 61.4628 16.059 61.6193C16.059 61.8071 15.2763 61.9324 14.3372 61.9324C13.3981 61.9324 12.6155 61.8071 12.6155 61.6193Z" fill="#360094"/>
<path d="M44.5463 60.5237C45.548 59.9602 45.7985 59.9602 45.7985 60.5237C45.7985 60.8367 45.4854 60.9932 44.7967 60.9932L43.7637 60.9619L44.5463 60.5237Z" fill="#360094"/>
<path d="M42.981 59.5844C42.981 58.4888 42.981 58.4888 44.3897 58.4888C46.2053 58.4888 46.2679 59.1775 44.5462 60.054C43.8888 60.3983 43.2314 60.6801 43.1375 60.6801C43.0436 60.6801 42.981 60.1792 42.981 59.5844Z" fill="#360094"/>
<path d="M39.2244 58.6766C39.2244 57.7375 39.3496 57.5497 39.8818 57.5497C40.4139 57.5497 40.5078 57.7062 40.4139 58.5514C40.3513 59.2401 40.1322 59.6158 39.7878 59.6784C39.3183 59.7723 39.2244 59.5532 39.2244 58.6766Z" fill="#360094"/>
<path d="M40.7896 58.6453C40.7896 58.0506 40.9461 57.5497 41.1026 57.5497C41.2904 57.5497 41.4156 58.0506 41.4156 58.6453C41.4156 59.2401 41.2904 59.741 41.1026 59.741C40.9461 59.741 40.7896 59.2401 40.7896 58.6453Z" fill="#360094"/>
<path d="M48.5531 58.4264C48.7722 58.2072 48.9287 57.7377 48.9287 57.3307C48.9287 56.9238 49.0853 56.6107 49.2418 56.6107C49.4296 56.6107 49.5548 57.1116 49.5548 57.7064C49.5548 58.6142 49.4296 58.802 48.8661 58.802C48.334 58.802 48.2713 58.7081 48.5531 58.4264Z" fill="#360094"/>
<path d="M47.3635 57.5498C47.3635 56.8298 47.4887 56.6107 47.9896 56.6107C48.7096 56.6107 48.8348 57.5185 48.24 58.1133C47.6453 58.7081 47.3635 58.5516 47.3635 57.5498Z" fill="#360094"/>
<path d="M39.5376 54.5758C39.5376 53.3862 39.6315 53.1671 40.1637 53.1671C40.8211 53.1671 40.9776 53.8871 40.6019 55.2958C40.2576 56.5793 39.5376 56.1097 39.5376 54.5758Z" fill="#360094"/>
<path d="M41.1028 54.5758C41.1028 53.7932 41.2593 53.1671 41.4158 53.1671C41.6037 53.1671 41.7289 53.7932 41.7289 54.5758C41.7289 55.3584 41.6037 55.9845 41.4158 55.9845C41.2593 55.9845 41.1028 55.3584 41.1028 54.5758Z" fill="#360094"/>
<path d="M6.04175 51.602C6.04175 50.9133 6.19827 50.3499 6.35479 50.3499C6.54262 50.3499 6.66783 50.9133 6.66783 51.602C6.66783 52.2907 6.54262 52.8542 6.35479 52.8542C6.19827 52.8542 6.04175 52.2907 6.04175 51.602Z" fill="#360094"/>
<path d="M7.16883 52.1655C6.82449 50.8507 6.9497 50.3499 7.6071 50.3499C8.13927 50.3499 8.23318 50.569 8.23318 51.602C8.23318 53.0107 7.51318 53.3864 7.16883 52.1655Z" fill="#360094"/>
<path d="M39.8503 52.3218C39.8503 52.0088 39.7564 51.007 39.6624 50.1305C39.4746 48.7531 39.5372 48.4714 39.9442 48.4714C40.2259 48.4714 40.539 48.9409 40.7581 49.6609L41.0711 50.8192L41.0085 49.6609C40.8833 48.1896 41.572 48.0331 41.8537 49.4418C42.1981 51.2262 42.0729 52.854 41.6033 52.854C41.3529 52.854 41.0711 52.6036 41.0085 52.3218C40.8833 51.7896 40.852 51.7896 40.8207 52.3218C40.8207 52.6036 40.5703 52.854 40.3198 52.854C40.0694 52.854 39.8503 52.6036 39.8503 52.3218Z" fill="#360094"/>
<path d="M6.16688 48.1271C6.26079 47.0628 6.3547 45.8419 6.3547 45.4663C6.3547 45.0593 6.51122 44.715 6.66774 44.715C7.01209 44.715 7.0747 47.0628 6.79296 48.8784C6.44861 50.8506 5.91644 50.2245 6.16688 48.1271Z" fill="#360094"/>
<path d="M7.13724 48.2524C7.45028 45.3724 7.6381 44.715 8.10767 44.715C8.60854 44.715 8.63984 45.2784 8.35811 48.1271C8.17028 49.7237 8.04506 50.0367 7.54419 50.0367C6.98071 50.0367 6.94941 49.8802 7.13724 48.2524Z" fill="#360094"/>
<path d="M44.0139 48.9098C43.7948 48.8159 43.6069 48.2524 43.6069 47.6576V46.5933H45.2035H46.7687L46.6748 47.7828C46.5808 48.8785 46.5182 48.9411 45.4852 49.0037C44.8904 49.035 44.2017 49.0037 44.0139 48.9098Z" fill="#360094"/>
<path d="M47.6765 45.2785C47.6765 44.9028 47.833 43.7759 48.0522 42.7741C48.3339 41.3655 48.553 40.9585 48.9913 40.9585C49.68 40.9585 49.68 41.0524 49.0539 43.8072C48.7409 45.2159 48.4278 45.9672 48.1148 45.9672C47.8643 45.9672 47.6765 45.6541 47.6765 45.2785Z" fill="#360094"/>
<path d="M49.5236 43.4628C49.9931 41.0523 50.494 40.1445 50.494 41.6784C50.494 43.1184 49.774 45.9671 49.3984 45.9671C49.1166 45.9671 49.1479 45.341 49.5236 43.4628Z" fill="#360094"/>
<path d="M41.7288 43.9323C41.7288 43.1497 41.854 42.8367 42.2296 42.8367C42.574 42.8367 42.6679 42.9932 42.5427 43.3375C42.4488 43.6193 42.3548 44.0888 42.3548 44.4332C42.3548 44.7462 42.2296 45.028 42.0418 45.028C41.8853 45.028 41.7288 44.5271 41.7288 43.9323Z" fill="#360094"/>
<path d="M42.668 44.6524C42.668 43.7133 43.0749 42.8368 43.4819 42.8368C43.7323 42.8368 43.9201 42.555 43.9201 42.2107C43.9201 41.8663 43.701 41.5846 43.4506 41.5846C42.9497 41.5846 42.8245 40.4576 43.1688 39.1742C43.4819 38.0159 44.2332 38.2976 44.2332 39.5498C44.2332 40.1759 44.3897 40.6455 44.5775 40.6455C44.7967 40.6455 45.141 40.8959 45.3601 41.2089C45.7671 41.7098 45.7671 41.7098 45.7984 41.2089C45.7984 40.8959 46.0175 40.6455 46.268 40.6455C46.581 40.6455 46.7375 40.9898 46.7375 41.7411C46.7375 42.8368 46.7375 42.8368 45.3288 42.8368C43.9201 42.8368 43.9201 42.8368 43.9201 43.9324C43.9201 44.8089 43.7949 45.0281 43.2941 45.0281C42.9497 45.0281 42.668 44.8402 42.668 44.6524Z" fill="#360094"/>
<path d="M39.5376 41.1149C39.5376 39.9253 39.6315 39.7062 40.1637 39.7062C40.8211 39.7062 40.9776 40.4262 40.6019 41.8349C40.2576 43.1184 39.5376 42.6488 39.5376 41.1149Z" fill="#360094"/>
<path d="M41.1028 41.1149C41.1028 40.3323 41.2593 39.7062 41.4158 39.7062C41.6037 39.7062 41.7289 40.3323 41.7289 41.1149C41.7289 41.8975 41.6037 42.5236 41.4158 42.5236C41.2593 42.5236 41.1028 41.8975 41.1028 41.1149Z" fill="#360094"/>
<path d="M42.0417 40.0193C42.0417 39.1741 42.1983 38.4541 42.3548 38.4541C42.5426 38.4541 42.6678 39.1741 42.6678 40.0193C42.6678 40.8958 42.5426 41.5845 42.3548 41.5845C42.1983 41.5845 42.0417 40.8958 42.0417 40.0193Z" fill="#360094"/>
<path d="M7.2937 32.1933C7.2937 30.722 7.41892 29.689 7.60674 29.689C7.79457 29.689 7.91979 30.722 7.91979 32.1933C7.91979 33.6646 7.79457 34.6977 7.60674 34.6977C7.41892 34.6977 7.2937 33.6646 7.2937 32.1933Z" fill="#360094"/>
<path d="M8.23315 32.1933C8.23315 29.9081 8.29576 29.689 8.85924 29.689C9.42272 29.689 9.48533 29.9081 9.48533 32.1933C9.48533 34.4785 9.42272 34.6977 8.85924 34.6977C8.29576 34.6977 8.23315 34.4785 8.23315 32.1933Z" fill="#360094"/>
<path d="M39.8503 32.5063C39.8503 31.4733 39.9443 31.2542 40.4764 31.2542C41.1338 31.2542 41.259 31.755 40.9147 33.0698C40.5703 34.2907 39.8503 33.915 39.8503 32.5063Z" fill="#360094"/>
<path d="M41.4155 32.5063C41.4155 31.8176 41.572 31.2542 41.7286 31.2542C41.9164 31.2542 42.0416 31.8176 42.0416 32.5063C42.0416 33.195 41.9164 33.7585 41.7286 33.7585C41.572 33.7585 41.4155 33.195 41.4155 32.5063Z" fill="#360094"/>
<path d="M47.9897 24.8367C47.9897 23.9602 48.115 23.7411 48.6158 23.7411C49.2419 23.7411 49.4297 24.4298 49.0541 25.4315C48.6784 26.3707 47.9897 25.995 47.9897 24.8367Z" fill="#360094"/>
<path d="M49.5549 24.8367C49.5549 24.242 49.7115 23.7411 49.868 23.7411C50.0558 23.7411 50.181 24.242 50.181 24.8367C50.181 25.4315 50.0558 25.9324 49.868 25.9324C49.7115 25.9324 49.5549 25.4315 49.5549 24.8367Z" fill="#360094"/>
<path d="M40.4766 22.802C40.4766 20.8924 40.5705 20.2976 40.9148 20.2976C41.4157 20.2976 41.7287 21.2367 41.7287 22.802C41.7287 24.3672 41.4157 25.3063 40.9148 25.3063C40.5705 25.3063 40.4766 24.7115 40.4766 22.802Z" fill="#360094"/>
<path d="M42.0417 22.802C42.0417 21.3307 42.167 20.2976 42.3548 20.2976C42.5426 20.2976 42.6678 21.3307 42.6678 22.802C42.6678 24.2733 42.5426 25.3063 42.3548 25.3063C42.167 25.3063 42.0417 24.2733 42.0417 22.802Z" fill="#360094"/>
<path d="M8.13911 20.2037C7.85737 19.2646 7.60693 17.9498 7.60693 17.2924C7.60693 15.6959 8.38954 12.6907 8.8278 12.5342C9.01563 12.4716 9.17215 12.2211 9.17215 11.9707C9.17215 11.7203 9.32867 11.5324 9.48519 11.5324C9.67302 11.5324 9.79824 11.2507 9.79824 10.9063C9.79824 10.562 10.0174 10.2803 10.2678 10.2803C10.5808 10.2803 10.7374 9.96721 10.7374 9.34113C10.7374 8.84026 10.8939 8.402 11.0504 8.402C11.2382 8.402 11.3635 8.21417 11.3635 7.99504C11.3635 7.33765 12.7408 6.21069 13.5548 6.21069C14.2748 6.21069 14.2122 6.30461 12.8974 7.7133C11.1756 9.49765 8.70259 14.2872 8.42085 16.4159C8.26432 17.5742 8.35824 18.4194 8.85911 19.7968C9.61041 21.9881 9.57911 21.8629 9.07824 21.8629C8.85911 21.8629 8.42085 21.1116 8.13911 20.2037Z" fill="#360094"/>
<path d="M9.86082 21.3306C9.7043 21.0176 9.32865 20.0158 9.04691 19.108C8.57734 17.7619 8.54604 17.1984 8.82778 15.8524C9.04691 14.9758 9.48517 13.7863 9.82952 13.1915C10.1739 12.628 10.8939 11.3445 11.3947 10.3115C12.0521 8.99671 12.9286 7.93236 14.3686 6.71149C15.4956 5.74106 16.56 4.95845 16.7165 4.95845C17.1234 4.95845 17.7182 6.52367 17.6556 7.40019C17.6556 7.80714 17.8121 8.43323 18 8.80888C18.3756 9.49758 18.3756 9.46627 18.5947 8.55845C18.7826 7.68193 18.8139 7.65062 19.033 8.30801C19.1582 8.68367 19.5965 9.21584 20.0347 9.52888C20.473 9.81062 20.7547 9.90453 20.6921 9.74801C20.5982 9.6228 20.3478 9.02801 20.1286 8.49584C19.8782 7.93236 19.5652 7.4628 19.44 7.4628C19.2208 7.4628 18.2504 5.83497 18.2504 5.45932C18.2504 5.39671 18.5008 5.24019 18.8139 5.17758C19.3147 5.05236 19.3147 5.02106 18.8139 4.98975C18.1565 4.95845 18.0626 4.14454 18.6573 3.92541C18.8765 3.83149 18.8139 3.73758 18.5008 3.73758C18.1878 3.70628 17.9373 3.51845 17.9373 3.26801C17.9373 2.89236 20.3165 2.4541 22.5078 2.4541C23.5408 2.4541 23.4469 3.01758 22.4139 3.1741L21.5373 3.29932L22.4139 3.36193C23.5721 3.42454 23.666 4.64541 22.4765 4.64541C21.8504 4.64541 21.6939 4.80193 21.6939 5.42801C21.6939 5.99149 21.5373 6.21062 21.0678 6.21062C20.5982 6.21062 20.4417 6.42975 20.4417 6.99323C20.4417 7.4941 20.6295 7.77584 20.9113 7.77584C21.2243 7.77584 21.3808 8.08888 21.3808 8.80888C21.3808 10.4993 21.0678 10.7184 19.0017 10.4367C16.9982 10.1863 16.6852 9.96714 16.6852 8.65236C16.6852 7.33758 16.3721 6.83671 15.5582 6.83671C14.9634 6.83671 14.8069 6.99323 14.8069 7.58801C14.8069 8.05758 14.4313 8.65236 13.8678 9.12193C13.3669 9.56019 12.9286 10.0611 12.9286 10.2489C12.9286 10.4367 12.7095 10.5932 12.4591 10.5932C12.146 10.5932 11.9895 10.9063 11.9895 11.5324C11.9895 12.0645 11.8643 12.4715 11.6765 12.4715C11.52 12.4715 11.3634 12.7532 11.3634 13.0976C11.3634 13.4419 11.2382 13.7237 11.113 13.7237C10.9565 13.7237 10.5808 14.475 10.2678 15.3828C9.7356 16.9793 9.73561 17.1671 10.2052 18.5758C10.8 20.2663 10.8939 21.8628 10.4243 21.8628C10.2678 21.8628 10.0173 21.6124 9.86082 21.3306ZM21.0052 3.48714C20.6921 3.42454 20.1286 3.42454 19.753 3.48714C19.346 3.54975 19.5965 3.61236 20.2852 3.61236C20.9739 3.64367 21.2869 3.58106 21.0052 3.48714Z" fill="#360094"/>
<path d="M45.3912 20.3914C45.266 20.2975 45.1721 19.6401 45.1721 18.9827C45.1721 18.1375 45.2973 17.7932 45.6417 17.7932C45.986 17.7932 46.1112 17.4175 46.1112 16.3845C46.1112 15.1949 46.2052 14.9758 46.7373 14.9758C47.2069 14.9758 47.3634 14.7567 47.3634 14.1932C47.3634 13.254 48.146 13.1288 48.3965 14.068C48.4904 14.4123 48.4904 15.4767 48.3965 16.4158C48.2399 17.8558 48.3026 18.1062 48.7408 18.1062C49.0226 18.1062 49.2417 18.2314 49.2417 18.388C49.2417 18.5445 49.3356 18.8888 49.4295 19.1706C49.5547 19.5149 49.4608 19.6714 49.1165 19.6714C48.8347 19.6714 48.6156 19.8906 48.6156 20.141C48.6156 20.4853 48.2399 20.6106 47.113 20.6106C46.2678 20.6106 45.4852 20.5167 45.3912 20.3914Z" fill="#360094"/>
<path d="M49.8679 20.0784C49.8679 19.7653 49.774 19.2019 49.6801 18.8262C49.5236 18.294 49.6175 18.1062 49.9932 18.1062C50.3688 18.1062 50.494 18.4192 50.494 19.3584C50.494 20.0471 50.3688 20.6105 50.181 20.6105C50.0245 20.6105 49.8679 20.3601 49.8679 20.0784Z" fill="#360094"/>
<path d="M39.8503 17.7306C39.6625 16.8228 39.412 15.3202 39.3181 14.4437C39.1616 13.0663 39.2242 12.7845 39.6312 12.7845C39.9755 12.7845 40.1947 13.1915 40.3512 13.9741C40.4451 14.6002 40.7268 15.915 40.9773 16.8854C41.5407 19.1706 41.5407 19.3585 40.8207 19.3585C40.3512 19.3585 40.132 19.0141 39.8503 17.7306Z" fill="#360094"/>
<path d="M41.979 19.0454C40.9773 16.6037 40.3825 12.7845 41.0086 12.7845C41.2277 12.7845 41.4156 13.0663 41.4156 13.4419C41.4156 13.8176 41.6347 14.9445 41.9164 15.9776C42.3547 17.7619 42.4173 20.1411 41.979 19.0454Z" fill="#360094"/>
<path d="M11.0503 15.7585V14.3499H12.3025C13.492 14.3499 13.5546 14.4125 13.5546 15.2577C13.5546 16.7916 13.2729 17.1672 12.1146 17.1672C11.0503 17.1672 11.0503 17.1359 11.0503 15.7585Z" fill="#360094"/>
<path d="M48.8663 14.5063C48.7724 13.755 48.8663 13.4106 49.148 13.4106C49.3984 13.4106 49.555 13.8176 49.555 14.5063C49.555 15.1011 49.4298 15.6019 49.2732 15.6019C49.1167 15.6019 48.9289 15.1011 48.8663 14.5063Z" fill="#360094"/>
<path d="M36.094 5.74098C36.094 5.49055 35.8122 5.27142 35.4679 5.27142C35.0296 5.27142 34.8418 5.05229 34.8418 4.61403C34.8418 4.01925 34.9357 4.05055 36.2505 4.98968C37.0331 5.55316 37.6592 6.05403 37.6592 6.11664C37.6592 6.17924 37.3148 6.21055 36.8766 6.21055C36.3757 6.21055 36.094 6.02272 36.094 5.74098Z" fill="#360094"/>
<path d="M14.5564 5.24017C14.6503 4.58278 14.8381 4.48887 16.2781 4.39496C17.6555 4.30104 17.9059 4.39496 17.7494 4.77061C17.5929 5.14626 17.4364 5.17756 16.9981 4.89583C16.5598 4.61409 16.2468 4.6767 15.4329 5.27148L14.4312 5.99148L14.5564 5.24017Z" fill="#360094"/>
<path d="M36.4068 4.55155C34.7163 3.23676 34.685 3.23676 35.5928 3.14285C36.0937 3.08024 36.6259 3.17416 36.8137 3.36198C37.0015 3.54981 37.4085 3.70633 37.7215 3.70633C38.1598 3.70633 38.285 3.95676 38.285 4.80198C38.285 5.39676 38.2537 5.89763 38.2224 5.89763C38.1598 5.89763 37.3459 5.30285 36.4068 4.55155Z" fill="#360094"/>
<path d="M27.0159 4.01933C27.0159 3.36194 27.5167 3.23672 28.8315 3.58107C30.0524 3.92541 29.6767 4.64541 28.268 4.64541C27.235 4.64541 27.0159 4.5515 27.0159 4.01933Z" fill="#360094"/>
<path d="M28.0487 3.1741C26.5774 2.98628 26.7652 2.4541 28.2678 2.4541C29.1757 2.4541 29.52 2.57932 29.52 2.92367C29.52 3.1741 29.4261 3.36193 29.3009 3.33062C29.1444 3.33062 28.5809 3.23671 28.0487 3.1741Z" fill="#360094"/>
<path d="M37.3461 76.1132C25.4818 75.3619 1.81572 73.7967 1.75311 73.734C1.72181 73.6714 1.59659 71.6993 1.47137 69.3514C1.25224 65.2819 1.28355 65.0627 1.84702 65.0627C2.16007 65.0627 5.44702 65.2819 9.17224 65.5323C12.8662 65.7827 21.5375 66.3462 28.4244 66.7845C35.3114 67.2227 41.3218 67.661 41.8227 67.7549L42.6679 67.9427V71.668C42.6679 73.9532 42.5427 75.3932 42.3548 75.3932C42.167 75.3932 42.0418 73.9845 42.0418 71.7932C42.0418 69.1323 41.9479 68.1932 41.6661 68.1932C41.447 68.1932 32.6192 67.6297 22.0383 66.941C11.4575 66.2523 2.62963 65.6888 2.4105 65.6888C2.06616 65.6888 1.97224 66.2523 1.97224 67.8801C1.97224 69.3827 2.09746 70.0714 2.34789 70.0714C2.62963 70.0714 2.62963 70.1654 2.34789 70.4471C1.94094 70.854 1.81572 73.2019 2.22268 73.2332C2.34789 73.2332 10.3931 73.7653 20.1288 74.4227C31.8366 75.2053 37.9409 75.4871 38.2227 75.2993C38.5044 75.0801 38.7548 75.1114 38.974 75.3306C39.1931 75.5497 39.7566 75.7062 40.2261 75.7062C40.6957 75.7062 41.1027 75.8627 41.1027 76.0193C41.1027 76.2071 40.6331 76.301 40.1009 76.2697C39.5375 76.2384 38.2853 76.1758 37.3461 76.1132Z" fill="#4300BF"/>
<path d="M39.0991 74.7358C38.6608 74.3915 38.2851 73.9219 38.2851 73.6715C38.2851 73.4524 38.0034 72.9515 37.6591 72.5445L37.033 71.7932L37.2208 72.7324C37.346 73.2645 37.5652 73.9845 37.6904 74.3915C37.9408 75.0176 37.8782 75.0802 36.7512 75.0802C36.0625 75.0802 35.4365 74.8924 35.3425 74.7045C35.2173 74.4228 35.0921 74.4228 34.9982 74.6419C34.7791 75.0489 31.0225 74.7985 30.6782 74.3289C30.4904 74.1098 30.3651 74.0785 30.2712 74.2976C30.0834 74.7359 26.0138 74.4854 25.6695 74.0159C25.4817 73.7967 25.3565 73.7654 25.2625 74.0159C25.0747 74.4541 21.3182 74.1724 21.0052 73.7028C20.8486 73.4837 20.6608 73.4524 20.5356 73.6715C20.2225 74.0785 16.3721 73.8906 16.3721 73.4837C16.3721 73.3272 16.153 73.2019 15.9025 73.2019C15.6521 73.2019 15.433 73.2959 15.433 73.4524C15.433 73.7967 11.5512 73.4837 11.2695 73.0767C11.0817 72.8576 10.9565 72.8263 10.8625 73.0454C10.6747 73.4837 6.60516 73.2332 6.26081 72.7637C6.10429 72.5445 5.94776 72.5445 5.85385 72.7324C5.79124 72.9202 5.03994 72.9828 4.16342 72.9515C2.6295 72.8263 2.5982 72.8263 2.5982 71.7619C2.5982 70.6037 3.47472 69.8211 4.0695 70.4159C4.60168 70.948 6.73037 70.1028 6.2295 69.5706C6.01037 69.3515 5.75994 69.2889 5.54081 69.4767C5.35298 69.6332 4.53907 69.6645 3.72516 69.5706L2.28516 69.3515V67.6611V65.9393L3.47472 66.1272C4.10081 66.2211 7.04342 66.4402 9.95472 66.628C29.0191 67.7863 40.1321 68.5376 40.8834 68.6941L41.7286 68.8819V71.668C41.7286 73.8593 41.6347 74.4541 41.2904 74.4541C41.0399 74.4541 40.633 74.6732 40.3825 74.9237C39.9756 75.3306 39.8191 75.2993 39.0991 74.7358ZM35.593 72.2941C35.8747 71.8872 35.4678 71.0106 34.9982 71.0106C34.7478 71.0106 34.6852 71.2924 34.7791 71.7932C34.9043 72.5759 35.2799 72.795 35.593 72.2941ZM15.1199 71.4489C15.1199 71.1985 14.9008 70.7602 14.6504 70.5098C14.2434 70.0715 14.1808 70.1341 14.1808 70.9793C14.1808 71.6367 14.3373 71.9498 14.6504 71.9498C14.9008 71.9498 15.1199 71.7306 15.1199 71.4489ZM10.5495 69.8211C10.6121 69.6959 10.5808 69.3828 10.4243 69.1324C10.2052 68.788 10.0799 68.7567 9.64168 69.1324C9.23472 69.4454 9.23472 69.6019 9.54776 69.7898C10.0799 70.1341 10.3617 70.1341 10.5495 69.8211Z" fill="#4300BF"/>
<path d="M28.8938 63.8106C28.8938 63.1532 29.3947 63.028 30.7095 63.3723C31.9303 63.7167 31.5547 64.4367 30.146 64.4367C29.1129 64.4367 28.8938 64.3428 28.8938 63.8106Z" fill="#4300BF"/>
<path d="M17.6245 63.1846C17.6245 62.6837 17.8436 62.5585 18.7202 62.5585C19.5967 62.5585 19.8158 62.6837 19.8158 63.1846C19.8158 63.6854 19.5967 63.8106 18.7202 63.8106C17.8436 63.8106 17.6245 63.6854 17.6245 63.1846Z" fill="#4300BF"/>
<path d="M12.3027 62.8714C12.3027 62.214 12.6158 62.1201 13.8053 62.4332C14.9323 62.7462 14.6506 63.4975 13.3984 63.4975C12.5219 63.4975 12.3027 63.3723 12.3027 62.8714Z" fill="#4300BF"/>
<path d="M28.8938 62.5584C28.8938 62.4019 29.4573 62.2454 30.146 62.2454C30.8347 62.2454 31.3981 62.4019 31.3981 62.5584C31.3981 62.7462 30.8347 62.8714 30.146 62.8714C29.4573 62.8714 28.8938 62.7462 28.8938 62.5584Z" fill="#4300BF"/>
<path d="M17.6245 61.9323C17.6245 61.7758 18.1254 61.6193 18.7202 61.6193C19.3149 61.6193 19.8158 61.7758 19.8158 61.9323C19.8158 62.1201 19.3149 62.2453 18.7202 62.2453C18.1254 62.2453 17.6245 62.1201 17.6245 61.9323Z" fill="#4300BF"/>
<path d="M12.3027 61.6193C12.3027 61.4628 12.8036 61.3063 13.3984 61.3063C13.9932 61.3063 14.494 61.4628 14.494 61.6193C14.494 61.8071 13.9932 61.9324 13.3984 61.9324C12.8036 61.9324 12.3027 61.8071 12.3027 61.6193Z" fill="#4300BF"/>
<path d="M41.9791 57.2367C42.073 54.7324 42.1356 52.0089 42.0417 51.1324C41.76 47.595 42.1043 36.388 42.8556 24.3672C43.0434 21.362 42.9808 20.8924 41.2278 11.7202C40.9773 10.5307 37.1269 6.5237 34.6226 4.86457C33.5269 4.14457 32.6504 3.39327 32.6504 3.17414C32.6504 1.82805 40.0695 7.74457 41.2904 10.0298C41.7913 11.0315 43.2313 18.075 43.4817 20.9237C43.5756 22.0507 43.513 24.7115 43.3252 26.8715C42.6991 33.9776 42.2921 48.1272 42.6678 49.7863C42.8869 50.8506 42.8869 52.4785 42.6365 55.1393C42.1043 61.2124 41.7287 62.402 41.9791 57.2367Z" fill="#4300BF"/>
<path d="M45.5164 59.9915L48.7721 58.3324L48.9599 51.4454C49.0851 47.2507 49.3042 44.0576 49.5547 43.3063C49.8364 42.4298 49.899 40.9585 49.7738 38.3915C49.586 34.6663 49.9303 33.3202 50.306 36.3567C50.619 39.0489 50.5251 42.242 50.0242 44.2454C49.7112 45.5289 49.586 48.002 49.5547 52.1341C49.5547 55.4211 49.4608 58.3637 49.3669 58.6454C49.179 59.1463 46.4555 60.6802 45.7982 60.6802C45.6103 60.6802 45.2347 60.8993 44.9842 61.1498C44.7025 61.4002 44.0138 61.6193 43.3877 61.6193C42.4173 61.6193 42.6051 61.4628 45.5164 59.9915Z" fill="#4300BF"/>
<path d="M42.8869 57.1741C43.0121 55.2332 43.0747 52.5097 43.0121 51.1323C42.8243 46.6871 42.8556 44.0889 43.2312 36.2628C44.1078 18.5132 44.233 21.581 42.1669 10.8124C42.0104 10.061 37.4086 4.70801 36.8765 4.6454C36.4069 4.58279 33.5895 2.61062 33.8399 2.5167C34.0278 2.45409 35.1234 2.70453 36.313 3.04888C37.4712 3.39322 38.9425 3.73757 39.5686 3.86279C41.1339 4.11322 43.2312 5.70975 43.7947 7.05583C44.233 8.05757 44.233 8.21409 43.7321 8.74627C43.4191 9.09061 43.2939 9.59148 43.3878 10.0297C43.513 10.4054 43.4191 10.9063 43.2312 11.1254C42.8243 11.6263 43.2312 11.6263 44.0765 11.1254C44.4208 10.9063 44.7025 10.468 44.7025 10.1237C44.7025 9.18453 46.1112 9.12192 46.9878 10.061C47.9582 11.0941 49.7112 19.0454 48.9599 19.0454C48.7721 19.0454 48.6156 19.4837 48.6156 19.9845C48.6156 20.5167 48.7721 20.9237 48.9599 20.9237C49.4295 20.9237 48.9599 30.5028 48.4278 31.8489C48.1773 32.4123 47.9895 33.2889 47.9895 33.7584C47.9895 34.4158 47.6452 34.948 46.706 35.7619C45.7982 36.5445 45.4538 37.0141 45.6104 37.3897C45.7043 37.6715 45.6417 38.1097 45.4538 38.3289C45.266 38.548 45.1721 39.3932 45.2347 40.1758C45.2973 40.9584 45.2034 41.6471 45.0156 41.7097C44.8591 41.8036 44.953 41.8663 45.266 41.8663C45.6417 41.8976 45.7982 41.6471 45.7982 40.9897C45.7982 40.4576 46.1425 39.6437 46.6121 39.1115C47.2382 38.3602 47.3321 38.0158 47.0817 37.7028C46.8312 37.3897 47.0191 37.108 47.9269 36.4506L49.0852 35.6367L49.3669 37.8906C49.586 39.5497 49.5547 40.708 49.2417 42.2106C48.9912 43.3689 48.7721 46.9689 48.7095 50.5063C48.6469 53.9497 48.553 57.0802 48.4591 57.4558C48.2399 58.3636 45.5478 59.7723 44.546 59.5219C44.0139 59.3654 43.8886 59.428 44.0765 59.741C44.3269 60.148 43.7634 60.6802 43.0434 60.6802C42.6991 60.6802 42.6678 60.0228 42.8869 57.1741ZM45.7982 47.3445C45.7982 46.781 45.3599 46.781 44.8904 47.3445C44.6086 47.6889 44.6086 47.8141 44.9217 47.9393C45.4538 48.1271 45.7982 47.908 45.7982 47.3445ZM47.6765 17.1045C47.6765 16.8854 47.5199 16.4784 47.3634 16.228C47.113 15.8524 47.0504 15.9463 47.0504 16.635C47.0504 17.1045 47.2069 17.4802 47.3634 17.4802C47.5512 17.4802 47.6765 17.2923 47.6765 17.1045Z" fill="#4300BF"/>
<path d="M39.2244 58.3323C39.2244 57.4558 39.3496 57.2367 39.8505 57.2367C40.3513 57.2367 40.4452 57.4245 40.4139 58.3323C40.3826 59.1776 40.2261 59.428 39.7878 59.428C39.3496 59.428 39.2244 59.1776 39.2244 58.3323Z" fill="#4300BF"/>
<path d="M40.7896 58.3323C40.7896 57.7376 40.9461 57.2367 41.1026 57.2367C41.2904 57.2367 41.4156 57.7376 41.4156 58.3323C41.4156 58.9271 41.2904 59.428 41.1026 59.428C40.9461 59.428 40.7896 58.9271 40.7896 58.3323Z" fill="#4300BF"/>
<path d="M9.39123 57.3306C9.01558 56.9863 9.1721 55.2332 9.61036 54.6698C10.0799 54.0124 11.9895 53.9184 12.553 54.4819C12.7721 54.7011 12.9286 55.4524 12.9286 56.2037V57.5498H11.2695C10.3304 57.5498 9.48514 57.4558 9.39123 57.3306Z" fill="#4300BF"/>
<path d="M11.8956 53.2923C11.7704 53.1671 11.6765 52.541 11.6765 51.8836C11.6765 50.8819 11.8017 50.6315 12.4278 50.4749C12.8348 50.381 13.5235 50.3497 13.8991 50.4123C14.5565 50.5062 14.6504 50.6628 14.6504 51.9149V53.3236L13.3983 53.4176C12.6783 53.4802 12.0209 53.4175 11.8956 53.2923Z" fill="#4300BF"/>
<path d="M6.04175 50.1932C6.04175 48.7845 6.16697 48.1584 6.4487 48.1584C6.73044 48.1584 6.79305 48.7219 6.73044 50.1932C6.57392 52.8228 6.04175 52.8228 6.04175 50.1932Z" fill="#4300BF"/>
<path d="M7.10635 51.1637C6.85591 49.7237 7.20026 48.2211 7.85765 48.0646C8.32721 47.9394 8.32721 47.9081 7.85765 47.8768C7.26287 47.8455 7.16895 47.5011 7.482 46.3742C7.76374 45.3098 8.54635 45.4663 8.54635 46.562C8.54635 47.4385 8.64026 47.5011 9.89243 47.595L11.2072 47.689V49.0976V50.5063H9.70461C8.29591 50.5063 8.2333 50.5376 8.2333 51.3829C8.2333 52.635 7.35678 52.4785 7.10635 51.1637Z" fill="#4300BF"/>
<path d="M6.35474 46.7498C6.35474 46.155 6.51126 45.6542 6.66778 45.6542C6.85561 45.6542 6.98082 46.155 6.98082 46.7498C6.98082 47.3446 6.85561 47.8455 6.66778 47.8455C6.51126 47.8455 6.35474 47.3446 6.35474 46.7498Z" fill="#4300BF"/>
<path d="M30.1462 41.5532C30.1462 41.0523 33.308 37.828 33.7775 37.828C34.0593 37.828 34.2158 38.2037 34.2158 38.861C34.2158 40.2697 32.5567 41.8976 31.148 41.8976C30.5845 41.8976 30.1462 41.741 30.1462 41.5532Z" fill="#4300BF"/>
<path d="M39.5376 40.489C39.5376 39.6124 39.6628 39.3933 40.1637 39.3933C40.8211 39.3933 40.915 39.7064 40.6019 40.8959C40.2889 42.0229 39.5376 41.7411 39.5376 40.489Z" fill="#4300BF"/>
<path d="M41.1028 40.489C41.1028 39.8942 41.2593 39.3933 41.4158 39.3933C41.6037 39.3933 41.7289 39.8942 41.7289 40.489C41.7289 41.0837 41.6037 41.5846 41.4158 41.5846C41.2593 41.5846 41.1028 41.0837 41.1028 40.489Z" fill="#4300BF"/>
<path d="M45.7985 38.6106C46.0176 38.3602 46.1115 37.8593 46.0176 37.5463C45.9237 37.108 46.2054 36.6697 47.0819 35.9497C48.0837 35.1671 48.3028 34.7915 48.3028 33.8837C48.3028 33.2889 48.5219 32.475 48.7724 32.068C49.3045 31.2541 50.0559 21.0489 49.7115 19.0454C48.3967 11.1567 47.8645 9.6541 46.2054 8.99671C45.2037 8.62106 44.2332 9.15323 44.2332 10.0611C44.2019 10.6871 44.2019 10.7184 43.8889 10.1863C43.6385 9.74801 43.6698 9.46628 44.108 8.99671C45.235 7.74454 43.5132 4.92715 40.9463 3.8628C40.4454 3.64367 38.3167 3.08019 36.2506 2.57932C33.0889 1.82802 32.6819 1.64019 33.715 1.57758C34.4037 1.51497 36.0941 1.76541 37.4715 2.14106C38.8802 2.51671 40.5393 2.95497 41.1967 3.11149C42.9185 3.54975 44.7967 5.45932 45.0472 7.08715C45.235 8.30801 45.3289 8.40193 46.268 8.40193C47.8019 8.40193 48.5219 9.43497 49.3045 12.8158C49.9619 15.508 50.0245 16.4158 49.9619 23.6471C49.8993 30.8784 49.8367 31.6924 49.2732 33.0071C48.8976 33.8211 48.6159 34.6976 48.6159 34.9793C48.6159 35.2611 48.115 35.8245 47.4889 36.2315C46.675 36.795 46.4245 37.1706 46.5498 37.6402C46.7063 38.2976 46.268 39.0802 45.7359 39.0802C45.548 39.0802 45.5793 38.8611 45.7985 38.6106Z" fill="#4300BF"/>
<path d="M7.2937 34.0715C7.2937 33.3828 7.45022 32.8193 7.60674 32.8193C7.79457 32.8193 7.91979 33.3828 7.91979 34.0715C7.91979 34.7602 7.79457 35.3237 7.60674 35.3237C7.45022 35.3237 7.2937 34.7602 7.2937 34.0715Z" fill="#4300BF"/>
<path d="M8.23315 34.7915C8.23315 33.7272 8.60881 32.8193 9.04707 32.8193C9.36011 32.8193 9.48533 33.2263 9.48533 34.0715C9.48533 35.1046 9.39141 35.3237 8.85924 35.3237C8.48359 35.3237 8.23315 35.1046 8.23315 34.7915Z" fill="#4300BF"/>
<path d="M7.2937 29.6889C7.2937 28.6559 7.41892 27.8107 7.60674 27.8107C7.79457 27.8107 7.91979 28.6559 7.91979 29.6889C7.91979 30.722 7.79457 31.5672 7.60674 31.5672C7.41892 31.5672 7.2937 30.722 7.2937 29.6889Z" fill="#4300BF"/>
<path d="M8.42098 30.8785C8.32707 30.4715 8.23315 29.6263 8.23315 29.0002C8.23315 28.0298 8.35837 27.8107 8.85924 27.8107C9.42272 27.8107 9.48533 28.0298 9.48533 29.6889C9.48533 31.0663 9.36011 31.5672 9.04707 31.5672C8.82794 31.5672 8.5462 31.2541 8.42098 30.8785Z" fill="#4300BF"/>
<path d="M31.6174 19.7967C31.2417 19.421 31.367 17.0106 31.7739 16.6037C32.2748 16.1028 33.9652 16.1341 34.6539 16.635C35.0609 16.948 35.1861 17.3863 35.0922 18.4193L34.9983 19.828L33.433 19.9219C32.5565 19.9845 31.7426 19.9219 31.6174 19.7967Z" fill="#4300BF"/>
<path d="M7.76374 18.7325C7.48201 17.4177 7.88896 14.3499 8.38983 14.3499C8.67157 14.3499 8.70287 14.7568 8.45244 16.0716C8.26461 17.2299 8.29592 18.1064 8.48375 18.7325C8.76548 19.4838 8.73418 19.6716 8.38983 19.6716C8.1707 19.6716 7.88896 19.2646 7.76374 18.7325Z" fill="#4300BF"/>
<path d="M8.95319 18.6072C8.73406 17.9499 8.73405 17.0107 8.89058 16.1655C9.01579 15.4142 9.14101 14.7255 9.17232 14.6003C9.17232 14.4438 9.36014 14.3499 9.61058 14.3499C9.95493 14.3499 10.0488 14.9446 10.0488 17.0107C10.0488 19.8907 9.54797 20.5794 8.95319 18.6072Z" fill="#4300BF"/>
<path d="M34.967 15.7897C34.8731 15.5393 34.8418 14.8193 34.9044 14.1619L34.9983 12.941H36.407H37.8157L37.9096 14.3184C37.9722 15.195 37.8783 15.7897 37.5966 15.9463C36.9392 16.3845 35.1548 16.2593 34.967 15.7897Z" fill="#4300BF"/>
<path d="M31.9304 13.7238C32.0556 13.2542 31.9304 13.0977 31.4295 13.0977C31.0539 13.0977 30.7721 13.2855 30.7721 13.5673C30.7721 13.8177 30.553 14.0368 30.3026 14.0368C29.9582 14.0368 29.833 13.6925 29.833 12.8473C29.833 11.0629 30.3652 10.5307 32.0243 10.656C33.3704 10.7499 33.433 10.7812 33.5269 11.8142C33.6834 13.536 33.3704 14.3499 32.5252 14.3499C31.9304 14.3499 31.8052 14.2246 31.9304 13.7238Z" fill="#4300BF"/>
<path d="M10.8001 11.5324C11.301 10.4994 11.8331 9.65417 12.021 9.65417C12.1775 9.65417 12.3027 10.155 12.3027 10.7498C12.3027 11.3446 12.1775 11.8455 11.9897 11.8455C11.8331 11.8455 11.6766 12.1898 11.6766 12.6281C11.6766 13.2855 11.5201 13.4107 10.8001 13.4107H9.92358L10.8001 11.5324Z" fill="#4300BF"/>
<path d="M9.48511 12.002C9.48511 11.5637 9.64163 11.2194 9.79815 11.2194C9.98598 11.2194 10.1112 10.875 10.1112 10.4368C10.1112 9.93591 10.299 9.65417 10.6121 9.65417C11.1442 9.65417 11.019 10.3429 10.2051 11.9394C9.67293 13.0037 9.48511 13.0037 9.48511 12.002Z" fill="#4300BF"/>
<path d="M19.4714 7.4941C18.5636 6.46106 18.501 5.89758 19.3462 5.89758C20.0349 5.89758 20.1288 6.0228 20.1288 6.99323C20.1288 8.24541 20.1288 8.2141 19.4714 7.4941Z" fill="#4300BF"/>
<path d="M14.1809 7.02456C14.1809 6.96195 14.7444 6.42977 15.4644 5.8663C16.4974 5.05238 16.8105 4.95847 17.0296 5.30282C17.4366 5.9289 17.374 6.21064 16.8418 6.21064C16.5913 6.21064 16.3722 6.42977 16.3722 6.68021C16.3722 6.99325 16.0279 7.14977 15.2766 7.14977C14.6818 7.14977 14.1809 7.08717 14.1809 7.02456Z" fill="#4300BF"/>
<path d="M14.1809 5.61581C14.1809 5.17755 14.4 4.95842 14.807 4.95842C15.1513 4.95842 15.4331 4.73929 15.4331 4.48885C15.4331 4.1445 15.7774 4.01929 16.7166 4.01929C17.7496 4.01929 17.9687 4.1132 17.8122 4.52016C17.7183 4.8019 17.6244 5.08363 17.6244 5.14624C17.6244 5.20885 17.3426 5.11494 17.0296 4.89581C16.5287 4.58277 16.247 4.67668 15.3079 5.39668C14.2435 6.21059 14.1809 6.21059 14.1809 5.61581Z" fill="#4300BF"/>
<path d="M18.5635 4.52033C18.5635 4.11338 19.44 3.70642 20.3791 3.70642C20.567 3.70642 20.7548 3.98816 20.7548 4.33251C20.7548 4.83338 20.5357 4.95859 19.6591 4.95859C18.9391 4.95859 18.5635 4.80207 18.5635 4.52033Z" fill="#4300BF"/>
<path d="M21.3806 4.20722C21.3806 3.80027 22.2571 3.39331 23.1963 3.39331C23.3841 3.39331 23.5719 3.67505 23.5719 4.0194C23.5719 4.52027 23.3528 4.64548 22.4763 4.64548C21.7563 4.64548 21.3806 4.48896 21.3806 4.20722Z" fill="#4300BF"/>
<path d="M26.7026 4.01939C26.7026 3.362 27.0157 3.26809 28.2052 3.58113C29.3322 3.89417 29.0505 4.64548 27.7983 4.64548C26.9218 4.64548 26.7026 4.52026 26.7026 4.01939Z" fill="#4300BF"/>
<path d="M18.5635 3.26796C18.5635 2.89231 18.8765 2.76709 19.6591 2.76709C20.2539 2.76709 20.7548 2.92361 20.7548 3.08013C20.7548 3.26796 20.473 3.39318 20.16 3.39318C19.8156 3.39318 19.3461 3.48709 19.0643 3.581C18.72 3.70622 18.5635 3.61231 18.5635 3.26796Z" fill="#4300BF"/>
<path d="M21.3806 2.86106C21.3806 2.61062 21.7876 2.4541 22.4763 2.4541C23.071 2.4541 23.5719 2.57932 23.5719 2.73584C23.5719 2.89236 23.071 3.08019 22.4763 3.1428C21.725 3.23671 21.3806 3.1428 21.3806 2.86106Z" fill="#4300BF"/>
<path d="M26.7026 2.76714C26.7026 2.61062 27.2035 2.4541 27.7983 2.4541C28.3931 2.4541 28.8939 2.61062 28.8939 2.76714C28.8939 2.95497 28.3931 3.08019 27.7983 3.08019C27.2035 3.08019 26.7026 2.95497 26.7026 2.76714Z" fill="#4300BF"/>
<path d="M33.4957 73.2958C33.3705 73.2019 33.2766 72.8262 33.2766 72.5132C33.2766 71.8245 34.6853 71.6993 34.9357 72.388C35.2175 73.1393 34.0592 73.8593 33.4957 73.2958Z" fill="#6A00F8"/>
<path d="M30.9914 70.1653C30.6157 69.821 30.7409 69.4453 31.2418 69.4453C31.4922 69.4453 31.7114 69.6644 31.7114 69.9149C31.7114 70.4157 31.3357 70.541 30.9914 70.1653Z" fill="#6A00F8"/>
<path d="M31.0851 66.4715C26.0138 66.0958 14.619 65.3445 7.07469 64.8749C5.22773 64.7497 3.85034 64.5306 3.85034 64.3428C3.85034 64.1549 4.66425 64.0923 6.10425 64.2489C7.35643 64.3428 11.3321 64.5619 14.9634 64.7497C18.5947 64.9376 22.8834 65.2193 24.5112 65.3758C26.139 65.5323 30.2399 65.8141 33.5895 66.0019C36.939 66.1897 40.1008 66.4089 40.6016 66.5028C41.4469 66.6906 41.4782 66.628 41.2903 65.908C40.7895 63.8106 40.5703 63.5602 39.1616 63.3723C38.4103 63.2784 30.8034 62.8402 22.226 62.3706L6.63643 61.5567L5.41556 62.5271C4.03817 63.6228 3.85034 63.6854 3.85034 63.0593C3.85034 62.8089 4.35121 62.2141 4.94599 61.7445L6.04165 60.8993L11.9269 61.2749C20.6921 61.8071 38.8173 62.8089 40.3512 62.8715C41.1651 62.8715 41.7286 64.0297 41.7286 65.6889V66.941L39.1616 66.9097C37.7216 66.8784 34.0903 66.6593 31.0851 66.4715Z" fill="#6A00F8"/>
<path d="M32.1811 65.5324C29.2698 65.3133 23.1342 64.9063 18.5637 64.6246C13.9933 64.3429 9.01591 63.9985 7.45069 63.8733L4.6333 63.6542L5.76026 62.7776L6.91852 61.9011L11.082 62.2142C13.3985 62.402 17.1237 62.6211 19.3463 62.715C21.6003 62.809 25.6698 63.0281 28.4246 63.1846C31.1794 63.3724 34.9359 63.5916 36.7516 63.6855C39.9133 63.842 40.1011 63.9046 40.4455 64.6246C41.1655 66.2211 41.322 66.1898 32.1811 65.5324Z" fill="#6A00F8"/>
<path d="M23.8854 61.4314C16.9045 61.0244 10.1428 60.5861 8.85931 60.4609L6.51148 60.2105L6.29235 54.8888C6.16714 51.8835 6.19844 48.5653 6.35496 47.2818C6.54279 46.0296 6.668 43.6818 6.668 42.1166C6.668 40.5201 6.85583 38.2662 7.04366 37.0453C7.23148 35.8557 7.41931 32.0366 7.41931 28.5931C7.45061 22.3322 7.45061 22.3322 8.17061 22.2383C8.54627 22.1757 8.85931 22.1131 8.85931 22.0818C8.85931 22.0505 8.64018 21.3305 8.38974 20.4853C7.51322 17.6366 7.95148 13.4105 9.26627 11.9079C9.5167 11.6262 9.92366 10.8122 10.1428 10.1235C10.4245 9.30964 11.3637 8.05746 12.835 6.58616C14.8071 4.64529 15.2454 4.33225 16.2158 4.33225C17.0924 4.33225 17.3115 4.20703 17.3115 3.73747C17.3115 3.01747 18.3445 2.82964 23.4158 2.5479C28.3306 2.32877 30.9289 2.73573 33.8715 4.23833C36.5323 5.58442 36.908 6.05399 36.5636 7.33746L36.2819 8.24529L36.1567 7.40007C36.0315 6.39833 35.0923 5.64703 32.1184 4.23833C30.021 3.2679 29.9271 3.2366 25.4506 3.2366C19.4715 3.2366 18.0628 3.48703 17.781 4.55138C17.6558 5.14616 17.4993 5.27138 17.2176 4.98964C16.5915 4.36355 16.1219 4.61399 13.8993 6.71138C12.1463 8.3392 11.4263 9.34094 10.1741 11.814C8.29583 15.5079 7.98279 17.1983 8.73409 19.4522C9.26626 21.1427 10.3306 23.1148 10.8628 23.4905C11.0506 23.6157 11.0819 23.8035 10.988 23.8975C10.8628 24.0227 10.2993 23.7409 9.70452 23.3027C8.85931 22.6453 8.54626 22.5514 8.29583 22.8644C8.108 23.1148 7.92018 26.1827 7.82627 30.4714C7.73235 34.447 7.51322 38.7357 7.3567 40.0505C6.91844 43.1809 6.57409 55.3583 6.88714 55.3583C7.04366 55.3583 7.10627 56.3288 7.04366 57.487L6.91844 59.647L8.89061 59.8661C11.1758 60.1166 37.1271 61.6192 39.0993 61.6192C40.0697 61.6192 40.4767 61.4627 40.6332 61.087C40.7584 60.774 40.915 54.8888 40.9776 48.0018C41.0402 39.7688 41.2593 33.9462 41.5723 30.9722C42.2297 24.774 42.1984 20.047 41.4784 17.4801C41.1341 16.3531 40.7897 14.5375 40.6645 13.4105C40.4141 11.094 39.7254 9.81051 38.035 8.43312C37.0019 7.5879 36.9393 7.49399 37.5654 7.46268C38.6923 7.46268 40.6958 9.59138 40.9149 11.0627C41.0402 11.7514 41.3532 13.4418 41.6663 14.8192C42.3236 17.9809 42.5428 28.4366 42.0419 32.0366C41.8228 33.4766 41.6349 39.7688 41.5723 46.7496C41.5097 53.4801 41.3845 59.7096 41.2593 60.6175L41.0089 62.2453L38.7863 62.214C37.5654 62.1827 30.8663 61.8383 23.8854 61.4314Z" fill="#6A00F8"/>
<path d="M24.8244 60.4923C17.8435 60.0854 11.0818 59.6471 9.79829 59.5219L7.45047 59.2715L7.35655 58.2071C7.20003 56.6106 7.51307 55.7654 8.35829 55.5462C9.01568 55.3897 11.3635 52.541 10.8313 52.541C10.7374 52.541 10.1113 53.0419 9.45394 53.6367C8.76525 54.2315 8.04525 54.7323 7.79481 54.7323C7.26264 54.7323 6.9496 50.6002 7.32525 48.1584C7.45047 47.2193 7.57568 45.0906 7.57568 43.4315C7.60699 41.8036 7.82612 38.8297 8.07655 36.8576C8.4522 34.1967 8.51481 32.068 8.35829 28.4054C8.23307 25.3689 8.26438 23.428 8.4522 23.3341C9.01568 22.9897 10.1426 24.0541 9.92351 24.7428C9.76699 25.2123 9.8609 25.3376 10.2992 25.2436C11.0192 25.1184 11.6766 23.4906 11.1444 23.1776C10.5809 22.8019 9.51655 20.5793 9.1409 18.8576C8.67134 16.8228 8.98438 14.7254 9.92351 13.3167C10.3305 12.7219 10.8626 11.6889 11.0818 11.0315C11.6139 9.52886 15.84 5.17756 16.6226 5.33408C17.1235 5.42799 17.3113 5.99147 17.8122 8.65234C17.9687 9.52886 18.5635 9.56017 18.5635 8.68364C18.5635 8.08886 18.6574 8.12017 19.5026 9.02799C20.0348 9.59147 20.5357 9.96712 20.6296 9.87321C20.8174 9.68538 19.9722 8.05756 18.9705 6.61756C18.5635 6.08538 18.2505 5.30278 18.2505 4.86452C18.2505 4.14452 18.407 4.0506 20.0661 3.80017C21.0365 3.67495 23.5409 3.54973 25.607 3.58104C29.7392 3.61234 31.4296 4.08191 34.3409 5.89756L35.8435 6.86799L35.687 8.49582C35.6244 9.40364 35.4365 10.468 35.3113 10.9063C35.0609 11.6889 35.0609 11.6889 35.7183 11.0941C36.0939 10.781 36.4696 10.0297 36.5948 9.46625C36.6887 8.87147 36.9079 8.40191 37.0644 8.40191C37.1896 8.40191 37.8783 8.93408 38.567 9.59147C39.4435 10.4367 39.8505 11.0941 39.9757 12.0019C40.1009 12.6906 40.4139 14.381 40.6957 15.7584C41.3844 18.9202 41.6035 27.6541 41.1026 31.0976C40.8835 32.4749 40.6644 39.0176 40.5705 45.6541C40.5078 52.2906 40.3826 58.1445 40.3513 58.6454C40.2887 59.1775 40.2261 59.9602 40.1948 60.461C40.1635 61.4941 41.8226 61.4628 24.8244 60.4923ZM27.9548 56.7671C27.9548 56.5167 27.6731 56.2976 27.3287 56.2976C26.9844 56.2976 26.7026 56.5167 26.7026 56.7671C26.7026 57.0175 26.9844 57.2367 27.3287 57.2367C27.6731 57.2367 27.9548 57.0175 27.9548 56.7671ZM11.9896 56.1723C11.9896 55.5462 11.207 55.0141 10.6122 55.2332C10.1113 55.421 9.95481 56.0158 10.3305 56.3915C10.7061 56.7984 11.9896 56.6106 11.9896 56.1723ZM37.7844 55.4523C38.0348 54.8576 38.0348 54.8889 37.127 54.6071C36.5009 54.4193 36.407 54.4819 36.407 55.1393C36.407 55.5462 36.5009 55.9532 36.5948 56.0784C36.8765 56.3602 37.5965 55.9845 37.7844 55.4523ZM13.7426 52.1967C13.8366 52.0089 13.8052 51.7271 13.68 51.6019C13.3044 51.2262 12.4905 51.7584 12.7409 52.1967C13.0226 52.6349 13.4609 52.6349 13.7426 52.1967ZM35.9374 51.3202C36.1565 50.9445 35.5618 50.5689 35.1548 50.8193C34.8105 51.0384 35.0296 51.6019 35.4678 51.6019C35.6244 51.6019 35.8122 51.4767 35.9374 51.3202ZM10.2679 49.0662C10.2679 48.8471 10.0174 48.5967 9.73568 48.5341C9.17221 48.4402 8.95307 49.0975 9.39133 49.5358C9.70438 49.8489 10.2679 49.5671 10.2679 49.0662ZM30.1461 43.6193V41.2715L32.3061 38.8923C35.2487 35.6993 35.5931 34.8854 35.5931 31.4106C35.5931 28.8123 35.4992 28.4054 34.5287 26.621C33.2452 24.1793 30.9913 22.0506 28.487 20.9236C26.0139 19.828 24.5113 19.5776 22.2574 19.9532C18.4383 20.6106 15.0261 23.0523 13.4922 26.2454C12.4592 28.468 12.3339 28.8436 12.1774 31.0662C11.9896 33.7584 12.6783 35.6993 14.8383 38.5793L16.6852 41.021L16.6226 43.0558C16.5287 45.3723 16.6852 45.5602 18.6887 45.4036C20.0974 45.2784 20.1287 45.2471 20.1287 44.2141C20.1287 43.4941 20.3165 43.0558 20.6296 42.9306C21.287 42.6802 21.6939 43.3376 21.6939 44.6523V45.6541H23.4157H25.1374V44.4019C25.1374 43.3689 25.2313 43.1497 25.7635 43.1497C26.2957 43.1497 26.3896 43.3689 26.3896 44.3706C26.3896 45.748 26.5774 45.8732 28.8313 45.9358L30.1461 45.9671V43.6193ZM12.3026 42.3671C12.3026 42.1167 12.0835 41.8976 11.8331 41.8976C11.5826 41.8976 11.3635 42.1167 11.3635 42.3671C11.3635 42.6175 11.5826 42.8367 11.8331 42.8367C12.0835 42.8367 12.3026 42.6175 12.3026 42.3671ZM32.3374 39.8628C32.9322 39.268 33.3392 38.7671 33.2452 38.7671C33.1513 38.7671 32.6192 39.268 32.0244 39.8628C31.4296 40.4576 31.0226 40.9584 31.1165 40.9584C31.2105 40.9584 31.7426 40.4576 32.3374 39.8628ZM38.6609 24.9306C38.1913 24.461 37.847 24.8054 38.0974 25.4941C38.2539 25.901 38.3792 25.9636 38.6609 25.6819C38.9426 25.4002 38.9426 25.2123 38.6609 24.9306ZM34.1218 18.5445C34.247 18.2002 34.0905 17.8558 33.7461 17.5741C33.2452 17.2297 33.0887 17.2297 32.7131 17.6054C32.4626 17.8558 32.3374 18.2941 32.4313 18.5445C32.6818 19.2019 33.8713 19.2019 34.1218 18.5445ZM12.6157 15.7584C12.6157 15.508 12.4905 15.2889 12.3026 15.2889C12.1461 15.2889 11.9896 15.508 11.9896 15.7584C11.9896 16.0089 12.1461 16.228 12.3026 16.228C12.4905 16.228 12.6157 16.0089 12.6157 15.7584ZM37.0331 14.5063C37.0331 13.9115 36.407 13.5984 36.0313 13.9741C35.5618 14.4436 35.9687 15.3202 36.5635 15.101C36.8139 15.0071 37.0331 14.7254 37.0331 14.5063ZM32.1809 13.3793C32.7444 12.3149 32.6192 11.5323 31.8992 11.5323C31.3357 11.5323 30.7722 12.4715 30.7722 13.3793C30.7722 13.8802 30.96 14.0993 31.6174 14.3184C31.6487 14.3497 31.9305 13.9115 32.1809 13.3793ZM13.8052 12.5341C13.8679 12.3149 13.7113 12.1584 13.4296 12.1584C13.1479 12.1584 12.9287 12.3776 12.9287 12.6593C12.9287 13.1915 13.6174 13.0976 13.8052 12.5341ZM34.5287 9.7793C34.5287 9.52886 34.3096 9.34104 34.0592 9.34104C33.5896 9.34104 33.4018 9.99843 33.7774 10.3741C34.0905 10.6558 34.5287 10.3115 34.5287 9.7793ZM29.0818 9.62277C29.3009 9.24712 28.6122 8.65234 28.2052 8.90277C28.08 8.99669 27.9548 9.27843 27.9548 9.52886C27.9548 10.061 28.7687 10.1236 29.0818 9.62277ZM20.7548 5.42799C20.7548 5.17756 20.6296 4.95843 20.4418 4.95843C20.2852 4.95843 20.1287 5.17756 20.1287 5.42799C20.1287 5.67843 20.2852 5.89756 20.4418 5.89756C20.6296 5.89756 20.7548 5.67843 20.7548 5.42799Z" fill="#6A00F8"/>
<path d="M22.4139 43.6193C22.4139 42.9306 22.4765 42.6802 22.5391 43.0871C22.6017 43.4628 22.6017 44.0262 22.5391 44.3393C22.4452 44.621 22.3826 44.308 22.4139 43.6193Z" fill="#6A00F8"/>
<path d="M23.0399 39.4871C23.5094 39.4245 24.1981 39.4245 24.6051 39.4871C24.9807 39.5498 24.6051 39.6124 23.7286 39.6124C22.8833 39.6124 22.539 39.5498 23.0399 39.4871Z" fill="#6A00F8"/>
<path d="M22.8833 38.5481C22.1946 38.3602 22.1946 38.2976 22.8207 37.3272C23.3215 36.6072 23.3528 36.6072 23.7598 37.1081C23.9789 37.4211 24.1981 37.922 24.1981 38.235C24.1981 38.7672 23.9163 38.8298 22.8833 38.5481Z" fill="#6A00F8"/>
<path d="M26.7341 35.3862C26.4524 35.1671 26.7967 35.1358 27.7359 35.2297C28.9567 35.3862 29.2698 35.2923 29.9585 34.6036C30.9289 33.6332 31.0541 31.7862 30.2402 30.8784C29.9585 30.5654 29.8959 30.3149 30.0837 30.3149C31.1167 30.3149 31.4611 33.5393 30.5219 34.6975C29.8959 35.4489 27.4854 35.8871 26.7341 35.3862Z" fill="#6A00F8"/>
<path d="M20.0035 35.0106C20.3792 34.8854 20.974 34.3532 21.3496 33.8836C21.8192 33.2889 22.007 33.1949 22.007 33.5706C22.007 34.3219 20.8801 35.3236 20.0662 35.2923C19.3462 35.2923 19.3462 35.2923 20.0035 35.0106Z" fill="#6A00F8"/>
<path d="M27.5165 34.2281C26.953 33.6333 27.2347 32.2872 28.0487 31.7237C28.9878 31.0663 29.4887 31.1289 29.8956 32.0367C30.5217 33.4454 28.5808 35.2611 27.5165 34.2281Z" fill="#6A00F8"/>
<path d="M18.3757 33.9461C18.0627 33.1009 18.407 32.0992 19.2522 31.4731C19.9409 30.9409 20.1914 30.9096 20.5983 31.254C21.2557 31.7861 21.1931 33.007 20.4418 33.7583C19.7218 34.4783 18.6262 34.5722 18.3757 33.9461Z" fill="#6A00F8"/>
<path d="M21.7253 31.5985C21.7253 31.348 21.4749 30.8785 21.1618 30.5654C20.8801 30.2524 20.8175 30.002 20.974 30.002C21.5062 30.002 22.0696 30.8785 21.9131 31.4733C21.8192 31.8176 21.7566 31.8489 21.7253 31.5985Z" fill="#6A00F8"/>
<path d="M44.0767 56.9236C43.8576 56.5793 44.4524 55.3584 44.828 55.3584C44.9845 55.3584 45.2663 55.5775 45.4854 55.828C45.7984 56.2036 45.7984 56.3914 45.4854 56.7671C45.0471 57.2993 44.3584 57.3932 44.0767 56.9236Z" fill="#6A00F8"/>
<path d="M46.0173 51.414C45.7356 51.1323 46.1425 50.3184 46.4556 50.5375C46.6121 50.6314 46.7373 50.9131 46.7373 51.1636C46.7373 51.6018 46.3616 51.7584 46.0173 51.414Z" fill="#6A00F8"/>
<path d="M44.9217 29.814C44.953 29.5322 45.2034 29.2192 45.4226 29.1253C45.7043 29.0313 45.8295 29.1879 45.7356 29.5635C45.7043 29.8453 45.4539 30.1583 45.2347 30.2522C44.953 30.3461 44.8278 30.1896 44.9217 29.814Z" fill="#6A00F8"/>
<path d="M46.4871 26.7462C46.5184 26.4331 46.7376 26.214 46.8941 26.214C47.3637 26.2453 47.2697 26.9653 46.8002 27.1218C46.5184 27.2157 46.3932 27.0592 46.4871 26.7462Z" fill="#6A00F8"/>
<path d="M34.6852 76.9272C32.8069 76.802 26.6713 76.395 21.0678 76.0194C2.1287 74.8298 0.876521 74.7359 0.657391 74.4855C0.500869 74.3603 0.313043 72.1376 0.187826 69.5081L0 64.7811L0.907825 63.9985C1.40869 63.5916 2.59826 62.5898 3.53739 61.8385L5.25913 60.4611L5.32174 51.2577C5.35304 45.842 5.50956 41.0211 5.76 39.5498C5.94782 38.1724 6.16695 33.5394 6.22956 29.2194C6.29217 24.9307 6.48 20.4542 6.66782 19.2959C6.82435 18.1377 6.98087 16.6037 6.98087 15.8524C6.98087 14.8194 7.41913 13.5985 8.6713 11.0316C11.8017 4.64549 15.6835 2.04723 23.9791 0.732446C27.673 0.168968 34.2156 0.231577 36.2504 0.857663C36.9391 1.07679 38.1287 1.35853 38.9113 1.51505C41.76 2.04723 44.6087 3.76897 46.9878 6.33592C49.0539 8.62114 49.7113 10.1551 50.713 14.9759C51.5269 18.8577 51.5583 18.9203 51.1826 25.3064C50.9009 30.8159 50.9322 32.3811 51.3704 36.2942C51.8713 40.8333 51.8713 40.9272 51.1826 43.8698C50.5878 46.4055 50.4939 47.8142 50.4939 52.9168V58.9898L52.0591 60.5237L53.6243 62.0577V66.5029C53.6243 70.009 53.5304 71.0733 53.1548 71.4176C52.9043 71.6681 50.6504 73.1081 48.1774 74.5794L43.6383 77.2716L40.8835 77.2403C39.3809 77.209 36.5948 77.0837 34.6852 76.9272ZM38.9739 75.3307C39.193 75.5498 39.9443 75.7063 40.6956 75.7063H42.0417V71.9498C42.0417 69.1637 41.9478 68.1933 41.6661 68.1933C41.4469 68.1933 32.6191 67.6298 22.0383 66.9411C11.4574 66.2524 2.62957 65.689 2.41043 65.689C2.06609 65.689 1.97217 66.2524 1.97217 67.8803C1.97217 69.3829 2.09739 70.0716 2.34783 70.0716C2.62956 70.0716 2.62956 70.1655 2.34783 70.4472C1.94087 70.8542 1.81565 73.202 2.22261 73.2333C2.34783 73.2333 10.393 73.7655 20.1287 74.4229C31.8365 75.2055 37.9409 75.4872 38.2226 75.2994C38.5043 75.0803 38.7548 75.1116 38.9739 75.3307ZM48.1461 72.795L51.9026 70.5098L51.9965 67.3168C52.0591 64.6559 51.9965 64.1237 51.6209 64.1237C51.3704 64.1237 51.0261 64.3116 50.9009 64.5307C50.7756 64.7185 50.4313 64.9063 50.1809 64.9063C49.9304 64.9063 48.3965 65.5637 46.8313 66.409L43.92 67.8803V71.4803C43.92 73.4524 44.0139 75.0803 44.1704 75.0803C44.2956 75.049 46.08 74.0472 48.1461 72.795ZM41.2904 65.8455C40.7896 63.8107 40.5391 63.5603 39.1617 63.3724C38.4104 63.2785 30.8035 62.8403 22.2574 62.3707L6.66782 61.5568L5.25913 62.5898C4.50782 63.1846 3.85043 63.7481 3.85043 63.842C3.85043 64.0924 7.10609 64.3742 14.9635 64.7498C18.5948 64.9377 22.8835 65.2194 24.5113 65.3759C26.1391 65.5324 30.3652 65.8455 33.9026 66.0333C37.44 66.2211 40.3826 66.4403 40.4452 66.5029C40.5078 66.5655 40.7896 66.6281 41.04 66.6281C41.353 66.6281 41.4156 66.409 41.2904 65.8455ZM46.3617 64.8437C47.8643 64.0298 49.1478 63.2472 49.1791 63.122C49.2417 62.9968 49.5548 62.8716 49.8678 62.8716C50.9948 62.8716 51.1513 62.1203 50.2435 61.0246L49.3983 60.0229L45.8922 61.6507C43.9513 62.5585 42.3548 63.4664 42.3548 63.6855C42.3548 64.1237 43.3252 66.315 43.513 66.315C43.5756 66.315 44.8591 65.6577 46.3617 64.8437ZM40.633 61.0872C40.7583 60.7742 40.9148 54.889 40.9774 48.002C41.04 39.769 41.2591 33.9464 41.5722 30.9724C42.2296 24.7742 42.1983 20.0472 41.4783 17.4803C41.1339 16.3533 40.7896 14.5377 40.6643 13.4107C40.3826 11.0629 39.6939 9.7794 37.9096 8.37071C36.9078 7.55679 36.5948 7.46288 36.3756 7.80723C36.1878 8.12027 36.0939 8.02636 36.0939 7.40027C36.0939 6.39853 35.2174 5.70984 32.1183 4.23853C30.0209 3.2681 29.927 3.23679 25.4504 3.23679C19.4713 3.23679 18.0626 3.48723 17.7809 4.55158C17.6556 5.14636 17.4991 5.27158 17.2174 4.98984C16.5913 4.36375 16.1217 4.61418 13.8991 6.71158C12.1461 8.3394 11.4261 9.34114 10.1739 11.8142C8.29565 15.5081 7.98261 17.1985 8.73391 19.4524C9.26608 21.1429 10.3304 23.115 10.8626 23.4907C11.0504 23.6159 11.0817 23.8037 10.9878 23.8977C10.8626 24.0229 10.2991 23.7411 9.70434 23.3029C8.85913 22.6455 8.54608 22.5516 8.29565 22.8646C8.10782 23.115 7.92 26.1829 7.82609 30.4716C7.73217 34.4472 7.51304 38.7359 7.35652 40.0507C6.91826 43.1811 6.57391 55.3585 6.88696 55.3585C7.04348 55.3585 7.10609 56.329 7.04348 57.5185L6.91826 59.6472L9.36 59.8977C12.647 60.2107 34.967 61.5255 38.0035 61.5881C40.0383 61.6194 40.4452 61.5255 40.633 61.0872ZM46.2678 59.6472L48.7722 58.3324L48.96 51.4455C49.0539 47.6264 49.3043 44.089 49.4922 43.4629C50.1183 41.6159 49.7739 34.0403 49.0852 34.0403C48.9287 34.0403 48.7409 34.3846 48.6782 34.7603C48.6156 35.1672 48.1148 35.8246 47.4887 36.2316C46.6748 36.795 46.4243 37.1707 46.5496 37.6403C46.7061 38.2977 46.2678 39.0803 45.7356 39.0803C45.5478 39.0803 45.5791 38.8611 45.7983 38.6107C46.0174 38.3603 46.1113 37.8594 46.0174 37.5464C45.9235 37.1081 46.2052 36.6698 47.0817 35.9498C48.0835 35.1672 48.3026 34.7916 48.3026 33.8837C48.3026 33.289 48.5217 32.475 48.7722 32.0681C49.3043 31.2542 50.0556 21.049 49.7113 19.0455C48.3965 11.1568 47.8643 9.65418 46.2052 8.99679C45.2035 8.62114 44.233 9.15331 44.233 10.0611C44.2017 10.6872 44.2017 10.7185 43.8887 10.1864C43.6383 9.7481 43.6696 9.46636 44.1078 8.99679C45.2348 7.74462 43.513 4.92723 40.9461 3.86288C39.1304 3.11158 30.7722 1.29592 30.7722 1.64027C30.7722 1.73418 31.6487 2.26636 32.7443 2.79853C33.8087 3.33071 35.2487 4.20723 35.9374 4.7394C37.8783 6.21071 40.7896 9.09071 41.2904 10.0298C41.7913 11.0316 43.2313 18.0751 43.4817 20.9237C43.5756 22.0507 43.513 24.7116 43.3252 26.8716C42.6991 34.1342 42.2922 48.0959 42.6678 49.8803C42.8869 51.0072 42.9183 52.3846 42.6991 54.2942C42.5426 55.8281 42.3235 58.082 42.2296 59.3342L42.0417 61.5881L42.8869 61.275C43.3878 61.1185 44.8904 60.3672 46.2678 59.6472Z" fill="#E0E3BD"/>
<path d="M29.6138 46.061C30.052 45.9358 30.1459 45.5601 30.1459 43.5879V41.2401L31.9616 39.2992C34.4346 36.6071 35.1546 35.574 35.4364 34.0088C35.6868 32.7566 35.7181 32.7253 35.7494 33.6958C35.7807 35.1045 34.7477 37.014 32.8068 39.0801C30.6781 41.334 30.459 41.7723 30.459 44.214C30.459 46.1549 30.4277 46.2801 29.7703 46.2488C29.2381 46.2175 29.1755 46.1862 29.6138 46.061Z" fill="#E0E3BD"/>
<path d="M23.9791 45.7479C25.1061 45.6227 25.1374 45.5914 25.1374 44.3705C25.1374 43.3062 25.2313 43.1497 25.8574 43.1497C26.4835 43.181 26.4835 43.2123 26.0139 43.494C25.6382 43.6818 25.4504 44.1827 25.4504 44.8714C25.4504 45.967 25.4504 45.967 24.1356 45.9044L22.7896 45.8731L23.9791 45.7479Z" fill="#E0E3BD"/>
<path d="M18.7826 45.4349C20.0347 45.3097 20.0973 45.247 20.1913 44.1514C20.2539 43.3375 20.4417 42.9618 20.8486 42.8992C21.1304 42.8366 21.3808 42.9618 21.3808 43.1497C21.3808 43.3375 21.2556 43.4314 21.0991 43.3375C20.7547 43.1184 20.4417 43.8697 20.4417 44.9027C20.4417 45.5914 20.3478 45.654 18.9704 45.5914L17.4678 45.5601L18.7826 45.4349Z" fill="#E0E3BD"/>
<path d="M22.2573 43.5567C22.1634 42.3984 22.1321 42.3671 20.8486 42.2732L19.5025 42.1793V43.2749C19.5025 44.308 19.4399 44.4019 18.5634 44.4019H17.6242V42.1793C17.6242 39.988 17.5929 39.9253 16.0903 37.9845C13.3981 34.5723 12.9286 33.101 13.5547 29.8453C14.5564 24.5549 19.0329 21.0175 24.3547 21.2993C27.0155 21.4245 28.9251 22.301 30.9599 24.2419C33.1199 26.3706 34.059 28.6558 34.0277 31.7236C33.9964 34.6975 33.7147 35.3236 31.0225 38.2662C29.0816 40.4262 29.0503 40.4575 28.9564 42.5862C28.8312 44.5897 28.7686 44.7149 28.0799 44.7149C27.4225 44.7149 27.3286 44.5584 27.3286 43.6193V42.5236H25.7634H24.1981V43.6193C24.1981 44.621 24.1355 44.7149 23.2903 44.7149C22.4451 44.7149 22.3512 44.621 22.2573 43.5567ZM25.7634 39.0801C25.7634 38.3914 23.7912 34.6662 23.5094 34.7601C23.3216 34.8227 22.6329 35.8871 21.9442 37.1393L20.6921 39.3932H23.2277C24.699 39.3932 25.7634 39.268 25.7634 39.0801ZM21.1616 34.0088C21.9129 33.2262 22.0381 32.8819 21.8816 32.0993C21.5686 30.5967 20.5355 29.6888 19.1268 29.6888C16.7477 29.6888 15.5268 32.2871 16.9981 34.1653C18.1251 35.574 19.7529 35.5114 21.1616 34.0088ZM29.9894 34.541C31.0851 33.4767 31.0538 31.6297 29.9894 30.628C28.8938 29.5949 27.266 29.6262 26.2329 30.6593C24.4799 32.4436 25.6068 35.3236 28.1112 35.3236C28.8938 35.3236 29.4886 35.0732 29.9894 34.541Z" fill="#E0E3BD"/>
<path d="M22.3201 38.2349C22.3201 38.0784 22.6018 37.6401 22.9462 37.2019C23.3531 36.701 23.5722 36.5758 23.5409 36.8888C23.5409 37.1392 23.3531 37.6088 23.134 37.9219C22.6957 38.4853 22.3201 38.6105 22.3201 38.2349Z" fill="#E0E3BD"/>
<path d="M17.3113 31.8176C17.3113 31.5359 17.5304 31.1289 17.8435 30.9098C18.313 30.5028 18.313 30.5341 17.9374 31.2541C17.4052 32.3185 17.3113 32.3811 17.3113 31.8176Z" fill="#E0E3BD"/>
<path d="M26.0767 32.4749C26.0767 32.2245 26.2958 31.7236 26.5462 31.3793C27.1097 30.628 27.141 31.1602 26.5462 32.1932C26.2645 32.6941 26.108 32.788 26.0767 32.4749Z" fill="#E0E3BD"/>
</svg>
