<svg width="77" height="77" viewBox="0 0 77 77" fill="none" xmlns="http://www.w3.org/2000/svg">
<path d="M36.6632 76.9158C36.2995 76.8528 36.0085 76.601 36.0085 76.3806C36.0085 76.0972 37.027 75.9083 39.573 75.7824C41.8645 75.6564 44.2287 75.3101 46.3746 74.7434C50.4483 73.6729 52.5215 73.4211 52.3033 74.0193C52.0851 74.5545 48.7024 75.6564 45.2835 76.3176C42.6283 76.8213 37.718 77.1677 36.6632 76.9158Z" fill="white"/>
<path d="M30.7346 76.1916C25.3151 74.9637 20.2958 72.7913 17.095 70.2726L15.4583 68.9817L16.804 68.9503C17.7861 68.9503 18.2953 69.1392 18.6226 69.5799C18.8772 69.9263 19.3137 70.2096 19.5683 70.2096C19.8229 70.2096 20.1139 70.43 20.223 70.6819C20.3685 70.9338 20.6595 71.1541 20.9141 71.1541C21.2051 71.1541 21.6415 71.3431 21.8961 71.5634C23.2419 72.6654 32.0804 75.5619 34.1536 75.5619C34.6628 75.5619 34.9174 75.7508 34.9174 76.1916C34.9174 76.9787 34.1536 76.9787 30.7346 76.1916Z" fill="white"/>
<path d="M7.34719 73.0117C3.56448 69.454 0 64.5425 0 62.8424C0 61.8664 1.27303 60.7644 2.43694 60.7644C3.49173 60.7644 4.47378 61.583 5.4922 63.3461C6.65612 65.2981 8.72933 67.8798 10.8753 69.9893C12.9121 72.0042 13.094 72.571 11.9665 73.7988C10.7298 75.1527 9.38403 74.9323 7.34719 73.0117ZM11.2754 72.9173C11.2754 72.6654 11.1299 72.3506 10.9117 72.2561C10.7298 72.1617 10.5479 71.595 10.5479 70.9968C10.5479 70.0207 10.4388 69.9263 9.38403 69.8318C8.47473 69.7689 8.14738 69.58 8.07463 69.0447C8.00189 68.6354 7.71091 68.3206 7.41993 68.3206C7.12896 68.3206 6.91072 68.1002 6.91072 67.8483C6.91072 67.5965 6.76523 67.3761 6.547 67.3761C6.36514 67.3761 6.18328 67.1557 6.18328 66.9038C6.18328 66.6519 6.03779 66.4316 5.81956 66.4316C5.63769 66.4316 5.45583 66.2112 5.45583 65.9593C5.45583 65.7074 5.31034 65.487 5.12848 65.487C4.94662 65.487 4.51016 64.8573 4.14643 64.1017C3.38262 62.5275 2.25508 61.7089 1.78224 62.4016C1.38214 62.9368 1.38214 63.9128 1.78224 63.9128C1.9641 63.9128 2.40057 64.5425 2.80066 65.3296C3.16438 66.1167 3.56448 66.7464 3.74634 66.7464C3.89183 66.7464 4.00094 66.9668 4.00094 67.2187C4.00094 67.4705 4.18281 67.6909 4.36467 67.6909C4.5829 67.6909 4.72839 67.8798 4.72839 68.1317C4.72839 68.3836 4.98299 68.6354 5.27397 68.7614C5.56495 68.8558 5.81956 69.2022 5.81956 69.5485C5.81956 69.8633 6.14691 70.2097 6.547 70.3041C7.09258 70.43 7.27444 70.7449 7.27444 71.595C7.27444 72.6339 7.34719 72.7284 8.32924 72.7284C8.94757 72.7284 9.52952 72.8858 9.63864 73.0432C9.96599 73.5155 11.2754 73.421 11.2754 72.9173Z" fill="white"/>
<path d="M52.7397 73.2636C52.7397 72.6339 52.9944 72.3821 54.0128 72.0672C54.7038 71.8468 55.2858 71.532 55.2858 71.406C55.2858 71.2801 55.5404 71.1542 55.8314 71.1542C56.1224 71.1542 56.377 71.0282 56.377 70.8393C56.377 70.6819 56.5952 70.5245 56.8498 70.5245C57.1044 70.5245 57.5045 70.2411 57.7591 69.8948C58.0501 69.454 58.5957 69.2651 59.4322 69.2651C60.5961 69.2651 60.7053 69.1707 60.8144 68.2576C60.8871 67.3761 61.1054 67.1872 61.9419 67.1242C62.7785 67.0297 62.924 66.8723 62.924 66.0537C62.924 65.3926 63.1422 65.0777 63.6514 64.9518C64.0515 64.8573 64.3789 64.511 64.3789 64.1962C64.3789 63.8498 64.5607 63.598 64.7426 63.598C64.9608 63.598 65.1063 63.3776 65.1063 63.1257C65.1063 62.8738 65.3609 62.6535 65.6519 62.6535C65.9429 62.6535 66.1975 62.3701 66.1975 62.0238C66.1975 61.2682 67.6887 58.5605 68.0888 58.5605C68.2343 58.5605 68.3798 58.3401 68.3798 58.0883C68.3798 57.8364 68.7799 56.3881 69.2891 54.9083C69.7983 53.4286 70.1984 51.7914 70.1984 51.2877C70.1984 50.5635 70.3439 50.3746 70.9622 50.3746C71.6897 50.3746 71.726 50.4691 71.4714 52.2007C71.1441 54.7509 69.1436 59.6625 67.325 62.4016C64.7062 66.3371 60.1233 70.493 55.9769 72.6339C53.0307 74.1452 52.7397 74.2081 52.7397 73.2636Z" fill="white"/>
<path d="M31.462 73.1692C23.9329 71.7209 16.6949 67.2187 12.7667 61.583C9.34766 56.6085 7.92915 49.1468 9.23855 42.8184C11.3118 33.0269 19.4228 25.4077 30.3708 22.9834C34.4081 22.1019 42.3736 22.1019 46.411 22.9834C56.6679 25.2503 64.2334 31.799 67.1431 40.9294C68.0888 43.8889 68.0888 52.2007 67.1431 55.0973C64.3061 63.7239 56.8498 70.3671 47.2839 72.7284C43.6103 73.6729 35.2083 73.8933 31.462 73.1692Z" fill="white"/>
<path d="M12.694 66.4315C9.05678 62.496 6.87445 58.592 5.78328 54.0268C4.91035 50.3117 4.91035 49.7449 5.81965 49.7449C6.40161 49.7449 6.5471 49.9653 6.58347 50.7839C6.58347 51.3191 6.98356 53.0823 7.49277 54.625C8.00198 56.1992 8.47482 57.8364 8.62031 58.3401C8.72943 58.8124 8.94766 59.1902 9.09315 59.1902C9.23864 59.1902 9.67511 59.8199 10.0752 60.607C10.4389 61.3941 10.839 62.0238 11.0209 62.0238C11.1664 62.0238 11.2755 62.2441 11.2755 62.496C11.2755 62.7479 11.4573 62.9683 11.6392 62.9683C11.8574 62.9683 12.0029 63.1572 12.0029 63.4091C12.0029 63.6609 12.2575 63.9128 12.5485 64.0387C12.8395 64.1332 13.0941 64.3851 13.0941 64.574C13.0941 64.7944 13.3487 65.1092 13.6761 65.2981C14.0398 65.55 14.1853 66.0222 14.1125 66.7464L14.0034 67.8483L12.694 66.4315Z" fill="white"/>
<path d="M70.562 48.0133C70.562 46.4706 71.3986 45.9984 71.7623 47.2892C72.0533 48.2652 71.6895 49.4301 71.0712 49.4301C70.7075 49.4301 70.562 49.0208 70.562 48.0133Z" fill="white"/>
<path d="M5.27387 44.2037C5.67396 41.3701 6.83787 38.1273 8.54737 35.0418L10.1841 32.1453V25.817C10.1841 18.5756 10.1477 18.7016 13.2394 16.0884C14.8034 14.766 15.1671 14.2623 14.8398 13.9474C14.6215 13.7271 14.2214 13.5382 13.9668 13.5382C13.6759 13.5382 13.4576 13.3178 13.4576 13.0659C13.4576 12.751 13.8213 12.5936 14.6579 12.5936C16.1492 12.5936 16.7311 13.0659 16.7311 14.3253C16.7311 15.1438 16.2583 15.7106 14.1851 17.4422L11.639 19.5831V26.4467C11.639 30.2248 11.5299 33.3732 11.3844 33.4361C11.2025 33.4991 10.6206 34.4121 10.0386 35.5141C9.45667 36.5846 8.83835 37.4661 8.69286 37.4661C8.54737 37.4661 8.36551 37.8439 8.25639 38.3477C8.18365 38.8199 7.74718 40.3312 7.31071 41.685C6.91062 43.0703 6.5469 44.5815 6.5469 45.0853C6.5469 45.7779 6.36504 45.9668 5.78308 45.9668C5.05564 45.9668 5.01926 45.8724 5.27387 44.2037Z" fill="white"/>
<path d="M70.1983 45.0853C70.1983 43.637 68.8161 39.3552 67.6522 37.1828C67.0339 36.0808 66.561 34.79 66.561 34.2862C66.561 30.6656 70.7438 39.0718 71.4713 44.1723C71.7259 45.8724 71.6895 45.9669 70.9621 45.9669C70.3801 45.9669 70.1983 45.7779 70.1983 45.0853Z" fill="white"/>
<path d="M72.6716 34.4122C72.3443 34.0974 71.6896 33.1528 71.1803 32.2713C70.3438 30.823 68.4888 28.5247 65.9791 25.9115L64.9971 24.8725H66.0882C67.2521 24.8725 68.3797 25.6911 68.3797 26.5097C68.3797 26.793 68.707 27.0764 69.1071 27.1708C69.5072 27.2653 69.8346 27.5487 69.8346 27.832C69.8346 28.1154 70.0164 28.3358 70.1983 28.3358C70.4165 28.3358 70.562 28.5561 70.562 28.808C70.562 29.0599 70.7439 29.2803 70.9257 29.2803C71.144 29.2803 71.2895 29.5007 71.2895 29.7525C71.2895 30.0044 71.435 30.2248 71.5804 30.2248C71.7623 30.2248 72.1988 30.7915 72.5625 31.4842C72.9262 32.1768 73.5082 32.9639 73.8719 33.2473C74.7812 33.9399 74.7812 34.9474 73.9083 34.9474C73.5082 34.9474 72.9626 34.6956 72.6716 34.4122Z" fill="white"/>
<path d="M75.6543 32.9009C75.6543 31.3897 76.0908 31.0748 76.7818 32.1453C77.0728 32.649 77.0728 33.0268 76.7818 33.5621C76.1635 34.7585 75.6543 34.4436 75.6543 32.9009Z" fill="white"/>
<path d="M63.5423 31.2637C63.3968 31.1693 63.2877 30.7285 63.2877 30.3192C63.2877 29.847 63.0695 29.5951 62.633 29.5951C61.9056 29.5951 58.923 27.1078 58.923 26.5096C58.923 26.2892 58.5957 26.1318 58.1956 26.1318C57.7955 26.1318 57.359 25.9114 57.2499 25.6596C57.1044 25.4077 56.8134 25.1873 56.5225 25.1873C56.2315 25.1873 56.0133 25.0614 56.0133 24.8725C56.0133 24.715 55.7586 24.5576 55.4677 24.5576C55.1767 24.5576 54.9221 24.3372 54.9221 24.0854C54.9221 23.802 54.5947 23.6131 54.0492 23.6131C53.5399 23.6131 52.9216 23.3927 52.5943 23.1408C52.3033 22.889 51.7941 22.6686 51.5031 22.6686C51.1394 22.6686 50.9211 22.3852 50.9211 21.8815V21.0944L52.3033 21.5666C55.8678 22.8575 60.3415 25.7225 63.0331 28.4302C66.1611 31.6101 66.0884 31.4841 64.8517 31.4841C64.2697 31.4841 63.6514 31.3897 63.5423 31.2637Z" fill="white"/>
<path d="M73.8355 30.0673C73.8355 29.8155 73.69 29.5951 73.4718 29.5951C73.2899 29.5951 73.0353 29.2487 72.8898 28.808C72.7807 28.3672 72.5261 28.0209 72.3443 28.0209C72.1624 28.0209 72.0169 27.7375 72.0169 27.3912C72.0169 27.0448 71.7623 26.7615 71.4713 26.7615C71.144 26.7615 70.7803 26.5096 70.6711 26.2263C70.5256 25.9114 70.0528 25.4077 69.58 25.0928C68.9616 24.6835 68.7434 24.2113 68.7434 23.3612L68.7798 22.1963L70.3802 23.7075C71.9442 25.1873 75.0358 28.9969 75.5086 30.0044C75.6905 30.4137 75.5086 30.5396 74.7812 30.5396C74.1992 30.5396 73.8355 30.3507 73.8355 30.0673Z" fill="white"/>
<path d="M14.1853 26.919C14.1853 26.1633 14.3672 25.817 14.7309 25.817C15.0219 25.817 15.2765 26.0374 15.2765 26.3208C15.2765 26.6671 15.7129 26.5097 16.8405 25.7226C18.8773 24.2743 22.1872 22.3538 22.5873 22.3538C23.1692 22.3538 22.9146 23.6761 22.2963 24.1169C21.9326 24.3373 21.2051 24.5577 20.6596 24.5577C19.8957 24.5577 19.6411 24.7151 19.6411 25.1873C19.6411 25.5337 19.3502 25.943 19.0228 26.0374C18.6591 26.1633 18.0044 26.6671 17.5315 27.1394C16.8768 27.8005 16.3313 28.0209 15.422 28.0209C14.258 28.0209 14.1853 27.9579 14.1853 26.919Z" fill="white"/>
<path d="M64.2698 23.8964C63.7606 22.2278 65.7611 20.6851 67.5433 21.3777C68.6345 21.8185 68.5981 22.3537 67.5433 22.3537C66.5613 22.3537 65.4701 23.2353 65.4701 24.0224C65.4701 24.778 64.488 24.6835 64.2698 23.8964Z" fill="white"/>
<path d="M24.0056 22.0389C24.0056 21.2518 30.6254 19.4257 34.699 19.0479C36.9178 18.8275 37.0996 18.859 37.0996 19.4257C37.0996 19.9609 36.7723 20.0869 34.7354 20.2758C33.426 20.4017 31.3528 20.748 30.0798 21.0944C28.8431 21.4407 27.5337 21.7241 27.2064 21.7241C26.8426 21.7241 26.5517 21.8815 26.5517 22.0389C26.5517 22.2278 25.9697 22.3537 25.2786 22.3537C24.5876 22.3537 24.0056 22.1963 24.0056 22.0389Z" fill="white"/>
<path d="M14.1853 20.3702C14.1853 19.5202 14.6218 18.9535 17.0951 16.844C19.3502 14.9235 20.0049 14.1364 20.0049 13.4752C20.0049 12.4677 20.5504 12.3103 21.096 13.1919C21.8962 14.4827 21.4961 15.1754 18.3681 17.9145C16.6586 19.4257 15.2765 20.8425 15.2765 21.0314C15.2765 21.2518 15.0219 21.4092 14.7309 21.4092C14.3672 21.4092 14.1853 21.0944 14.1853 20.3702Z" fill="white"/>
<path d="M46.4837 21.1888C45.538 20.9999 45.6471 19.835 46.5564 19.835C47.6112 19.835 49.8299 20.6851 49.8299 21.0629C49.8299 21.4092 47.7203 21.4722 46.4837 21.1888Z" fill="white"/>
<path d="M40.0095 19.5202C40.0095 18.859 40.5915 18.7331 42.1191 19.0794C43.5376 19.4257 43.1012 20.1499 41.4644 20.1499C40.2641 20.1499 40.0095 20.0554 40.0095 19.5202Z" fill="white"/>
<path d="M6.47424 11.0509C5.20121 9.79158 5.20121 9.44525 6.36512 9.44525C7.41992 9.44525 7.74727 9.949 7.56541 11.2084L7.45629 12.0899L6.47424 11.0509Z" fill="white"/>
<path d="M17.4585 10.862C17.4585 10.2638 17.604 9.76006 17.7858 9.76006C17.9677 9.76006 18.2223 9.41373 18.3314 8.97296C18.5133 8.40624 18.8043 8.18585 19.459 8.18585C20.2955 8.18585 20.3319 8.24882 19.9682 9.03592C19.7499 9.50819 19.4226 10.0749 19.2044 10.3268C18.877 10.6416 18.877 10.8935 19.2044 11.3658C19.6045 11.901 19.5317 11.964 18.5497 11.964C17.5312 11.964 17.4585 11.8695 17.4585 10.862Z" fill="white"/>
<path d="M18.6227 5.3523C18.4045 4.65965 18.1862 3.80958 18.1862 3.46326C18.1862 2.99099 17.9316 2.83357 17.2769 2.83357C16.7677 2.83357 16.2585 2.64467 16.1494 2.39279C16.0403 2.14092 15.5674 1.85756 15.0582 1.76311C14.4399 1.60569 14.1853 1.35382 14.1853 0.787103C14.1853 0.0629673 14.258 0.0314832 15.1674 0.346325C17.677 1.16491 19.7139 3.24287 20.1867 5.44676C20.405 6.45425 20.3686 6.61167 19.7866 6.61167C19.3138 6.61167 18.9501 6.23386 18.6227 5.3523Z" fill="white"/>
<path d="M4.72852 5.91904C4.72852 4.97451 5.20135 4.09296 5.67419 4.09296C6.00154 4.09296 6.1834 4.47077 6.1834 5.1949C6.1834 6.07646 6.03792 6.29685 5.45596 6.29685C5.05587 6.29685 4.72852 6.10794 4.72852 5.91904Z" fill="white"/>
<path d="M7.12881 1.85756C7.89262 1.10195 10.3659 0.0314842 11.3844 0C11.7481 0 12.0027 0.220389 12.0027 0.566715C11.9663 1.1964 8.94742 2.51873 7.45616 2.51873C6.43773 2.51873 6.43773 2.51873 7.12881 1.85756Z" fill="white"/>
<path d="M33.0987 76.6009C30.5526 76.2231 25.6787 74.7119 22.8781 73.4525C14.6943 69.7374 8.36557 62.7479 6.11049 54.9399C5.45579 52.6415 5.3103 51.2562 5.3103 47.6985C5.34667 42.3462 6.03775 39.7645 8.72929 35.0419L10.5479 31.862V25.2818V18.7016L13.094 16.5292C15.8219 14.1994 15.931 13.5382 13.7123 13.5382C12.8757 13.5382 12.1847 13.1919 11.0207 12.2159C9.49311 10.925 9.45674 10.8306 9.45674 8.91002C9.45674 6.51723 10.0751 5.98199 13.0212 5.98199C14.9126 5.98199 15.0581 6.04496 17.204 7.87104C19.1317 9.47674 19.3864 9.82306 19.0226 10.2953C18.6953 10.7676 18.8044 11.0509 19.8228 11.964C22.0415 14.0105 21.9324 14.4827 18.3679 17.5996L15.2763 20.3388V23.7391V27.1079L17.3859 25.5651C25.4241 19.5831 37.2087 17.4737 47.393 20.1184C53.649 21.7556 58.1591 24.1483 62.5966 28.2413C65.6518 31.0749 66.8521 32.5861 68.5252 35.7975C70.853 40.3312 71.3986 42.6296 71.3986 48.1708C71.3986 52.5785 71.3259 53.3342 70.453 55.8214C65.9064 68.6984 53.1398 76.9473 37.9362 76.7899C35.7902 76.7584 33.6079 76.6639 33.0987 76.6009ZM46.1927 71.7839C55.7222 69.4226 63.2513 62.7479 66.0519 54.1528C66.9612 51.3507 66.9612 44.7705 66.0519 41.8739C63.1785 32.775 55.5767 26.1948 45.3198 23.928C41.3916 23.0779 35.3538 23.0779 31.4619 23.928C20.0411 26.4467 11.7118 34.6641 10.1114 45.0223C9.34762 49.9968 10.8753 56.3252 13.8578 60.6385C17.786 66.2742 25.024 70.7764 32.5531 72.2247C36.0448 72.9173 42.5191 72.6969 46.1927 71.7839Z" fill="black"/>
<path d="M8.2201 73.6729C5.56493 71.6264 0.581938 65.2666 0.109099 63.2831C-0.254623 61.6145 2.29143 60.2921 3.81907 61.3941C4.11004 61.6145 4.87386 62.5905 5.45582 63.5665C6.47424 65.2037 8.36559 67.4705 11.4572 70.8078C12.8757 72.2876 12.8757 73.0747 11.5663 74.0822C10.5116 74.8693 9.67499 74.7434 8.2201 73.6729Z" fill="black"/>
<path d="M72.8536 34.2548C72.4535 33.8455 71.7988 33.0269 71.4715 32.4287C70.4167 30.6341 68.198 27.9265 66.2339 26.0689C64.8881 24.778 64.3789 24.0539 64.3789 23.3927C64.3789 22.1963 65.361 21.4092 66.8522 21.4092C67.8343 21.4092 68.3435 21.7871 70.4894 24.0224C73.7993 27.3912 76.7455 31.5786 76.7455 32.901C76.7455 34.79 74.3085 35.6401 72.8536 34.2548Z" fill="black"/>
<path d="M9.05656 12.9085C7.60168 12.2473 5.71032 10.3583 5.09199 9.00447C4.2918 7.11542 4.87376 4.12442 6.40139 2.55022C7.67442 1.25937 10.6933 0 12.621 0C15.2035 0 18.1496 1.57421 19.3499 3.58919C20.4774 5.50973 20.6229 7.80807 19.6773 9.38228C19.2408 10.1064 18.8043 10.7046 18.6588 10.7046C18.5497 10.7046 17.4222 9.85454 16.1491 8.81556C13.7486 6.80058 12.8029 6.5487 11.348 7.43026C9.85675 8.31181 10.2568 9.63415 12.621 11.7121L14.6943 13.5382H12.5483C11.1298 13.5067 9.89313 13.2863 9.05656 12.9085Z" fill="#0074E2"/>
</svg>
