<svg width="77" height="77" viewBox="0 0 77 77" fill="none" xmlns="http://www.w3.org/2000/svg">
<path d="M37.3467 76.985C32.6188 76.8579 27.81 75.7983 23.3981 73.9182C13.2488 69.5837 5.45373 61.1267 1.97044 50.6701C1.01869 47.8075 0.413741 44.914 0.144017 41.9473C-0.0486431 39.7936 -0.0486431 37.1736 0.14787 35.0315C1.09576 24.5749 6.27446 14.9582 14.4779 8.40834C20.3733 3.70403 27.5287 0.829809 35.0348 0.147856C37.1849 -0.0486385 39.7896 -0.0486385 41.9513 0.144003C53.5687 1.19198 64.0841 7.44898 70.5574 17.162C73.8519 22.109 75.9558 27.7457 76.7033 33.6444C76.9191 35.3435 77 36.6342 77 38.499C77 40.3638 76.9191 41.6622 76.7033 43.3536C75.5011 52.7892 70.8618 61.4311 63.6718 67.6419C59.8687 70.9283 55.449 73.4365 50.6749 75.0278C46.3362 76.4726 41.9898 77.1083 37.3467 76.985ZM38.9419 61.9089C39.177 61.774 39.6316 61.5159 39.9476 61.3386C40.2674 61.1576 40.7953 60.857 41.1228 60.6721C41.8819 60.2406 42.7219 59.7667 43.4347 59.3621C44.0474 59.0154 44.8335 58.5684 45.739 58.056C46.0588 57.8749 46.5905 57.5744 46.9142 57.3933C47.6617 56.9695 48.5017 56.4918 49.2261 56.0834C49.9929 55.648 50.7867 55.1972 51.6421 54.7118C52.0351 54.4883 52.4628 54.2494 52.5938 54.1762L52.8366 54.0452V38.3834V22.7216L52.1892 22.3556C51.8347 22.1553 51.33 21.8702 51.0641 21.7199C50.7982 21.5696 50.305 21.2884 49.9659 21.0957C49.2685 20.7027 48.1588 20.0709 47.3188 19.597C47.0028 19.4198 46.4942 19.1269 46.1821 18.9497C45.8661 18.7725 45.3459 18.4797 45.0261 18.2947C44.7025 18.1136 44.1784 17.817 43.8586 17.6359C43.5426 17.4548 43.0263 17.162 42.7142 16.9848C42.3982 16.8075 41.8164 16.4762 41.4118 16.2489C39.9091 15.3974 39.4737 15.1508 39.0036 14.885C38.7338 14.7308 38.4949 14.6191 38.4641 14.6345C38.4333 14.6461 38.1366 14.8079 37.8091 14.9928C37.4816 15.1816 36.8843 15.5207 36.4797 15.748C36.079 15.9753 35.4933 16.3067 35.1812 16.4839C34.8652 16.6611 34.3528 16.9539 34.0329 17.135C33.717 17.3161 33.1891 17.6128 32.8693 17.7939C32.5456 17.9788 32.0254 18.2716 31.7133 18.4488C31.3973 18.6261 30.8772 18.9227 30.5573 19.1038C30.2337 19.2888 29.7135 19.5816 29.4014 19.7588C28.7386 20.1325 27.9141 20.6026 27.1087 21.0611C25.5289 21.9511 25.0357 22.2323 24.6234 22.4674L24.1687 22.7216V38.3873V54.0529L24.2651 54.0953C24.319 54.1223 24.6273 54.2918 24.9509 54.4729C25.2746 54.6578 25.7909 54.9506 26.1069 55.1279C26.419 55.3051 26.9353 55.5979 27.2513 55.779C27.5711 55.9601 28.0836 56.2529 28.3996 56.4301C28.7117 56.6073 29.228 56.8963 29.544 57.0774C29.8638 57.2585 30.384 57.5513 30.6999 57.7324C31.0197 57.9135 31.5438 58.2101 31.8674 58.3951C32.1873 58.5761 32.7151 58.8728 33.0311 59.0539C33.3509 59.235 33.8634 59.5278 34.1794 59.705C35.0849 60.2175 36.1599 60.8262 36.8265 61.2038C37.1656 61.3964 37.6781 61.6892 37.9632 61.8511C38.2483 62.0167 38.4911 62.1516 38.4988 62.1554C38.5065 62.1554 38.703 62.0437 38.9419 61.9089Z" fill="#13B5EC"/>
<path d="M32.5802 56.1796L26.8274 52.8238V46.8172V40.8107H26.9661C27.0778 40.8107 28.1336 41.4117 32.7844 44.1241C35.9055 45.9465 38.4833 47.4376 38.5064 47.4376C38.5296 47.4376 41.1035 45.9465 44.2285 44.1241C48.8253 41.4425 49.935 40.8107 50.0429 40.8107H50.1778V46.8172V52.8238L44.425 56.1796C39.123 59.2735 38.6606 59.5355 38.5026 59.5355C38.3446 59.5355 37.8591 59.2619 32.5802 56.1796Z" fill="#13B5EC"/>
<path d="M32.5996 41.1459L28.2955 38.6338V38.499V38.3641L32.5957 35.8598C35.9441 33.9103 36.9267 33.3516 37.0423 33.3439L37.1926 33.3323V38.4951V43.6618L37.05 43.6579C36.9306 43.6579 36.1368 43.2072 32.5996 41.1459Z" fill="#13B5EC"/>
<path d="M39.8127 38.499V33.3362H39.9515C40.0632 33.3362 40.8839 33.7985 44.4019 35.8521L48.7136 38.3641V38.499V38.6338L44.4019 41.1497C40.8839 43.1994 40.0632 43.6618 39.9515 43.6618H39.8127V38.499Z" fill="#13B5EC"/>
<path d="M26.8274 31.0283V25.8617H26.9545C27.047 25.8617 28.1182 26.4704 31.3934 28.3815C35.6975 30.8935 35.709 30.9012 35.7206 31.0283L35.7283 31.1593L31.432 33.6637C28.0296 35.6441 27.101 36.1719 26.9777 36.1796L26.8274 36.1912V31.0283Z" fill="#13B5EC"/>
<path d="M45.5849 33.6714C41.3117 31.1786 41.2808 31.1593 41.277 31.0361C41.277 30.9166 41.2962 30.9051 45.608 28.3892C48.7907 26.5321 49.9737 25.8617 50.0584 25.8617H50.1779V31.0245V36.1873L50.0353 36.1834C49.9159 36.1834 49.1414 35.7442 45.5849 33.6714Z" fill="#13B5EC"/>
<path d="M33.3201 26.5706L28.311 23.7041L28.2994 23.5731L28.2878 23.4421L29.3205 22.8295C29.8869 22.4905 30.962 21.8509 31.7018 21.4117C32.4454 20.9725 33.1737 20.5371 33.3201 20.4485C33.586 20.2867 33.9598 20.0632 36.5568 18.5221C37.3005 18.0828 38.0018 17.6629 38.1174 17.5935C38.5335 17.3392 38.0403 17.0849 43.6852 20.4446L48.6944 23.4267L48.706 23.5616L48.7175 23.6964L43.6891 26.5706C39.1115 29.1867 38.6414 29.4449 38.495 29.441C38.3486 29.4371 37.7089 29.0827 33.3201 26.5706Z" fill="#13B5EC"/>
<path d="M37.8862 61.9898C37.578 61.8125 37.0501 61.512 36.711 61.3194C35.636 60.7106 34.6495 60.152 34.0523 59.8129C33.7363 59.6318 33.2238 59.3429 32.9156 59.1695C32.2027 58.7649 31.3627 58.291 30.6037 57.8595C30.2761 57.6746 29.7521 57.3779 29.44 57.2007C29.124 57.0234 28.6039 56.7268 28.284 56.5457C27.9604 56.3608 27.444 56.0679 27.1358 55.8946C25.9259 55.2088 25.3595 54.889 24.8162 54.5807C24.504 54.4035 24.2035 54.2378 24.1496 54.2109L24.0532 54.1685V38.3873V22.606L24.3345 22.4481C24.4848 22.3633 24.8971 22.1321 25.2477 21.9318C25.5984 21.7353 26.1185 21.4386 26.4037 21.2768C26.6888 21.115 27.209 20.8183 27.5596 20.6218C27.9103 20.4253 28.4305 20.1287 28.7156 19.9668C29.0007 19.805 29.5209 19.5084 29.8716 19.3119C30.2222 19.1154 30.7424 18.8187 31.0275 18.6569C31.3127 18.4951 31.8328 18.1984 32.1835 18.0019C32.5341 17.8054 33.0543 17.5087 33.3394 17.3469C33.6246 17.1851 34.1448 16.8884 34.4954 16.6919C34.846 16.4954 35.3662 16.1988 35.6514 16.037C35.9365 15.8751 36.4567 15.5785 36.8073 15.382C37.158 15.1855 37.682 14.885 37.9748 14.7193L38.5066 14.4188L39.2271 14.831C39.913 15.2202 40.3754 15.4821 41.6739 16.2142C41.986 16.3914 42.5024 16.6842 42.8183 16.8653C43.1381 17.0464 43.6583 17.3392 43.9743 17.5203C44.2941 17.7014 44.8066 17.9942 45.1225 18.1714C45.4346 18.3487 45.9548 18.6415 46.2785 18.8264C48.1319 19.8744 49.099 20.4253 50.0816 20.9801C50.4207 21.1728 50.9139 21.454 51.1798 21.6043C51.4456 21.7546 51.9504 22.0397 52.3049 22.24L52.9522 22.606V38.3834V54.1608L52.7095 54.2918C52.5785 54.365 52.1508 54.6039 51.7577 54.8273C51.3647 55.0508 50.7944 55.3744 50.4862 55.5478C50.1779 55.7212 49.6616 56.014 49.3418 56.1989C48.5904 56.6228 47.7504 57.0967 47.0299 57.5089C46.3055 57.9173 45.4655 58.3951 44.718 58.8189C44.3943 59 43.8702 59.2966 43.5504 59.4777C43.2345 59.6588 42.7066 59.9555 42.3868 60.1365C41.0882 60.8724 40.649 61.1229 39.9477 61.5197C39.547 61.747 39.0692 62.0167 38.8881 62.1208C38.707 62.2248 38.5336 62.3095 38.5027 62.3095C38.4719 62.3095 38.1945 62.1631 37.8862 61.9898ZM44.3326 56.0525L50.0623 52.7083V46.8173C50.0623 43.577 50.0546 40.9263 50.0431 40.9263C50.0315 40.9263 47.4345 42.4366 44.2748 44.2821C39.3736 47.1409 38.5104 47.6302 38.4411 47.5956C38.3948 47.5763 35.8016 46.066 32.6728 44.2436C29.544 42.4173 26.9778 40.9263 26.9662 40.9263C26.9547 40.9263 26.9431 43.577 26.9431 46.8173V52.7083L32.696 56.0641C36.3218 58.1832 38.4719 59.4161 38.522 59.4084C38.5644 59.4006 41.1769 57.8903 44.3326 56.0525ZM37.077 38.4951C37.077 35.5554 37.0616 33.4518 37.0424 33.4595C36.9615 33.4903 28.4112 38.4836 28.4112 38.499C28.4112 38.5221 37.0038 43.5385 37.0501 43.5424C37.0655 43.5462 37.077 41.273 37.077 38.4951ZM44.2864 41.0342C46.6561 39.651 48.5981 38.5106 48.5981 38.499C48.5981 38.4797 39.9862 33.4518 39.9515 33.4518C39.94 33.4518 39.9284 35.725 39.9284 38.499C39.9284 41.2769 39.94 43.5462 39.9515 43.5462C39.9631 43.5462 41.9128 42.4135 44.2864 41.0342ZM31.3127 33.5481C33.6747 32.1726 35.5936 31.0322 35.582 31.0168C35.5627 31.0014 30.1567 27.8421 26.9739 25.9888C26.9547 25.9811 26.9431 28.2466 26.9431 31.0245C26.9431 34.1838 26.9585 36.0717 26.9778 36.064C27.0009 36.0602 28.9506 34.9274 31.3127 33.5481ZM50.0623 31.0206V25.9696L49.939 26.0466C49.8697 26.089 47.9161 27.2294 45.5965 28.5779C41.6354 30.8896 41.3888 31.0399 41.4736 31.0861C41.5236 31.1131 43.4657 32.2458 45.7853 33.602C48.1049 34.9582 50.0161 36.0679 50.0354 36.0679C50.0508 36.0717 50.0623 33.7985 50.0623 31.0206ZM43.5735 26.455C46.3401 24.8715 48.5904 23.5654 48.5712 23.55C48.5172 23.4922 38.68 17.6436 38.5721 17.6051C38.4835 17.5704 38.4411 17.5819 38.2446 17.7014C38.1213 17.7746 37.4161 18.1984 36.6725 18.6376C34.0754 20.1788 33.7016 20.4022 33.4358 20.564C33.2893 20.6527 32.5611 21.088 31.8174 21.5272C28.835 23.2996 28.4035 23.5577 28.4228 23.577C28.4728 23.627 38.4526 29.3215 38.495 29.3254C38.5181 29.3292 40.8069 28.0347 43.5735 26.455Z" fill="white"/>
</svg>
