<svg width="83" height="62" viewBox="0 0 83 62" fill="none" xmlns="http://www.w3.org/2000/svg">
<path d="M5.43164 61.7501C4.21705 61.4371 3.06507 60.786 2.15099 59.8844C1.23692 58.9829 0.723537 58.194 0.335369 57.0921C0.0473738 56.3033 0.047374 56.1781 0.00980934 49.5166C-0.0152338 43.4311 -0.0027123 42.7049 0.172589 42.5296C0.360413 42.3543 1.42474 42.3292 11.0663 42.3292C16.9389 42.3292 21.8349 42.3668 21.9476 42.4044C22.1855 42.492 22.2105 42.8802 21.9851 43.1056C21.8975 43.1932 21.7848 43.356 21.7472 43.4562C21.6846 43.644 19.9441 46.5239 19.1803 47.701C18.9925 48.014 18.8172 48.302 18.7921 48.3396C18.7796 48.3897 18.116 49.4916 17.3271 50.7938C16.5383 52.096 15.2986 54.1621 14.5598 55.4017C12.0555 59.5714 11.8928 59.7968 10.5029 60.7359C8.98776 61.7627 7.02188 62.1634 5.43164 61.7501Z" fill="#607FF2"/>
<path d="M24.8024 61.8254C24.7023 61.7127 24.8024 61.4497 25.153 60.8612C25.4285 60.4104 25.704 59.9221 25.7791 59.7593C25.8417 59.6091 26.1047 59.1708 26.3426 58.7951C26.5805 58.407 26.7808 58.0689 26.7808 58.0439C26.7808 58.0063 27.1815 57.2926 27.6699 56.4411C28.1707 55.6022 28.7342 54.6004 28.9471 54.2248C29.1474 53.8491 29.3603 53.486 29.4104 53.4109C29.5105 53.2857 30.4622 51.6453 31.1383 50.4683C31.5641 49.717 33.0416 47.1501 34.2061 45.1216C34.732 44.2075 35.308 43.2434 35.4833 42.9679C35.6586 42.6924 35.7964 42.4295 35.7964 42.4044C35.7964 42.3794 36.0593 41.9036 36.3724 41.3652C36.6979 40.8267 37.8374 38.8734 38.9017 37.0077C39.966 35.1545 41.0178 33.3263 41.2307 32.9507C41.4436 32.5875 41.7316 32.0742 41.8818 31.8237C42.0196 31.5733 42.4703 30.8095 42.871 30.1208C43.2717 29.4321 43.735 28.6182 43.9103 28.3052C44.0731 27.9921 44.2609 27.6916 44.311 27.6165C44.3611 27.5539 44.9371 26.5647 45.5882 25.4252C46.2393 24.2858 47.6417 21.8691 48.6936 20.0535C49.7454 18.2253 50.697 16.56 50.8222 16.3471C50.9474 16.1342 51.4859 15.1951 52.0243 14.2685C52.5502 13.3419 53.4142 11.8644 53.9276 10.9628C54.4535 10.0738 55.042 9.03451 55.2549 8.67139C55.4677 8.29574 55.8434 7.65714 56.0813 7.23141C56.3317 6.80568 56.6447 6.26725 56.77 6.02934C57.4586 4.86484 58.0221 3.90068 59.0238 2.16018C59.8002 0.807856 60.2134 0.206822 60.4263 0.119171C60.7643 -0.00604444 81.6002 -0.0436095 81.9258 0.081606C82.0384 0.119171 82.1261 0.206822 82.1261 0.269429C82.1261 0.369602 80.8865 2.56087 78.9707 5.829C78.0441 7.41923 78.1442 7.24393 76.9797 9.27242C76.4914 10.1364 75.978 11.0129 75.8653 11.2133C75.7526 11.4261 75.114 12.5155 74.4629 13.655C72.7224 16.6727 70.5938 20.3665 68.4526 24.0478C68.0769 24.699 66.9625 26.6523 65.9733 28.3678C64.9841 30.0958 63.9323 31.9239 63.6192 32.4373C63.3062 32.9507 62.9306 33.6018 62.7803 33.8773C62.63 34.1527 62.0916 35.1169 61.5657 36.0059C61.0523 36.9075 60.0381 38.648 59.3244 39.8876C58.6106 41.1272 57.9845 42.1665 57.9345 42.1791C57.8719 42.2041 57.8343 42.2792 57.8343 42.3418C57.8343 42.442 56.4194 44.9714 55.9561 45.7101C55.8809 45.8103 55.4427 46.5741 54.9669 47.4005C54.5036 48.227 53.8023 49.4416 53.4267 50.0927C53.0511 50.7438 52.0744 52.4342 51.2605 53.8491C50.4466 55.2641 49.3822 57.0922 48.9064 57.9186C48.4181 58.7451 47.7419 59.9346 47.3913 60.5732C47.0157 61.2494 46.64 61.7753 46.4647 61.8629C46.0139 62.0633 24.9777 62.0382 24.8024 61.8254Z" fill="#607FF2"/>
<path d="M25.3535 35.3799C25.0404 34.8539 24.7775 34.4032 24.7775 34.3656C24.7775 34.328 24.7149 34.2404 24.6523 34.1527C24.5145 33.99 21.7723 29.4446 21.7723 29.382C21.7723 29.357 21.4968 28.9313 21.1713 28.4179C20.8332 27.9045 20.5327 27.4287 20.5076 27.3661C20.4826 27.2909 20.0819 26.6022 19.6186 25.8384C19.1428 25.0746 18.7671 24.3859 18.7671 24.3108C18.7671 24.2357 18.717 24.1731 18.667 24.1731C18.6044 24.1731 18.4917 24.0478 18.4165 23.8976C18.1411 23.3592 17.7028 22.6079 16.7386 21.0302C16.2002 20.1536 15.762 19.3898 15.762 19.3147C15.762 19.2396 15.7244 19.1644 15.6618 19.1394C15.5366 19.0893 12.7568 14.4438 12.7568 14.2936C12.7568 14.231 12.7067 14.1558 12.6566 14.1308C12.5564 14.0932 11.7551 12.8285 11.7551 12.7158C11.7551 12.6783 11.4546 12.1899 11.0914 11.614C10.7283 11.0505 9.16311 8.47104 7.63548 5.8916C6.09533 3.31216 4.70544 0.983155 4.54266 0.732724C4.25466 0.281948 4.25466 0.256905 4.48005 0.131689C4.75552 -0.00604784 46.7278 -0.0561342 47.429 0.0816028C47.6418 0.131689 47.8171 0.21934 47.8171 0.281948C47.8171 0.432207 45.0373 5.06518 44.9121 5.11527C44.8495 5.14031 44.812 5.21544 44.812 5.27805C44.812 5.34065 44.3111 6.22968 43.685 7.26897C43.0715 8.30826 42.5581 9.18477 42.5581 9.22233C42.5581 9.32251 42.0071 10.0863 41.907 10.1239C41.8443 10.1489 41.8068 10.2366 41.8068 10.3242C41.8068 10.3994 41.619 10.7625 41.3811 11.1131C40.9553 11.7642 38.9143 15.1075 38.8016 15.3454C38.7515 15.4455 37.4493 17.6243 35.9217 20.1662C33.2796 24.5362 30.4873 29.2192 30.4247 29.3695C30.3997 29.4321 30.2619 29.6575 30.1117 29.8704C29.9614 30.0707 29.7986 30.3462 29.7235 30.4589C29.4856 30.8971 26.9187 35.1294 26.543 35.7305C26.3302 36.056 26.1048 36.319 26.0422 36.319C25.9796 36.319 25.6665 35.8932 25.3535 35.3799Z" fill="#FC3782"/>
</svg>
