<svg width="76" height="77" viewBox="0 0 76 77" fill="none" xmlns="http://www.w3.org/2000/svg">
<path d="M34.478 75.8554C30.9813 75.4566 26.6258 74.3831 23.8039 73.2482C13.682 69.1994 5.52307 60.7645 2.02639 50.7345C0.278051 45.6735 -0.0286749 43.7411 0.00199771 37.5453C0.0326703 32.4843 0.124688 31.5641 0.799486 28.9263C2.70119 21.8102 5.58441 16.5652 10.3693 11.5349C15.3383 6.28988 21.3195 2.85455 28.9263 0.799486C31.5641 0.124688 32.4843 0.0326703 37.5453 0.00199771C43.7411 -0.0286749 45.6735 0.278051 50.7345 2.02639C62.5741 6.16719 71.8679 16.5039 74.8125 28.8036C76.3155 35.0301 76.3768 39.7844 75.0886 45.8882C71.96 60.8565 59.3842 72.8801 44.2626 75.3646C40.2751 76.0394 37.1772 76.1928 34.478 75.8554ZM29.6931 64.0464C30.1532 62.8502 29.5397 62.0834 27.2086 61.0098C20.8594 58.0653 16.5039 53.219 14.1727 46.4403C13.2219 43.6185 13.1912 43.3731 13.1606 38.4655C13.1606 34.1099 13.2526 33.0671 13.866 31.012C15.9211 23.9266 20.2766 18.8963 27.546 15.3076C28.8956 14.6328 29.5091 14.1421 29.6931 13.5286C30.2145 12.0563 29.5704 11.8723 27.3006 12.8232C16.4425 17.4547 9.05042 29.5397 10.2773 40.6739C11.0135 47.2685 13.9887 53.2803 18.7736 57.8506C21.6569 60.6111 23.2212 61.7153 26.5338 63.3103C29.417 64.6906 29.4477 64.7212 29.6931 64.0464ZM49.6303 63.0956C58.28 58.8628 64.3225 50.3051 65.5187 40.6432C66.3469 33.6805 63.4023 25.4909 57.7892 19.3257C56.1329 17.4854 52.1761 14.6635 49.3542 13.3139C46.5017 11.903 46.2563 11.8723 45.9803 12.7005C45.6735 13.682 46.4097 14.5408 48.2194 15.369C54.906 18.3136 60.0283 24.2334 61.9607 31.2574C62.6355 33.7419 62.8809 40.0298 62.3901 43.005C61.1632 50.7038 55.9795 57.5132 48.7715 60.8871C46.5324 61.93 45.6429 62.9115 45.9803 63.9237C46.2256 64.6906 46.5937 64.5985 49.6303 63.0956ZM38.8642 56.1942C39.2323 55.8875 39.3856 55.2127 39.447 53.6791L39.539 51.5627L40.9499 51.1639C45.5202 49.8143 48.3114 45.3668 46.9311 41.7168C45.8882 39.0176 43.097 37.3612 38.4655 36.6558C32.6377 35.7663 31.7175 35.0608 31.7175 31.5334C31.7175 29.6011 31.8095 29.2023 32.515 28.3742C33.5272 27.1473 35.2448 26.6872 38.1894 26.9019C41.226 27.0859 42.2382 27.638 43.2197 29.6011C43.9559 31.012 44.1092 31.1347 44.9987 31.0427C46.287 30.92 46.3483 30.3065 45.2748 28.7116C44.2626 27.2086 42.5449 25.951 40.7966 25.4296L39.539 25.0615L39.447 22.9451C39.355 20.5527 39.0482 20.0619 37.8213 20.0619C36.6865 20.0619 36.3184 20.798 36.3184 23.0985C36.3184 24.9082 36.3184 24.9082 35.3369 25.1229C32.6683 25.7057 30.0612 27.7607 29.141 29.9998C28.4969 31.5334 28.5275 32.8217 29.233 34.3247C30.4599 36.9625 32.4843 38.0667 37.8213 39.0789C43.3424 40.1218 44.2933 40.8886 44.2933 44.2933C44.2933 45.9189 44.1399 46.563 43.5878 47.3912C42.5142 49.0475 41.226 49.5076 37.8827 49.5076C33.8952 49.5076 32.6377 48.9248 31.4721 46.4097C30.828 44.9987 30.4599 44.5693 29.7851 44.4159C29.2943 44.3239 28.7422 44.3853 28.4969 44.6C28.0981 44.9067 28.1288 45.1214 28.5275 46.0723C29.5704 48.6181 31.7788 50.4278 34.7234 51.1639L36.165 51.532L36.3184 53.6791C36.5024 56.1022 36.6865 56.5623 37.668 56.5623C38.036 56.5623 38.5882 56.3783 38.8642 56.1942Z" fill="#2775CA"/>
<path d="M28.0369 65.3354C26.3805 64.722 23.1293 63.035 21.5956 61.9921C18.0683 59.569 14.1115 55.0294 12.1485 51.134C10.1547 47.2693 9.01985 41.8095 9.17321 37.178C9.60263 26.1358 16.3199 16.3206 26.4726 11.9037C29.9999 10.3394 30.7974 10.5541 30.7974 13.0079C30.7974 14.8176 30.276 15.5231 28.2823 16.3819C23.4053 18.4677 18.9884 22.6392 16.504 27.4854C14.6636 31.1048 14.0808 33.7426 14.1115 38.4662C14.1115 42.331 14.1728 42.8217 15.1237 45.5209C17.4241 52.2689 21.7797 57.1458 28.1289 60.0904C30.5214 61.1946 30.7974 61.532 30.7974 63.5564C30.7974 64.8447 30.3066 65.7649 29.6318 65.7342C29.3558 65.7342 28.6196 65.5501 28.0369 65.3354Z" fill="white"/>
<path d="M45.3976 65.304C44.7841 64.6599 44.7535 62.4514 45.3669 61.5619C45.6123 61.2245 46.7472 60.4884 47.8514 59.967C59.783 54.3845 65.0894 40.1524 59.6297 28.4048C57.0838 22.9758 52.759 18.6816 47.2993 16.2891C46.3484 15.8597 45.4283 15.2463 45.2442 14.9089C44.8148 14.1114 44.8148 12.2404 45.2135 11.4429C45.6736 10.6147 46.5631 10.7067 49.2317 11.903C64.3839 18.4976 70.8559 36.073 63.6478 50.8879C60.7339 56.8384 55.3355 62.022 49.3543 64.6292C46.6858 65.7641 46.011 65.8868 45.3976 65.304Z" fill="white"/>
<path d="M35.7969 57.1144C35.6742 56.8997 35.4902 55.7648 35.3982 54.5993L35.2448 52.4522L33.7418 52.0841C30.5826 51.256 28.1901 49.0475 27.3006 46.0723C26.6871 44.1399 27.2086 43.3731 29.0489 43.3731C31.1653 43.3731 31.5027 43.5878 32.3923 45.5202C33.0977 46.9925 33.4965 47.4219 34.57 47.9433C36.2877 48.7715 39.3856 48.8328 40.9192 48.0353C43.1583 46.9311 44.0785 44.0479 42.7289 42.3302C41.7781 41.134 40.7966 40.7352 36.9011 39.9991C31.5641 38.9869 29.5397 37.8827 28.3128 35.2449C27.6073 33.7112 27.546 30.6746 28.2208 29.0797C29.141 26.8406 31.7481 24.7855 34.4166 24.2027C35.3982 23.988 35.3982 23.988 35.3982 22.1783C35.3982 19.4791 35.6742 19.1417 37.8213 19.1417C38.9255 19.1417 39.7537 19.2951 39.9377 19.5405C40.1218 19.7552 40.3058 20.8901 40.3671 22.025L40.4592 24.1414L41.7167 24.5094C44.3853 25.2762 46.747 27.6994 47.1765 30.0612C47.4832 31.6255 47.0231 32.0242 44.876 32.0242H43.0663L42.2995 30.4906C41.4407 28.7729 40.4898 28.1595 38.2814 27.8834C34.9994 27.4233 32.6376 28.9876 32.6376 31.5335C32.6376 34.0486 34.0486 34.9381 39.3856 35.7356C45.8575 36.7171 48.4954 39.2936 48.25 44.3546C48.1273 46.195 47.9433 46.8698 47.1765 48.0967C46.1336 49.845 43.9558 51.4707 41.8701 52.0841L40.4592 52.4829L40.3671 54.5993C40.2751 57.1451 39.9377 57.4825 37.6679 57.4825C36.7171 57.4825 35.9503 57.3291 35.7969 57.1144Z" fill="white"/>
</svg>
