<svg width="160" height="21" viewBox="0 0 160 21" fill="none" xmlns="http://www.w3.org/2000/svg">
<path d="M72.2079 10.3328C72.2079 8.1446 72.2098 5.95641 72.204 3.76822C72.203 3.58998 72.2544 3.49215 72.4113 3.40206C74.3438 2.29392 76.2733 1.179 78.2 0.0602025C78.3278 -0.0143839 78.4199 -0.0230966 78.5535 0.0534271C80.4802 1.17222 82.4088 2.28714 84.3412 3.39625C84.504 3.49021 84.5631 3.58998 84.5631 3.77984C84.5573 8.14751 84.5573 12.5161 84.5631 16.8838C84.5631 17.0853 84.4953 17.187 84.3267 17.2839C82.402 18.3901 80.4812 19.5021 78.5623 20.618C78.4344 20.6926 78.3424 20.7013 78.2087 20.6238C76.2753 19.5001 74.3389 18.3823 72.3997 17.2693C72.2524 17.1841 72.204 17.0892 72.204 16.9216C72.2098 14.7247 72.2079 12.5287 72.2079 10.3328ZM83.4259 11.3228C83.329 11.3741 83.2583 11.4099 83.1895 11.4497C81.6639 12.3292 80.1373 13.2068 78.6155 14.0941C78.447 14.1919 78.3259 14.1997 78.1535 14.0989C76.6327 13.2107 75.1051 12.334 73.5795 11.4545C73.5059 11.4119 73.4294 11.3751 73.3325 11.3237C73.3257 11.4051 73.318 11.4526 73.318 11.5C73.317 13.1061 73.3199 14.7121 73.3131 16.3181C73.3121 16.4808 73.3916 16.5467 73.5127 16.6165C75.0673 17.5105 76.622 18.4056 78.1719 19.3084C78.3288 19.3994 78.4412 19.3936 78.5942 19.3045C80.1373 18.4056 81.6833 17.5125 83.2331 16.6252C83.39 16.5351 83.4414 16.4353 83.4414 16.2581C83.4346 14.7014 83.4375 13.1438 83.4365 11.5872C83.4375 11.5087 83.4307 11.4303 83.4259 11.3228ZM82.8689 3.86024C82.7982 3.81181 82.7672 3.78662 82.7333 3.76725C81.3355 2.95939 79.9368 2.15444 78.5429 1.34174C78.4034 1.26037 78.3065 1.29427 78.1845 1.36498C76.8167 2.15831 75.4471 2.94777 74.0774 3.73916C74.0231 3.77016 73.9728 3.8089 73.9059 3.85346C73.9456 3.88542 73.967 3.90771 73.9931 3.92224C75.4122 4.74172 76.8303 5.56217 78.2532 6.3739C78.323 6.41362 78.4586 6.40005 78.5332 6.3584C79.126 6.02615 79.712 5.68131 80.301 5.34131C81.1457 4.85311 81.9903 4.36685 82.8689 3.86024ZM73.3325 9.36511C74.6508 8.60375 75.9353 7.86175 77.2575 7.09845C75.9324 6.33225 74.6489 5.59026 73.3325 4.8289C73.3325 6.35646 73.3325 7.83463 73.3325 9.36511ZM77.8028 12.6024C77.8028 11.0777 77.8028 9.59565 77.8028 8.07486C76.4903 8.83429 75.2078 9.57627 73.8904 10.3386C75.2204 11.1077 76.499 11.8478 77.8028 12.6024ZM83.4249 4.82793C82.1104 5.58929 80.827 6.33225 79.5038 7.09845C80.8318 7.86466 82.1172 8.60568 83.4249 9.36026C83.4249 7.83657 83.4249 6.35646 83.4249 4.82793ZM78.9565 12.6033C80.2719 11.842 81.5544 11.1009 82.8747 10.3367C81.5467 9.57046 80.2642 8.83041 78.9565 8.07486C78.9565 9.60437 78.9565 11.0806 78.9565 12.6033Z" fill="white"/>
<path d="M160 5.40329C160 8.68897 160 11.9407 160 15.2138C159.331 15.2138 158.666 15.2138 157.976 15.2138C157.976 13.2465 157.976 11.285 157.976 9.3244C157.959 9.31859 157.942 9.31278 157.925 9.306C156.896 10.8278 155.869 12.3495 154.826 13.8916C153.779 12.3485 152.751 10.8345 151.723 9.31956C151.704 9.32537 151.687 9.33119 151.669 9.337C151.669 11.2898 151.669 13.2436 151.669 15.2216C151.564 15.2274 151.486 15.2351 151.407 15.2351C150.907 15.2361 150.406 15.2255 149.908 15.241C149.693 15.2477 149.63 15.1896 149.631 14.9688C149.64 13.4121 149.635 11.8545 149.635 10.2969C149.635 8.77228 149.635 7.24858 149.635 5.72392C149.635 5.62802 149.635 5.53115 149.635 5.40329C150.129 5.40329 150.595 5.42557 151.057 5.39554C151.361 5.37617 151.524 5.49047 151.685 5.73554C152.672 7.23405 153.676 8.72191 154.674 10.2127C154.718 10.2785 154.767 10.3405 154.826 10.4229C154.89 10.3328 154.943 10.2611 154.992 10.1875C156.013 8.66282 157.037 7.13912 158.052 5.61058C158.156 5.45463 158.264 5.39457 158.45 5.39942C158.957 5.41201 159.464 5.40329 160 5.40329Z" fill="white"/>
<path d="M123.548 15.2361C122.985 15.2361 122.445 15.2448 121.906 15.2274C121.816 15.2245 121.709 15.1247 121.645 15.0424C120.13 13.0963 118.62 11.1474 117.108 9.19847C117.064 9.14229 117.017 9.08902 116.933 8.98731C116.933 11.0932 116.933 13.1428 116.933 15.2138C116.225 15.2138 115.542 15.2138 114.839 15.2138C114.839 11.9553 114.839 8.70059 114.839 5.41782C114.927 5.41297 115.013 5.40328 115.099 5.40328C115.566 5.40231 116.034 5.41103 116.5 5.39844C116.683 5.3936 116.797 5.45172 116.909 5.59798C118.356 7.48299 119.81 9.36217 121.261 11.2433C121.305 11.3014 121.353 11.3566 121.448 11.4719C121.448 9.4203 121.448 7.43358 121.448 5.42459C122.168 5.42459 122.85 5.42459 123.547 5.42459C123.548 8.68702 123.548 11.9446 123.548 15.2361Z" fill="white"/>
<path d="M141.524 15.4502C139.232 15.4318 137.165 14.0204 136.534 11.9407C135.368 8.09518 138.345 5.42653 141.047 5.26574C143.385 5.12625 145.437 6.23633 146.325 8.24629C147.749 11.4671 145.713 14.7905 142.524 15.3446C142.194 15.4027 141.857 15.4163 141.524 15.4502ZM144.601 10.3279C144.597 8.58531 143.25 7.22533 141.527 7.22629C139.796 7.22726 138.454 8.59597 138.458 10.358C138.462 12.1228 139.78 13.4518 141.526 13.4509C143.266 13.4499 144.605 12.0899 144.601 10.3279Z" fill="white"/>
<path d="M101.9 15.2361C101.942 15.1189 101.966 15.0424 101.996 14.9697C103.283 11.8526 104.572 8.73742 105.854 5.61835C105.921 5.45561 106.001 5.39556 106.178 5.39944C106.677 5.41106 107.177 5.40718 107.677 5.40137C107.818 5.39943 107.898 5.43624 107.955 5.57573C109.261 8.74613 110.571 11.9146 111.881 15.084C111.896 15.1199 111.901 15.1586 111.918 15.2206C111.822 15.2264 111.744 15.2352 111.665 15.2352C111.067 15.2361 110.469 15.2274 109.871 15.241C109.68 15.2448 109.6 15.1741 109.537 15.0046C109.381 14.5833 109.202 14.1696 109.04 13.7502C108.992 13.6262 108.926 13.5778 108.787 13.5778C107.542 13.5836 106.297 13.5836 105.051 13.5778C104.899 13.5768 104.836 13.6398 104.786 13.7706C104.625 14.1909 104.447 14.6055 104.289 15.0279C104.232 15.1809 104.157 15.2429 103.987 15.241C103.306 15.2303 102.627 15.2361 101.9 15.2361ZM106.924 8.28215C106.428 9.5104 105.962 10.6641 105.49 11.8323C106.458 11.8323 107.383 11.8323 108.337 11.8323C107.867 10.6534 107.41 9.50266 106.924 8.28215Z" fill="white"/>
<path d="M99.7487 5.40328C99.7487 6.0765 99.7487 6.71194 99.7487 7.37837C98.3238 7.37837 96.9105 7.37837 95.4837 7.37837C95.4837 8.06031 95.4837 8.71221 95.4837 9.39511C96.7768 9.39511 98.0661 9.39511 99.367 9.39511C99.367 10.047 99.367 10.667 99.367 11.3179C98.0777 11.3179 96.7885 11.3179 95.475 11.3179C95.475 12.6304 95.475 13.9139 95.475 15.2158C94.7427 15.2158 94.0355 15.2158 93.2926 15.2158C93.2926 15.1189 93.2926 15.0317 93.2926 14.9445C93.2926 11.8632 93.2955 8.78195 93.2877 5.70066C93.2868 5.46721 93.3459 5.3965 93.5851 5.39747C95.5515 5.40716 97.5188 5.40328 99.4852 5.40328C99.5656 5.40328 99.647 5.40328 99.7487 5.40328Z" fill="white"/>
<path d="M129.409 7.37549C128.497 7.37549 127.631 7.37549 126.75 7.37549C126.75 6.71681 126.75 6.08137 126.75 5.42462C129.221 5.42462 131.688 5.42462 134.171 5.42462C134.171 6.06587 134.171 6.70131 134.171 7.36871C133.315 7.36871 132.46 7.36871 131.573 7.36871C131.573 9.99958 131.573 12.5995 131.573 15.2168C130.841 15.2168 130.141 15.2168 129.408 15.2168C129.409 12.6169 129.409 10.018 129.409 7.37549Z" fill="white"/>
<path d="M1.92984 9.29804V12.3452H0.903441V4.56166H3.77414C4.62591 4.56166 5.29235 4.77905 5.77347 5.21385C6.25816 5.64864 6.5005 6.2242 6.5005 6.94054C6.5005 7.69608 6.2635 8.27878 5.78951 8.68862C5.31908 9.0949 4.64372 9.29804 3.76345 9.29804H1.92984ZM1.92984 8.45875H3.77414C4.32298 8.45875 4.74351 8.33045 5.03575 8.07385C5.32799 7.81369 5.47411 7.43948 5.47411 6.95123C5.47411 6.48793 5.32799 6.11729 5.03575 5.83931C4.74351 5.56132 4.34258 5.41699 3.83294 5.4063H1.92984V8.45875ZM7.31841 9.39961C7.31841 8.83296 7.42889 8.32332 7.64985 7.87071C7.87437 7.4181 8.18443 7.06884 8.58002 6.82293C8.97917 6.57703 9.43357 6.45407 9.9432 6.45407C10.7308 6.45407 11.367 6.72671 11.8517 7.27198C12.3399 7.81725 12.584 8.5425 12.584 9.44773V9.51722C12.584 10.0803 12.4753 10.5864 12.2579 11.0354C12.0441 11.4809 11.7358 11.8284 11.3331 12.0779C10.934 12.3273 10.4742 12.4521 9.95389 12.4521C9.16984 12.4521 8.53369 12.1794 8.04544 11.6342C7.56075 11.0889 7.31841 10.3672 7.31841 9.46911V9.39961ZM8.31273 9.51722C8.31273 10.1587 8.46063 10.6737 8.75643 11.0622C9.0558 11.4506 9.45495 11.6449 9.95389 11.6449C10.4564 11.6449 10.8556 11.4488 11.1514 11.0568C11.4472 10.6612 11.5951 10.1088 11.5951 9.39961C11.5951 8.76524 11.4436 8.25205 11.1407 7.86002C10.8413 7.46443 10.4421 7.26664 9.9432 7.26664C9.45495 7.26664 9.06114 7.46087 8.76178 7.84933C8.46241 8.23779 8.31273 8.79376 8.31273 9.51722ZM18.9455 10.982L20.0575 6.56099H21.0464L19.3625 12.3452H18.5606L17.1547 7.96159L15.7862 12.3452H14.9843L13.3057 6.56099H14.2893L15.428 10.8911L16.7751 6.56099H17.5717L18.9455 10.982ZM24.4571 12.4521C23.673 12.4521 23.0351 12.1955 22.5433 11.6823C22.0515 11.1655 21.8055 10.4759 21.8055 9.61345V9.43169C21.8055 8.85791 21.9142 8.34649 22.1316 7.89744C22.3526 7.44483 22.6591 7.09201 23.0511 6.83897C23.4467 6.58237 23.8744 6.45407 24.3341 6.45407C25.0861 6.45407 25.6706 6.70176 26.0875 7.19714C26.5045 7.69252 26.713 8.40173 26.713 9.32477V9.7364H22.7945C22.8088 10.3066 22.9745 10.7681 23.2917 11.121C23.6124 11.4702 24.0187 11.6449 24.5105 11.6449C24.8598 11.6449 25.1556 11.5736 25.3979 11.431C25.6403 11.2885 25.8523 11.0996 26.0341 10.8644L26.6382 11.3348C26.1535 12.0796 25.4264 12.4521 24.4571 12.4521ZM24.3341 7.26664C23.935 7.26664 23.6 7.41276 23.3291 7.70499C23.0582 7.99367 22.8907 8.39995 22.8266 8.92384H25.724V8.849C25.6955 8.34649 25.5601 7.95803 25.3177 7.68361C25.0754 7.40563 24.7475 7.26664 24.3341 7.26664ZM30.6582 7.44839C30.5085 7.42345 30.3464 7.41097 30.1717 7.41097C29.5231 7.41097 29.083 7.68717 28.8513 8.23957V12.3452H27.8623V6.56099H28.8246L28.8406 7.22922C29.1649 6.71245 29.6247 6.45407 30.2198 6.45407C30.4123 6.45407 30.5584 6.47902 30.6582 6.52892V7.44839ZM33.8657 12.4521C33.0816 12.4521 32.4437 12.1955 31.9519 11.6823C31.4601 11.1655 31.2142 10.4759 31.2142 9.61345V9.43169C31.2142 8.85791 31.3229 8.34649 31.5403 7.89744C31.7612 7.44483 32.0677 7.09201 32.4597 6.83897C32.8553 6.58237 33.283 6.45407 33.7427 6.45407C34.4947 6.45407 35.0792 6.70176 35.4962 7.19714C35.9131 7.69252 36.1216 8.40173 36.1216 9.32477V9.7364H32.2031C32.2174 10.3066 32.3831 10.7681 32.7003 11.121C33.0211 11.4702 33.4273 11.6449 33.9191 11.6449C34.2684 11.6449 34.5642 11.5736 34.8066 11.431C35.0489 11.2885 35.2609 11.0996 35.4427 10.8644L36.0468 11.3348C35.5621 12.0796 34.8351 12.4521 33.8657 12.4521ZM33.7427 7.26664C33.3436 7.26664 33.0086 7.41276 32.7377 7.70499C32.4669 7.99367 32.2994 8.39995 32.2352 8.92384H35.1326V8.849C35.1041 8.34649 34.9687 7.95803 34.7264 7.68361C34.484 7.40563 34.1561 7.26664 33.7427 7.26664ZM37.0304 9.40496C37.0304 8.51756 37.2407 7.80478 37.6612 7.26664C38.0818 6.72493 38.6324 6.45407 39.3131 6.45407C39.9902 6.45407 40.5266 6.68573 40.9222 7.14903V4.13399H41.9111V12.3452H41.0023L40.9542 11.725C40.5586 12.2097 40.008 12.4521 39.3024 12.4521C38.6324 12.4521 38.0853 12.1777 37.6612 11.6288C37.2407 11.08 37.0304 10.3636 37.0304 9.4798V9.40496ZM38.0194 9.51722C38.0194 10.173 38.1548 10.6862 38.4257 11.0568C38.6965 11.4275 39.0707 11.6128 39.5483 11.6128C40.1755 11.6128 40.6335 11.3312 40.9222 10.7681V8.11127C40.6264 7.566 40.172 7.29337 39.559 7.29337C39.0743 7.29337 38.6965 7.48047 38.4257 7.85468C38.1548 8.22888 38.0194 8.78306 38.0194 9.51722ZM51.0632 9.51722C51.0632 10.4011 50.86 11.1121 50.4537 11.6502C50.0474 12.1848 49.5022 12.4521 48.8179 12.4521C48.0873 12.4521 47.5224 12.1937 47.1233 11.6769L47.0752 12.3452H46.1664V4.13399H47.1554V7.19714C47.5545 6.70176 48.1051 6.45407 48.8072 6.45407C49.5093 6.45407 50.0599 6.71958 50.4591 7.2506C50.8618 7.78162 51.0632 8.50865 51.0632 9.43169V9.51722ZM50.0742 9.40496C50.0742 8.73139 49.9441 8.21106 49.6839 7.84398C49.4238 7.47691 49.0496 7.29337 48.5613 7.29337C47.9091 7.29337 47.4405 7.59629 47.1554 8.20215V10.704C47.4583 11.3098 47.9305 11.6128 48.572 11.6128C49.046 11.6128 49.4149 11.4292 49.6786 11.0622C49.9423 10.6951 50.0742 10.1427 50.0742 9.40496ZM54.1423 10.8964L55.4895 6.56099H56.5479L54.2225 13.2379C53.8626 14.2001 53.2906 14.6813 52.5065 14.6813L52.3194 14.6652L51.9506 14.5957V13.7939L52.2178 13.8153C52.5528 13.8153 52.813 13.7475 52.9983 13.6121C53.1872 13.4767 53.3422 13.229 53.4634 12.869L53.6826 12.281L51.6191 6.56099H52.699L54.1423 10.8964Z" fill="white"/>
</svg>
