<svg width="44" height="44" viewBox="0 0 44 44" fill="none" xmlns="http://www.w3.org/2000/svg">
<path d="M21.5029 43.0057C33.3786 43.0057 43.0057 33.3785 43.0057 21.5028C43.0057 9.62715 33.3786 0 21.5029 0C9.62716 0 0 9.62715 0 21.5028C0 33.3785 9.62716 43.0057 21.5029 43.0057Z" fill="white"/>
<path d="M33.0366 14.3504C32.189 14.7286 31.2762 14.9829 30.3177 15.0937C31.2957 14.5069 32.0455 13.5811 32.3976 12.4727C31.4848 13.0139 30.4677 13.4116 29.3919 13.6202C28.5313 12.7009 27.299 12.1271 25.9363 12.1271C22.8785 12.1271 20.6356 14.9764 21.3267 17.9364C17.3952 17.7408 13.907 15.8566 11.5728 12.9943C10.334 15.1198 10.9274 17.9038 13.0398 19.3121C12.264 19.2861 11.5337 19.0774 10.8948 18.7188C10.8426 20.9095 12.4139 22.9633 14.6894 23.4197C14.0243 23.6023 13.2941 23.6414 12.5508 23.498C13.1507 25.3757 14.898 26.7449 16.9714 26.784C14.9828 28.3423 12.4726 29.0399 9.9624 28.7465C12.0553 30.0896 14.5459 30.872 17.2191 30.872C26.008 30.872 30.9697 23.4523 30.6698 16.7954C31.6022 16.1304 32.4041 15.3024 33.0366 14.3504Z" fill="#004FCE"/>
</svg>
