<svg width="44" height="44" viewBox="0 0 44 44" fill="none" xmlns="http://www.w3.org/2000/svg">
<path d="M21.5028 43.0057C33.3785 43.0057 43.0057 33.3785 43.0057 21.5028C43.0057 9.62715 33.3785 0 21.5028 0C9.62715 0 0 9.62715 0 21.5028C0 33.3785 9.62715 43.0057 21.5028 43.0057Z" fill="white"/>
<path fill-rule="evenodd" clip-rule="evenodd" d="M14.168 16.7694C14.1941 16.5346 14.1028 16.3064 13.9267 16.1434L12.1468 13.9984V13.6789H17.6757L21.9528 23.0546L25.7083 13.6789H30.983V13.9984L29.4573 15.4588C29.3269 15.5566 29.2617 15.7262 29.2878 15.8892V26.621C29.2617 26.784 29.3269 26.947 29.4573 27.0448L30.9438 28.5053V28.8248H23.4589V28.5053L24.9976 27.0122C25.1476 26.8623 25.1476 26.8166 25.1476 26.5884V17.9169L20.864 28.7987H20.2837L15.2959 17.9169V25.2127C15.2568 25.5192 15.3546 25.8256 15.5698 26.0473L17.5714 28.4792V28.7987H11.886V28.4792L13.8876 26.0473C14.1028 25.8256 14.2006 25.5126 14.1484 25.2127C14.168 25.1997 14.168 16.7694 14.168 16.7694Z" fill="#004FCE"/>
</svg>
