<svg width="92" height="84" viewBox="0 0 92 84" fill="none" xmlns="http://www.w3.org/2000/svg">
<path d="M87.0716 1L51.6909 26.7566L58.2627 11.5606L87.0716 1Z" fill="#E2761B" stroke="#E2761B" stroke-width="0.557834" stroke-linecap="round" stroke-linejoin="round"/>
<path d="M5.47607 1L40.5368 27.0006L34.285 11.5606L5.47607 1Z" fill="#E4761B" stroke="#E4761B" stroke-width="0.557834" stroke-linecap="round" stroke-linejoin="round"/>
<path d="M74.3542 60.7041L64.9407 74.8546L85.082 80.2917L90.8363 61.0179L74.3542 60.7041Z" fill="#E4761B" stroke="#E4761B" stroke-width="0.557834" stroke-linecap="round" stroke-linejoin="round"/>
<path d="M1.74609 61.0179L7.46525 80.2917L27.6067 74.8546L18.2286 60.7041L1.74609 61.0179Z" fill="#E4761B" stroke="#E4761B" stroke-width="0.557834" stroke-linecap="round" stroke-linejoin="round"/>
<path d="M26.5053 36.7945L20.8928 45.1244L40.8565 45.9957L40.1817 24.9095L26.5053 36.7945Z" fill="#E4761B" stroke="#E4761B" stroke-width="0.557834" stroke-linecap="round" stroke-linejoin="round"/>
<path d="M66.0421 36.7947L52.1527 24.6658L51.6909 45.9961L71.6547 45.1248L66.0421 36.7947Z" fill="#E4761B" stroke="#E4761B" stroke-width="0.557834" stroke-linecap="round" stroke-linejoin="round"/>
<path d="M27.6064 74.8542L39.6485 69.1035L29.2761 61.1568L27.6064 74.8542Z" fill="#E4761B" stroke="#E4761B" stroke-width="0.557834" stroke-linecap="round" stroke-linejoin="round"/>
<path d="M52.8987 69.1035L64.9409 74.8542L63.2713 61.1568L52.8987 69.1035Z" fill="#E4761B" stroke="#E4761B" stroke-width="0.557834" stroke-linecap="round" stroke-linejoin="round"/>
<path d="M64.9405 74.8544L52.8984 69.1036L53.8575 76.8062L53.7509 80.0476L64.9405 74.8544Z" fill="#D7C1B3" stroke="#D7C1B3" stroke-width="0.557834" stroke-linecap="round" stroke-linejoin="round"/>
<path d="M27.6064 74.8544L38.796 80.0476L38.725 76.8062L39.6485 69.1036L27.6064 74.8544Z" fill="#D7C1B3" stroke="#D7C1B3" stroke-width="0.557834" stroke-linecap="round" stroke-linejoin="round"/>
<path d="M39.009 56.0684L28.9917 53.1755L36.0607 50.0039L39.009 56.0684Z" fill="#233447" stroke="#233447" stroke-width="0.557834" stroke-linecap="round" stroke-linejoin="round"/>
<path d="M53.5378 56.0684L56.4862 50.0039L63.5908 53.1755L53.5378 56.0684Z" fill="#233447" stroke="#233447" stroke-width="0.557834" stroke-linecap="round" stroke-linejoin="round"/>
<path d="M27.6066 74.8546L29.3471 60.7041L18.2285 61.0179L27.6066 74.8546Z" fill="#CD6116" stroke="#CD6116" stroke-width="0.557834" stroke-linecap="round" stroke-linejoin="round"/>
<path d="M63.2002 60.7041L64.9408 74.8546L74.3543 61.0179L63.2002 60.7041Z" fill="#CD6116" stroke="#CD6116" stroke-width="0.557834" stroke-linecap="round" stroke-linejoin="round"/>
<path d="M71.6547 45.1244L51.6909 45.9957L53.5382 56.0683L56.4865 50.0038L63.5911 53.1756L71.6547 45.1244Z" fill="#CD6116" stroke="#CD6116" stroke-width="0.557834" stroke-linecap="round" stroke-linejoin="round"/>
<path d="M28.992 53.1756L36.0611 50.0038L39.0094 56.0683L40.8565 45.9957L20.8928 45.1244L28.992 53.1756Z" fill="#CD6116" stroke="#CD6116" stroke-width="0.557834" stroke-linecap="round" stroke-linejoin="round"/>
<path d="M20.8923 45.1244L29.2757 61.157L28.9915 53.1756L20.8923 45.1244Z" fill="#E4751F" stroke="#E4751F" stroke-width="0.557834" stroke-linecap="round" stroke-linejoin="round"/>
<path d="M63.5906 53.1756L63.271 61.157L71.6542 45.1244L63.5906 53.1756Z" fill="#E4751F" stroke="#E4751F" stroke-width="0.557834" stroke-linecap="round" stroke-linejoin="round"/>
<path d="M40.8564 45.996L39.0093 56.0686L41.3538 67.9537L41.8511 52.3044L40.8564 45.996Z" fill="#E4751F" stroke="#E4751F" stroke-width="0.557834" stroke-linecap="round" stroke-linejoin="round"/>
<path d="M51.6908 45.996L50.7317 52.2697L51.1935 67.9537L53.538 56.0686L51.6908 45.996Z" fill="#E4751F" stroke="#E4751F" stroke-width="0.557834" stroke-linecap="round" stroke-linejoin="round"/>
<path d="M53.5375 56.0684L51.1931 67.9534L52.8982 69.1035L63.2708 61.157L63.5904 53.1756L53.5375 56.0684Z" fill="#F6851B" stroke="#F6851B" stroke-width="0.557834" stroke-linecap="round" stroke-linejoin="round"/>
<path d="M28.9917 53.1756L29.276 61.157L39.6486 69.1035L41.3536 67.9534L39.009 56.0684L28.9917 53.1756Z" fill="#F6851B" stroke="#F6851B" stroke-width="0.557834" stroke-linecap="round" stroke-linejoin="round"/>
<path d="M53.751 80.0472L53.8577 76.8059L52.9696 76.0391H39.5776L38.725 76.8059L38.796 80.0472L27.6064 74.8541L31.5139 77.9909L39.471 83.3932H53.0763L61.0333 77.9909L64.9407 74.8541L53.751 80.0472Z" fill="#C0AD9E" stroke="#C0AD9E" stroke-width="0.557834" stroke-linecap="round" stroke-linejoin="round"/>
<path d="M52.8985 69.1035L51.1935 67.9534H41.3539L39.6487 69.1035L38.7251 76.806L39.5777 76.0394H52.9697L53.8577 76.806L52.8985 69.1035Z" fill="#161616" stroke="#161616" stroke-width="0.557834" stroke-linecap="round" stroke-linejoin="round"/>
<path d="M88.5635 28.4296L91.5468 14.2095L87.0712 1L52.8984 25.8853L66.0418 36.7945L84.6202 42.127L88.7049 37.4218L86.9291 36.1672L89.7706 33.6228L87.604 31.9498L90.4457 29.8236L88.5635 28.4296Z" fill="#763D16" stroke="#763D16" stroke-width="0.557834" stroke-linecap="round" stroke-linejoin="round"/>
<path d="M1 14.2095L4.01942 28.4296L2.10119 29.8236L4.943 31.9498L2.77612 33.6228L5.61794 36.1672L3.8418 37.4218L7.9269 42.127L26.5052 36.7945L39.6486 25.8853L5.47585 1L1 14.2095Z" fill="#763D16" stroke="#763D16" stroke-width="0.557834" stroke-linecap="round" stroke-linejoin="round"/>
<path d="M84.62 42.1271L66.0418 36.7945L71.6542 45.1245L63.271 61.1571L74.354 61.0177H90.8363L84.62 42.1271Z" fill="#F6851B" stroke="#F6851B" stroke-width="0.557834" stroke-linecap="round" stroke-linejoin="round"/>
<path d="M26.5054 36.7945L7.92704 42.1271L1.74609 61.0177H18.2286L29.2761 61.1571L20.8928 45.1245L26.5054 36.7945Z" fill="#F6851B" stroke="#F6851B" stroke-width="0.557834" stroke-linecap="round" stroke-linejoin="round"/>
<path d="M51.6908 45.9952L52.8987 25.8848L58.2625 11.5601H34.2847L39.6487 25.8848L40.8565 45.9952L41.3183 52.3385L41.3537 67.9528H51.1934L51.229 52.3385L51.6908 45.9952Z" fill="#F6851B" stroke="#F6851B" stroke-width="0.557834" stroke-linecap="round" stroke-linejoin="round"/>
</svg>
