<svg width="88" height="88" viewBox="0 0 88 88" fill="none" xmlns="http://www.w3.org/2000/svg">
<path d="M39.8702 87.7777C19.7998 85.9123 3.56394 70.4018 0.489485 50.1587C-3.48313 24.0431 17.2435 0.0347393 43.8428 0.000194818C56.2442 -0.0343496 67.0221 4.52552 75.5546 13.3344C83.3616 21.4178 87.4379 30.8829 87.956 42.0753C88.3706 51.5751 85.8488 60.6257 80.5635 68.5364C78.3181 71.8872 73.2056 77.2071 69.8548 79.6252C61.2877 85.7741 50.3371 88.7449 39.8702 87.7777ZM47.09 70.6091C48.4717 69.6764 51.4771 67.9146 53.7225 66.7055C58.2824 64.2183 61.3914 61.593 63.084 58.7603C65.3985 54.8913 66.6767 48.1897 67.333 36.6864C67.8512 27.1867 67.8166 26.0813 66.8839 25.1486C66.193 24.4577 65.6403 24.354 62.1513 24.1468C55.8642 23.8013 51.3389 22.3505 46.8481 19.276C45.57 18.4124 44.4646 17.687 44.3609 17.687C44.2573 17.687 43.1519 18.4124 41.8737 19.276C37.3484 22.385 32.9267 23.8013 26.5705 24.1468C23.0816 24.354 22.5288 24.4577 21.838 25.1486C20.9053 26.0813 20.9053 26.2885 21.3889 35.961C22.4598 56.2386 24.6015 60.9712 35.3794 66.9128C37.7975 68.26 40.7338 69.9873 41.9083 70.7818C43.0483 71.5763 44.1191 72.2327 44.2573 72.2327C44.3955 72.2672 45.6736 71.5072 47.09 70.6091Z" fill="#3375BB"/>
<path d="M41.7356 67.5C40.9065 66.9473 38.2812 65.4619 35.9667 64.1492C33.6177 62.802 31.0959 61.213 30.3359 60.5912C26.8124 57.5858 25.2579 50.366 24.6361 33.8537L24.3943 27.7739L26.4324 27.5667C31.8559 26.9794 36.5885 25.494 40.872 23.0413C42.392 22.1777 44.0155 21.4868 44.4646 21.4868C44.9482 21.4868 46.0537 21.9359 46.9173 22.4886C50.6135 24.8722 57.7988 27.3594 60.9423 27.3594C61.5641 27.3594 62.5659 27.463 63.1532 27.5667L64.224 27.8085V30.6066C64.224 34.441 63.6022 44.148 63.1532 47.7406C62.635 51.8514 61.5641 55.8931 60.4932 57.8967C59.3533 59.9694 57.8333 61.3166 54.3098 63.2511C52.8244 64.1147 50.199 65.6001 48.4718 66.6364C44.8446 68.7436 43.9119 68.8818 41.7356 67.5Z" fill="#3375BB"/>
</svg>
