<svg width="44" height="44" viewBox="0 0 44 44" fill="none" xmlns="http://www.w3.org/2000/svg">
<path d="M21.5028 43.0057C33.3785 43.0057 43.0057 33.3785 43.0057 21.5028C43.0057 9.62715 33.3785 0 21.5028 0C9.62715 0 0 9.62715 0 21.5028C0 33.3785 9.62715 43.0057 21.5028 43.0057Z" fill="#004FCE"/>
<path d="M12.9552 23.4262L15.6284 30.1157C15.8109 30.5786 16.4108 30.7025 16.7629 30.3504L20.0098 27.1035L25.9756 31.85C26.3733 32.1695 26.9666 31.9609 27.084 31.4653L31.4849 12.5444C31.6088 11.9967 31.0742 11.5338 30.5526 11.7424L8.72373 20.5053C8.14345 20.74 8.14346 21.568 8.73026 21.7962L12.9552 23.4262ZM11.5469 20.9226L22.8003 16.4042L13.4377 22.0635L11.5469 21.3268C11.3643 21.2616 11.3578 21.0008 11.5469 20.9226ZM24.8998 16.828L17.0888 23.9739L16.15 27.5142L14.4091 23.1719L24.8998 16.828ZM17.6691 27.3969L18.1451 25.6104L18.8753 26.1907L17.6691 27.3969ZM25.6756 29.7571L18.8362 24.3195L29.5355 14.5265L26.0212 29.6267C25.9886 29.7962 25.806 29.8614 25.6756 29.7571Z" fill="white"/>
</svg>
