<svg width="44" height="44" viewBox="0 0 44 44" fill="none" xmlns="http://www.w3.org/2000/svg">
<path d="M21.5029 43.0057C33.3786 43.0057 43.0057 33.3785 43.0057 21.5028C43.0057 9.62715 33.3786 0 21.5029 0C9.62716 0 0 9.62715 0 21.5028C0 33.3785 9.62716 43.0057 21.5029 43.0057Z" fill="#004FCE"/>
<path d="M33.0367 14.3504C32.1891 14.7286 31.2763 14.9829 30.3178 15.0937C31.2958 14.5069 32.0456 13.5811 32.3977 12.4727C31.4849 13.0139 30.4678 13.4116 29.392 13.6202C28.5314 12.7009 27.2991 12.1271 25.9364 12.1271C22.8785 12.1271 20.6357 14.9764 21.3268 17.9364C17.3953 17.7408 13.9071 15.8566 11.5729 12.9943C10.3341 15.1198 10.9274 17.9038 13.0399 19.3121C12.264 19.2861 11.5338 19.0774 10.8948 18.7188C10.8427 20.9095 12.414 22.9633 14.6895 23.4197C14.0244 23.6023 13.2942 23.6414 12.5509 23.498C13.1508 25.3757 14.8981 26.7449 16.9715 26.784C14.9829 28.3423 12.4727 29.0399 9.96249 28.7465C12.0554 30.0896 14.546 30.872 17.2192 30.872C26.0081 30.872 30.9698 23.4523 30.6699 16.7954C31.6023 16.1304 32.4042 15.3024 33.0367 14.3504Z" fill="white"/>
</svg>
