<svg width="44" height="44" viewBox="0 0 44 44" fill="none" xmlns="http://www.w3.org/2000/svg">
<path d="M21.5028 43.0057C33.3785 43.0057 43.0057 33.3786 43.0057 21.5029C43.0057 9.62716 33.3785 0 21.5028 0C9.62714 0 0 9.62716 0 21.5029C0 33.3786 9.62714 43.0057 21.5028 43.0057Z" fill="white"/>
<path d="M31.0807 14.6504C27.9445 12.3032 24.9649 12.3684 24.9649 12.3684L24.6585 12.714C28.3553 13.8484 30.0766 15.4784 30.0766 15.4784C27.8141 14.2396 25.5974 13.6268 23.5305 13.392C21.9657 13.216 20.4596 13.2616 19.1361 13.4377C19.0057 13.4377 18.8948 13.4572 18.7644 13.4833C18.0016 13.5485 16.1564 13.8289 13.8223 14.8525C13.0203 15.2242 12.5379 15.4849 12.5379 15.4849C12.5379 15.4849 14.3439 13.7637 18.2624 12.6357L18.0472 12.3749C18.0472 12.3749 15.0676 12.3097 11.9315 14.6569C11.9315 14.6569 8.79541 20.3358 8.79541 27.3383C8.79541 27.3383 10.621 30.4939 15.4327 30.6439C15.4327 30.6439 16.2347 29.6659 16.8932 28.8378C14.1288 28.0098 13.0855 26.269 13.0855 26.269C13.0855 26.269 13.3007 26.4189 13.6919 26.6406C13.7115 26.6602 13.7375 26.6863 13.7767 26.7058C13.8419 26.7515 13.9071 26.771 13.9723 26.8167C14.5134 27.1231 15.0611 27.3578 15.5631 27.5534C16.4564 27.899 17.5191 28.251 18.7644 28.4858C20.3944 28.7922 22.3113 28.8965 24.3977 28.5053C25.4213 28.3293 26.4645 28.0294 27.5533 27.573C28.3162 27.2926 29.1638 26.8753 30.057 26.2885C30.057 26.2885 28.9682 28.075 26.119 28.877C26.771 29.705 27.5533 30.6374 27.5533 30.6374C32.3586 30.4874 34.2103 27.3317 34.2103 27.3317C34.2103 20.3293 31.0807 14.6504 31.0807 14.6504ZM17.4344 25.3105C16.2151 25.3105 15.2176 24.2217 15.2176 22.8982C15.2176 21.5746 16.1956 20.4858 17.4344 20.4858C18.6732 20.4858 19.6772 21.5746 19.6512 22.8982C19.6577 24.2217 18.6797 25.3105 17.4344 25.3105ZM25.3757 25.3105C24.1564 25.3105 23.1589 24.2217 23.1589 22.8982C23.1589 21.5746 24.1369 20.4858 25.3757 20.4858C26.6145 20.4858 27.5925 21.5746 27.5925 22.8982C27.5925 24.2217 26.621 25.3105 25.3757 25.3105Z" fill="#004FCE"/>
</svg>
