<svg width="44" height="44" viewBox="0 0 44 44" fill="none" xmlns="http://www.w3.org/2000/svg">
<path d="M21.5028 43.0057C33.3785 43.0057 43.0057 33.3785 43.0057 21.5028C43.0057 9.62715 33.3785 0 21.5028 0C9.62715 0 0 9.62715 0 21.5028C0 33.3785 9.62715 43.0057 21.5028 43.0057Z" fill="#004FCE"/>
<path fill-rule="evenodd" clip-rule="evenodd" d="M14.1679 16.7693C14.194 16.5346 14.1027 16.3064 13.9266 16.1434L12.1467 13.9983V13.6789H17.6756L21.9527 23.0546L25.7082 13.6789H30.9829V13.9983L29.4572 15.4588C29.3268 15.5566 29.2616 15.7261 29.2877 15.8891V26.621C29.2616 26.784 29.3268 26.947 29.4572 27.0448L30.9438 28.5053V28.8248H23.4588V28.5053L24.9975 27.0122C25.1475 26.8622 25.1475 26.8166 25.1475 26.5884V17.9168L20.8639 28.7987H20.2836L15.2958 17.9168V25.2127C15.2567 25.5191 15.3545 25.8256 15.5697 26.0472L17.5713 28.4792V28.7987H11.8859V28.4792L13.8875 26.0472C14.1027 25.8256 14.2005 25.5126 14.1483 25.2127C14.1679 25.1997 14.1679 16.7693 14.1679 16.7693Z" fill="white"/>
</svg>
